<?xml version="1.0" encoding="utf-8"?>
<!-- Generator: Adobe Illustrator 21.0.0, SVG Export Plug-In . SVG Version: 6.00 Build 0)  -->
<svg version="1.1" id="Layer_1" xmlns="http://www.w3.org/2000/svg" xmlns:xlink="http://www.w3.org/1999/xlink" x="0px" y="0px"
	 viewBox="0 0 200 200" style="enable-background:new 0 0 200 200;" xml:space="preserve">
<style type="text/css">
	.st0{fill:#FFFFFF;}
</style>
<g>
	<path class="st0" d="M28.4,112.7v9.7c2.9-0.3,4.4-2.1,4.4-5.2c0-1.3-0.3-2.3-0.9-2.9S30.1,113.1,28.4,112.7z"/>
	<path class="st0" d="M22.4,104.8c0,1.3,0.4,2.3,1.1,3c0.7,0.6,1.7,1.1,2.9,1.4v-8.8C23.7,100.8,22.4,102.3,22.4,104.8z"/>
	<path class="st0" d="M27.3,88.5c-12.7,0-22.9,10.2-22.9,22.8s10.3,22.8,22.9,22.8c12.7,0,22.9-10.2,22.9-22.8
		C50.2,98.8,40,88.5,27.3,88.5z M34.4,122.6c-1.4,1.5-3.4,2.4-5.9,2.5v2.8h-2v-2.8c-5.2-0.5-8-3.2-8.3-8h3.7c0.3,3,1.8,4.8,4.6,5.2
		v-10.2c-5.2-1-7.7-3.4-7.7-7.2c0-2.1,0.7-3.9,2.1-5.2c1.4-1.3,3.3-2.1,5.7-2.3v-2.8h2v2.8c4.5,0.3,7,2.5,7.5,6.6h-3.7
		c-0.2-2.3-1.4-3.5-3.7-3.8v9.2l0,0c3.2,0.6,5.3,1.5,6.4,2.7c1.1,1.2,1.7,2.8,1.7,4.8C36.5,119.2,35.8,121,34.4,122.6z"/>
</g>
<path class="st0" d="M188.8,171H180V68.3c0-1.4-1.2-2.6-2.6-2.6h-23.9c-1.4,0-2.6,1.2-2.6,2.6V171h-10.1v-50.9
	c0-1.4-1.2-2.6-2.6-2.6h-23.9c-1.4,0-2.6,1.2-2.6,2.6V171H102v-66c0-1.4-1.2-2.6-2.6-2.6H75.5c-1.4,0-2.6,1.2-2.6,2.6v66H62.1v-28.3
	c0-1.4-1.2-2.6-2.6-2.6H35.6c-1.4,0-2.6,1.2-2.6,2.6V171h-7.9c-2.8,0-5.2,2.3-5.2,5.2l0,0c0,3,2.4,5.4,5.4,5.4h163.5
	c2.8,0,5.2-2.3,5.2-5.2v-0.2C194,173.3,191.7,171,188.8,171z"/>
<path class="st0" d="M175.3,23.9v20c0,2.8-2.3,5.2-5.2,5.2l0,0c-2.8,0-5.2-2.3-5.2-5.2v-5.6c0,0-28.6,34.3-31.4,37.4
	c-2.8,3.1-4.3,2.7-8.2,1.2c-3.9-1.5-36.7-16.1-36.7-16.1L55.5,90.2c-2.1,1.9-5.4,1.6-7.2-0.5l0,0c-1.9-2.1-1.6-5.4,0.5-7.2
	l34.8-30.8c2.1-1.9,3.9-2.8,8.2-0.7l36.1,15.9l32-38.3h-4.6h-5.6c-2.8,0-5.2-2.3-5.2-5.2l0,0c0-2.8,2.3-5.2,5.2-5.2h18.9
	C171.4,18.2,175.2,17.7,175.3,23.9z"/>
</svg>
