<?xml version="1.0" encoding="utf-8"?>
<!-- Generator: Adobe Illustrator 21.0.0, SVG Export Plug-In . SVG Version: 6.00 Build 0)  -->
<svg version="1.1" id="Layer_1" xmlns="http://www.w3.org/2000/svg" xmlns:xlink="http://www.w3.org/1999/xlink" x="0px" y="0px"
	 viewBox="0 0 200 200" style="enable-background:new 0 0 200 200;" xml:space="preserve">
<style type="text/css">
	.st0{fill:#FFFFFF;}
</style>
<title>policy-purchase</title>
<g id="Layer_2">
	<g id="Layer_1-2">
		<g id="Layer_1-2-2">
			<path class="st0" d="M161.1,191.8v-3.8H64.7l-28.6-32.1V14.7c0-1.5,1.3-2.8,2.8-2.8h122.2c1.6,0,2.8,1.3,2.8,2.8v170.5
				c0,1.6-1.3,2.8-2.8,2.8v7.5c5.7,0,10.3-4.6,10.3-10.3V14.7c0-5.7-4.6-10.3-10.3-10.3H38.9c-5.7,0-10.3,4.6-10.3,10.3v142.6
				c0,0.9,0.3,1.8,1,2.5l30.7,34.5c0.7,0.8,1.7,1.3,2.8,1.3h98.1V191.8z"/>
			<path class="st0" d="M32.3,157.3v3.8h24.1c1.6,0,2.8,1.3,2.8,2.8v18l-24.1-27.1L32.3,157.3L32.3,157.3l-2.8,2.5l30.7,34.5
				c1.4,1.5,3.8,1.7,5.3,0.3c0,0,0,0,0,0c0.8-0.7,1.2-1.7,1.2-2.8v-27.9c0-5.7-4.6-10.3-10.3-10.4H32.3c-2.1,0-3.8,1.7-3.8,3.7
				c0,0,0,0,0,0c0,0.9,0.3,1.8,1,2.5L32.3,157.3z"/>
			<path class="st0" d="M140.6,116.3H59.4c-2.1-0.2-3.9,1.3-4.1,3.4c-0.2,2.1,1.3,3.9,3.4,4.1c0.2,0,0.5,0,0.7,0h81.1
				c2.1,0.2,3.9-1.3,4.1-3.4c0.2-2.1-1.3-3.9-3.4-4.1H140.6"/>
			<path class="st0" d="M140.6,137.9H59.4c-2.1-0.3-4,1.2-4.3,3.3c-0.3,2.1,1.2,4,3.3,4.3c0,0,0.1,0,0.1,0c0.3,0,0.6,0,0.9,0h81.1
				c2.1,0.2,4-1.2,4.2-3.3s-1.2-4-3.3-4.2l0,0C141.2,137.9,140.9,137.9,140.6,137.9"/>
			<path class="st0" d="M124.8,30.8c-8.9,0-17.1-1.4-23.1-6.4c-6,5.1-5.6,4.7-14.5,4.7c-3.8,0-7.4,2.8-10.8,1.8v28.4
				c0.5,6.7,3.5,12.9,8.5,17.3l25.3,18.8L127,80.1c5-4.4,8.1-10.7,8.5-17.3V29.2C132,30.3,128.4,30.8,124.8,30.8z M100.9,72.3
				c-0.8,0-1.6-0.2-2.2-0.7l-8.2-7c-1.2-1.4-1.1-3.6,0.3-4.8c1.1-1,2.8-1.1,4.1-0.3l5.4,4.7l11.8-15.2c1.1-1.6,3.2-1.9,4.7-0.9
				s1.9,3.2,0.9,4.7c0,0.1-0.1,0.1-0.1,0.2l-0.1,0.1l-13.9,17.8c-0.6,0.7-1.4,1.2-2.3,1.3L100.9,72.3z"/>
			<path class="st0" d="M100,104c-0.7,0-1.5-0.2-2-0.7L72.7,84.6c-5.6-4.6-10-13.4-10-20.1V31c0-1.9,1.5-3.4,3.4-3.4
				c0.3,0,0.7,0.1,1,0.2c3.2,1,6.5,1.4,9.8,1.4c7.6,0.1,15-2.5,20.9-7.3c1.3-1.1,3.1-1.1,4.4,0c5.9,4.8,13.3,7.4,20.9,7.3
				c3.3,0,6.6-0.5,9.8-1.4c1.8-0.5,3.7,0.5,4.3,2.3c0,0,0,0,0,0c0.1,0.3,0.1,0.7,0.1,1v33.5c-0.4,7.7-3.9,14.9-9.7,20L102,103.4
				C101.5,103.8,100.7,104,100,104z M69.5,35.3v29.2c0.5,5.6,3.1,10.9,7.3,14.7L100,96.4L123.2,79c4.1-3.8,6.7-9,7.2-14.6V35.3
				c-2.4,0.4-4.9,0.7-7.4,0.7c-8.3,0-16.3-2.5-23.1-7.2c-6.7,4.8-14.8,7.3-23.1,7.2C74.4,35.9,71.9,35.7,69.5,35.3z"/>
		</g>
	</g>
</g>
</svg>
