<?xml version="1.0" encoding="utf-8"?>
<!-- Generator: Adobe Illustrator 21.0.0, SVG Export Plug-In . SVG Version: 6.00 Build 0)  -->
<svg version="1.1" id="Layer_1" xmlns="http://www.w3.org/2000/svg" xmlns:xlink="http://www.w3.org/1999/xlink" x="0px" y="0px"
	 viewBox="0 0 300 300" style="enable-background:new 0 0 300 300;" xml:space="preserve">
<style type="text/css">
	.st0{fill:#FFFFFF;}
</style>
<g>
	<path class="st0" d="M246.3,29.4c0,13.1-10.6,23.7-23.7,23.7c-13.1,0-23.7-10.6-23.7-23.7s10.6-23.7,23.7-23.7
		C235.7,5.8,246.3,16.4,246.3,29.4"/>
	<path class="st0" d="M101.1,29.4c0,13.1-10.6,23.7-23.7,23.7S53.7,42.5,53.7,29.4S64.3,5.7,77.4,5.7
		C90.5,5.8,101.1,16.4,101.1,29.4"/>
	<path class="st0" d="M173.7,29.4c0,13.1-10.6,23.7-23.7,23.7c-13.1,0-23.7-10.6-23.7-23.7S136.9,5.7,150,5.7
		C163.1,5.8,173.7,16.4,173.7,29.4"/>
	<path class="st0" d="M264.5,159.4H242l2.7-48c4.3-0.6,8.2-1.2,12.1-2.1c2.7-0.6,4.6-3.3,4.3-6.1l-2.7-21.9
		c-1.2-11.2-9.7-20.3-20.3-22.8L227.4,85L225,65.9h1.5c0.9,0,1.5-0.6,1.5-1.8v-5.2c0-0.9-0.6-1.5-1.5-1.5H218
		c-0.9,0-1.5,0.6-1.5,1.5v5.2c0,0.9,0.6,1.8,1.5,1.8h1.8L217.4,85l-10.3-26.1c-4.9,1.2-8.8,3.6-12.5,6.7c2.4,4.3,3.9,9.4,4.6,14.3
		l2.7,21.9c0.3,3.6,0,7-1.5,10l2.7,48h-33.7l2.7-48c4.3-0.6,8.2-1.2,12.1-2.1c2.7-0.6,4.6-3.3,4.3-6.1l-2.7-21.9
		c-1.2-11.2-9.7-20.3-20.3-22.8l-10.6,26.4l-2.4-19.1h1.5c0.9,0,1.5-0.6,1.5-1.5v-5.2c0-0.9-0.6-1.5-1.5-1.5h-8.5
		c-0.9,0-1.5,0.6-1.5,1.5v5.2c0,0.9,0.6,1.5,1.5,1.5h1.5l-2.4,19.1l-10-26.4c-10.6,2.4-19.1,11.5-20.3,22.8l-2.7,21.9
		c-0.3,2.7,1.5,5.5,4.3,6.1c3.9,0.9,8.2,1.5,12.1,2.1l2.7,48H96.9l2.7-47.7c-1.2-3-1.8-6.4-1.5-10l2.7-21.9c0.6-5.2,2.1-10,4.6-14.3
		c-3.3-3.3-7.6-5.5-12.5-6.7L82.3,85.6l-2.1-19.4h1.5c0.9,0,1.8-0.6,1.8-1.8v-5.2c0-0.9-0.6-1.5-1.8-1.5h-8.5
		c-0.9,0-1.5,0.6-1.5,1.5v5.2c0,0.9,0.6,1.8,1.5,1.8h1.5l-2.4,19.1L61.9,58.9c-10.6,2.4-18.8,11.5-20.3,22.8l-2.7,21.9
		c-0.3,2.7,1.5,5.5,4.3,6.1c3.9,0.9,8.2,1.5,12.1,2.1l2.7,48H35.5c-5.5,0-10,4.6-10,10c0,68.6,55.9,124.5,124.5,124.5
		s124.5-55.9,124.5-124.5C274.5,164,269.9,159.4,264.5,159.4L264.5,159.4z M53.7,210.1c-3.9-9.4-6.7-19.7-7.9-30.4h55
		c0.3,10.3,1.2,20.6,2.4,30.4H53.7z M65.3,230.2h41.6c3,14.9,7.3,28.5,12.8,39.2C97.5,262.7,78.3,248.7,65.3,230.2z M150,273.9
		c-6.4,0-16.4-15.2-22.8-43.7h45.6C166.4,259,156.4,273.9,150,273.9L150,273.9z M176.4,210.1h-52.8c-1.2-9.1-2.1-19.4-2.4-30.4h57.4
		C178.5,190.7,177.6,201,176.4,210.1L176.4,210.1z M180.7,269.3c5.5-10.6,9.7-24,12.8-39.2H235C221.7,248.7,202.5,262.7,180.7,269.3
		z M246.3,210.1h-49.8c1.2-9.7,2.1-20,2.4-30.4h55C252.9,190.4,250.2,200.7,246.3,210.1L246.3,210.1z"/>
</g>
</svg>
