<?xml version="1.0" encoding="utf-8"?>
<!-- Generator: Adobe Illustrator 21.0.0, SVG Export Plug-In . SVG Version: 6.00 Build 0)  -->
<svg version="1.1" id="Layer_1" xmlns="http://www.w3.org/2000/svg" xmlns:xlink="http://www.w3.org/1999/xlink" x="0px" y="0px"
	 viewBox="0 0 200 200" style="enable-background:new 0 0 200 200;" xml:space="preserve">
<style type="text/css">
	.st0{display:none;}
	.st1{display:inline;}
	.st2{fill:#F4EFF7;}
	.st3{fill:#2C2A6B;}
	.st4{display:inline;fill:#F4EFF7;}
	.st5{display:inline;fill:#2C2A6B;}
	.st6{fill:#FFFFFF;}
</style>
<g class="st0">
	<g class="st1">
		<path class="st2" d="M109.2,136.4c0.2-0.4,0.6-0.8,1-0.8h1.6v-4.3h-1.6c-0.5,0-0.9-0.3-1-0.8c-0.1-0.3-0.2-0.5-0.3-0.8
			c-0.2-0.4-0.1-0.9,0.2-1.3l1.2-1.2l-3.1-3.1l-1.2,1.2c-0.3,0.3-0.8,0.4-1.3,0.2c-0.3-0.1-0.5-0.2-0.8-0.3c-0.5-0.2-0.8-0.6-0.8-1
			v-1.7h-4.3v1.7c0,0.5-0.3,0.9-0.8,1c-0.3,0.1-0.5,0.2-0.8,0.3c-0.4,0.2-0.9,0.1-1.3-0.2l-1.2-1.2l-3,3.1l1.2,1.2
			c0.3,0.3,0.4,0.8,0.2,1.3c-0.1,0.3-0.2,0.5-0.3,0.8c-0.2,0.4-0.6,0.8-1,0.8h-1.7v4.3h1.7c0.5,0,0.9,0.3,1,0.8
			c0.1,0.3,0.2,0.5,0.3,0.8c0.2,0.4,0.1,0.9-0.2,1.3l-1.2,1.2l3,3.1l1.2-1.2c0.3-0.3,0.8-0.4,1.3-0.2c0.3,0.1,0.5,0.2,0.8,0.3
			c0.4,0.2,0.8,0.6,0.8,1v1.6h4.3v-1.6c0-0.5,0.3-0.9,0.8-1c0.3-0.1,0.5-0.2,0.8-0.3c0.4-0.2,0.9-0.1,1.3,0.2l1.2,1.2l3.1-3.1
			l-1.2-1.2c-0.3-0.3-0.4-0.8-0.2-1.3C109,136.9,109.1,136.6,109.2,136.4z M101.1,137.8c-2.4,0-4.3-1.9-4.3-4.3s1.9-4.3,4.3-4.3
			s4.3,1.9,4.3,4.3S103.4,137.8,101.1,137.8z"/>
		<path class="st2" d="M130.2,114v1.8c0,0.5-0.3,0.9-0.8,1c-0.6,0.2-1.3,0.5-1.9,0.8c-0.4,0.2-0.9,0.2-1.3-0.2l-1.3-1.3l-4.6,4.6
			l1.3,1.3c0.3,0.3,0.4,0.8,0.2,1.3c-0.3,0.6-0.6,1.2-0.8,1.8c-0.2,0.4-0.6,0.8-1,0.8h-1.8v6.5h1.8c0.5,0,0.9,0.3,1,0.8
			c0.2,0.6,0.5,1.3,0.8,1.9c0.2,0.4,0.2,0.9-0.2,1.3l-1.3,1.3l4.6,4.6l1.3-1.3c0.3-0.3,0.8-0.4,1.3-0.2c0.6,0.3,1.2,0.6,1.9,0.8
			c0.5,0.2,0.8,0.6,0.8,1v1.8h6.5v-1.8c0-0.5,0.3-0.9,0.8-1c0.6-0.2,1.3-0.5,1.8-0.8c0.4-0.2,0.9-0.2,1.3,0.2l1.3,1.3l4.6-4.6
			l-1.3-1.3c-0.3-0.3-0.4-0.9-0.2-1.3c0.3-0.6,0.6-1.2,0.8-1.9c0.1-0.5,0.5-0.8,1-0.8h1.8v-6.5h-1.8c-0.5,0-0.9-0.3-1-0.8
			c-0.2-0.6-0.5-1.3-0.8-1.8c-0.2-0.4-0.2-0.9,0.2-1.3l1.3-1.3l-4.6-4.6l-1.3,1.3c-0.3,0.3-0.8,0.4-1.3,0.2
			c-0.6-0.3-1.2-0.6-1.8-0.8c-0.4-0.2-0.8-0.6-0.8-1V114H130.2z M141,129.1c0,4.2-3.4,7.6-7.6,7.6c-4.2,0-7.6-3.4-7.6-7.6
			c0-4.2,3.4-7.6,7.6-7.6C137.6,121.6,141,124.9,141,129.1z"/>
		<polygon class="st2" points="89.2,120.5 97.8,120.5 97.8,106.4 102.2,106.4 93.5,96.7 84.9,106.4 89.2,106.4 		"/>
		<polygon class="st2" points="121.6,116.2 121.6,98.9 125.9,98.9 117.3,89.2 108.6,98.9 112.9,98.9 112.9,116.2 		"/>
		<polygon class="st2" points="132.4,89.2 136.7,89.2 136.7,111.8 145.4,111.8 145.4,89.2 149.7,89.2 141,79.4 		"/>
	</g>
	<g class="st1">
		<path class="st3" d="M72.9,111.8c-3.7,0-6.6,3-6.6,6.6s3,6.6,6.6,6.6c3.7,0,6.6-3,6.6-6.6C79.6,114.8,76.6,111.8,72.9,111.8z
			 M72.9,122.5c-2.2,0-4-1.8-4-4s1.8-4,4-4s4,1.8,4,4S75.1,122.5,72.9,122.5z"/>
		<path class="st3" d="M86.2,122.5c0.7,0,1.3-0.6,1.3-1.3v-5.3c0-0.7-0.6-1.3-1.3-1.3l-2-0.1c-0.1-0.4-0.3-0.7-0.5-1.1l1.4-1.4
			c0.5-0.5,0.5-1.4,0-1.9l-3.8-3.8c-0.5-0.5-1.4-0.5-1.9,0l-1.5,1.4c-0.3-0.2-0.7-0.3-1.1-0.5v-2c0-0.7-0.6-1.3-1.3-1.3h-5.3
			c-0.7,0-1.3,0.6-1.3,1.3l-0.1,2c-0.4,0.1-0.7,0.3-1.1,0.5l-1.4-1.4c-0.5-0.5-1.4-0.5-1.9,0l-3.8,3.8c-0.5,0.5-0.5,1.4,0,1.9
			l1.4,1.5c-0.2,0.3-0.3,0.7-0.4,1.1h-2c-0.7,0-1.3,0.6-1.3,1.3v5.3c0,0.7,0.6,1.3,1.3,1.3l2,0.1c0.1,0.4,0.3,0.7,0.5,1.1l-1.4,1.4
			c-0.5,0.5-0.5,1.4,0,1.9l3.8,3.8c0.5,0.5,1.4,0.5,1.9,0l1.5-1.4c0.3,0.2,0.7,0.3,1.1,0.5v2c0,0.7,0.6,1.3,1.3,1.3h5.3
			c0.7,0,1.3-0.6,1.3-1.3l0.1-2c0.4-0.1,0.7-0.3,1.1-0.5l1.4,1.4c0.5,0.5,1.4,0.5,1.9,0l3.8-3.8c0.5-0.5,0.5-1.4,0-1.9l-1.4-1.5
			c0.2-0.3,0.3-0.7,0.4-1.1H86.2L86.2,122.5z M81.8,125.5l0.5,0.5l-1.9,1.9l-0.5-0.5c-0.8-0.8-2-1-3.1-0.5c-0.3,0.1-0.5,0.2-0.8,0.3
			c-1.1,0.4-1.8,1.4-1.8,2.5v0.7h-2.7v-0.7c0-1.1-0.7-2.1-1.8-2.5c-0.3-0.1-0.5-0.2-0.8-0.3c-1.1-0.5-2.3-0.3-3.1,0.5l-0.5,0.5
			l-1.9-1.9l0.5-0.5c0.8-0.8,1-2,0.5-3.1c-0.1-0.3-0.2-0.5-0.3-0.8c-0.4-1.1-1.4-1.8-2.5-1.8H61v-2.7h0.7c1.1,0,2.1-0.7,2.5-1.8
			c0.1-0.3,0.2-0.6,0.3-0.8c0.5-1.1,0.3-2.3-0.5-3.1l-0.5-0.5l1.9-1.9l0.5,0.5c0.8,0.8,2,1,3.1,0.5c0.3-0.1,0.5-0.2,0.8-0.3
			c1.1-0.4,1.8-1.4,1.8-2.5v-0.7h2.7v0.7c0,1.1,0.7,2.1,1.8,2.5c0.3,0.1,0.5,0.2,0.8,0.3c1.1,0.5,2.3,0.3,3.1-0.5l0.5-0.5l1.9,1.9
			l-0.5,0.5c-0.8,0.8-1,2-0.5,3.1c0.1,0.3,0.2,0.5,0.3,0.8c0.4,1.1,1.4,1.8,2.5,1.8h0.7v2.7h-0.7c-1.1,0-2.1,0.7-2.5,1.8
			c-0.1,0.3-0.2,0.6-0.3,0.8C80.8,123.5,81,124.7,81.8,125.5z"/>
		<path class="st3" d="M110.1,102.5c-5.9,0-10.6,4.8-10.6,10.6s4.8,10.6,10.6,10.6s10.6-4.8,10.6-10.6S116,102.5,110.1,102.5z
			 M110.1,121.1c-4.4,0-8-3.6-8-8s3.6-8,8-8s8,3.6,8,8S114.5,121.1,110.1,121.1z"/>
		<path class="st3" d="M128.7,107.9h-2.2c-0.3-0.8-0.6-1.7-1-2.5l1.6-1.5c0.3-0.3,0.4-0.6,0.4-0.9s-0.1-0.7-0.4-0.9l-5.6-5.6
			c-0.5-0.5-1.4-0.5-1.9,0L118,98c-0.8-0.4-1.6-0.8-2.5-1v-2.2c0-0.7-0.6-1.3-1.3-1.3h-8c-0.7,0-1.3,0.6-1.3,1.3V97
			c-0.8,0.3-1.7,0.6-2.5,1l-1.5-1.6c-0.3-0.3-0.6-0.4-0.9-0.4c-0.4,0-0.7,0.1-0.9,0.4l-5.6,5.7c-0.3,0.3-0.4,0.6-0.4,0.9
			c0,0.4,0.1,0.7,0.4,0.9l1.5,1.6c-0.4,0.8-0.8,1.6-1,2.5h-2.2c-0.7,0-1.3,0.6-1.3,1.3v8c0,0.7,0.6,1.3,1.3,1.3H94
			c0.3,0.8,0.6,1.7,1,2.5l-1.6,1.6c-0.5,0.5-0.5,1.4,0,1.9l5.6,5.6c0.5,0.5,1.4,0.5,1.9,0l1.6-1.5c0.8,0.4,1.6,0.8,2.5,1v2.2
			c0,0.7,0.6,1.3,1.3,1.3h8c0.7,0,1.3-0.6,1.3-1.3v-2.2c0.8-0.3,1.7-0.6,2.5-1l1.6,1.6c0.5,0.5,1.4,0.5,1.9,0l5.6-5.6
			c0.5-0.5,0.5-1.4,0-1.9l-1.5-1.6c0.4-0.8,0.8-1.6,1-2.5h2.2c0.7,0,1.3-0.6,1.3-1.3v-8C130,108.4,129.4,107.9,128.7,107.9z
			 M127.4,115.8h-0.9c-1.2,0-2.2,0.8-2.5,1.9c-0.2,0.7-0.5,1.4-0.9,2.1c-0.5,1.1-0.3,2.3,0.5,3.1l0.6,0.6l-3.8,3.8l-0.6-0.6
			c-0.8-0.8-2.1-1-3.1-0.5c-0.7,0.3-1.4,0.6-2.1,0.9c-1.1,0.4-1.9,1.4-1.9,2.5v0.9h-5.3v-0.9c0-1.2-0.8-2.2-1.9-2.5
			c-0.7-0.2-1.4-0.5-2.1-0.9c-1.1-0.5-2.3-0.3-3.1,0.5l-0.6,0.6l-3.8-3.8l0.6-0.6c0.8-0.8,1-2.1,0.5-3.1c-0.3-0.7-0.6-1.4-0.9-2.1
			c-0.4-1.1-1.4-1.9-2.5-1.9h-0.9v-5.3h0.9c1.1,0,2.2-0.8,2.5-1.9c0.2-0.7,0.5-1.4,0.9-2.1c0.5-1,0.3-2.3-0.5-3.1l-0.6-0.6l3.8-3.8
			l0.6,0.6c0.8,0.8,2.1,1,3.1,0.5c0.7-0.3,1.4-0.6,2.1-0.9c1.1-0.4,1.9-1.4,1.9-2.5v-0.9h5.3v0.9c0,1.2,0.8,2.2,1.9,2.5
			c0.7,0.2,1.4,0.5,2.1,0.9c1.1,0.5,2.3,0.3,3.1-0.5l0.6-0.6l3.8,3.8l-0.6,0.6c-0.8,0.8-1,2.1-0.5,3.1c0.3,0.7,0.6,1.4,0.9,2.1
			c0.4,1.1,1.4,1.9,2.5,1.9h0.9V115.8z"/>
		<path class="st3" d="M66.3,86.6v14.6H69V87.9h4c0.5,0,1-0.3,1.2-0.8s0.1-1-0.2-1.4l-10.6-12c-0.5-0.6-1.5-0.6-2,0l-10.6,12
			c-0.3,0.4-0.4,0.9-0.2,1.4s0.7,0.8,1.2,0.8h4v19.9h2.7V86.6c0-0.7-0.6-1.3-1.3-1.3h-2.4l7.7-8.6l7.7,8.6h-2.4
			C66.9,85.3,66.3,85.9,66.3,86.6z"/>
		<path class="st3" d="M94.2,76v18.6h2.7V77.3h4c0.5,0,1-0.3,1.2-0.8s0.1-1-0.2-1.4l-10.6-12c-0.5-0.6-1.5-0.6-2,0l-10.6,12
			c-0.3,0.4-0.4,1-0.2,1.4c0.2,0.5,0.7,0.8,1.2,0.8h4v26.6h2.7V76c0-0.7-0.6-1.3-1.3-1.3h-2.4l7.7-8.6l7.7,8.6h-2.3
			C94.8,74.6,94.2,75.2,94.2,76z"/>
		<path class="st3" d="M122.1,66.7V88h2.7V68h4c0.5,0,1-0.3,1.2-0.8s0.1-1-0.2-1.4l-10.6-12c-0.5-0.6-1.5-0.6-2,0l-10.6,12
			c-0.3,0.4-0.4,0.9-0.2,1.4c0.2,0.5,0.7,0.8,1.2,0.8h4v22.6h2.7V66.7c0-0.7-0.6-1.3-1.3-1.3h-2.4l7.7-8.6l7.7,8.6h-2.4
			C122.7,65.3,122.1,65.9,122.1,66.7z"/>
	</g>
</g>
<g class="st0">
	<path class="st4" d="M118.8,95.3h-15.6v18.3H98l13,14.1l13-14.1h-5.2C118.8,113.6,118.8,95.3,118.8,95.3z M111,108.3
		c2.1,0,3.9,1.7,3.9,3.9c0,1.7-1,3.1-2.6,3.7v1.4h-2.6v-1.4c-1.5-0.6-2.6-2-2.6-3.7c0-0.7,0.6-1.3,1.3-1.3s1.3,0.6,1.3,1.3
		c0,0.7,0.6,1.3,1.3,1.3s1.3-0.6,1.3-1.3c0-0.7-0.6-1.3-1.3-1.3c-2.1,0-3.9-1.7-3.9-3.9c0-1.7,1-3.1,2.6-3.7v-1.5h2.6v1.5
		c1.6,0.5,2.6,2,2.6,3.7h-2.6c0-0.7-0.6-1.3-1.3-1.3s-1.3,0.6-1.3,1.3S110.3,108.3,111,108.3L111,108.3z"/>
	<path class="st4" d="M143.3,87.9c-2.8-4.2-6.4-7.8-10.6-10.6l-1.8,1.8c-1.2,1.2-3,1.4-4.4,0.6c-1.7-0.9-3.5-1.6-5.3-2.2
		c-1.6-0.5-2.7-1.9-2.7-3.5v-2.5c-5-1-10-1-15,0V74c0,1.6-1.1,3.1-2.7,3.5c-1.8,0.6-3.6,1.3-5.3,2.2c-1.4,0.8-3.2,0.6-4.4-0.6
		l-1.8-1.8c-4.2,2.8-7.8,6.4-10.6,10.6l1.8,1.8c1.2,1.2,1.4,3,0.6,4.4c-0.9,1.7-1.6,3.5-2.2,5.3c-0.5,1.6-1.9,2.7-3.5,2.7h-2.5
		c-1,4.9-1,10,0,15h2.5c1.6,0,3.1,1.1,3.5,2.7c0.6,1.8,1.3,3.6,2.2,5.3c0.8,1.4,0.6,3.2-0.6,4.4l-1.8,1.8c2.8,4.2,6.4,7.8,10.6,10.6
		l1.8-1.8c1.2-1.2,3-1.4,4.4-0.6c1.7,0.9,3.5,1.6,5.3,2.2c1.6,0.5,2.7,1.9,2.7,3.5v2.5c5,1,10,1,15,0v-2.5c0-1.6,1.1-3.1,2.7-3.5
		c1.8-0.6,3.6-1.3,5.3-2.2c1.4-0.8,3.2-0.6,4.4,0.6l1.8,1.8c4.2-2.8,7.8-6.4,10.6-10.6l-1.8-1.8c-1.1-1.2-1.4-3-0.6-4.4
		c0.9-1.7,1.6-3.5,2.2-5.3c0.5-1.6,1.9-2.7,3.5-2.7h2.5c1-5,1-10,0-15h-2.5c-1.6,0-3.1-1.1-3.5-2.7c-0.6-1.8-1.3-3.6-2.2-5.3
		c-0.8-1.4-0.6-3.2,0.6-4.4L143.3,87.9z M111,135.5c-14.3,0-25.9-11.6-25.9-25.9s11.6-26,25.9-26s25.9,11.6,25.9,25.9
		S125.3,135.5,111,135.5z"/>
	<path class="st5" d="M90.3,91.4c0.7,0,1.3,0.6,1.3,1.3h2.6c0-1.6-1-3.1-2.6-3.7v-1.5H89V89c-2,0.7-3.1,2.9-2.4,4.9
		c0.6,1.6,2,2.6,3.7,2.6c0.7,0,1.3,0.6,1.3,1.3c0,0.7-0.6,1.3-1.3,1.3S89,98.6,89,97.9h-2.6c0,1.6,1,3.1,2.6,3.7v1.4h2.6v-1.4
		c2-0.7,3.1-2.9,2.4-5C93.5,95,92,94,90.3,94c-0.7,0-1.3-0.6-1.3-1.3C89,92,89.6,91.4,90.3,91.4L90.3,91.4z"/>
	<path class="st5" d="M103.2,98h-3.9V81c0-0.7-0.6-1.3-1.3-1.3H82.5c-0.7,0-1.3,0.6-1.3,1.3v17h-3.9c-0.7,0-1.3,0.6-1.3,1.3
		c0,0.3,0.1,0.6,0.3,0.9l13,14.1c0.5,0.5,1.3,0.6,1.8,0.1l0.1-0.1l13-14.1c0.5-0.5,0.5-1.3-0.1-1.8C103.9,98.2,103.6,98,103.2,98z
		 M90.3,111.5l-10-10.9h2.2c0.7,0,1.3-0.6,1.3-1.3v-17h13v17c0,0.7,0.6,1.3,1.3,1.3h2.2L90.3,111.5z"/>
	<path class="st5" d="M90.3,68.1c-15,0-27.2,12.2-27.2,27.2s12.2,27.2,27.2,27.2s27.2-12.2,27.2-27.2S105.3,68.1,90.3,68.1z
		 M90.3,119.9c-13.6,0-24.6-11-24.6-24.6s11-24.6,24.6-24.6s24.6,11,24.6,24.6S103.9,119.9,90.3,119.9z"/>
	<path class="st5" d="M128.4,86.5h-2.5c-1.1,0-2-0.8-2.3-1.8l0,0c-0.6-1.9-1.4-3.7-2.3-5.5c-0.5-0.9-0.4-2.1,0.3-2.9l1.8-1.8
		c0.4-0.4,0.5-1.1,0.2-1.6c-2.9-4.3-6.6-8-11-11c-0.5-0.4-1.2-0.3-1.6,0.2l-1.8,1.8c-0.8,0.7-2,0.9-2.9,0.4
		c-1.8-0.9-3.6-1.7-5.5-2.3c-1-0.3-1.8-1.2-1.8-2.3v-2.5c0-0.6-0.4-1.1-1.1-1.3c-5.1-1-10.4-1-15.5,0c-0.6,0.1-1.1,0.7-1.1,1.3v2.5
		c0,1.1-0.8,2-1.8,2.3c-1.9,0.6-3.7,1.4-5.5,2.3c-0.9,0.5-2.1,0.4-2.9-0.3l-1.8-1.8c-0.4-0.4-1.1-0.5-1.6-0.2
		c-4.3,2.9-8,6.6-10.9,11c-0.4,0.5-0.3,1.2,0.2,1.6l1.8,1.8c0.7,0.8,0.9,2,0.3,2.9c-0.9,1.8-1.7,3.6-2.3,5.5c-0.3,1-1.2,1.8-2.3,1.8
		H52c-0.6,0-1.1,0.4-1.3,1.1c-1,5.1-1,10.4,0,15.5c0.1,0.6,0.6,1.1,1.3,1.1h2.5c1.1,0,2,0.8,2.3,1.8c0.6,1.9,1.4,3.7,2.3,5.5
		c0.5,0.9,0.4,2.1-0.3,2.9l-1.8,1.8c-0.4,0.4-0.5,1.1-0.2,1.6c2.9,4.3,6.6,8,10.9,10.9c0.5,0.4,1.2,0.3,1.6-0.2l1.8-1.8
		c0.8-0.7,2-0.9,2.9-0.4c1.8,0.9,3.6,1.7,5.5,2.3c1,0.3,1.8,1.2,1.8,2.3v2.5c0,0.6,0.4,1.1,1,1.3c5.1,1,10.4,1,15.5,0
		c0.6-0.1,1-0.6,1-1.3V131c0-1.1,0.8-2,1.8-2.3c1.9-0.6,3.7-1.4,5.5-2.3c0.9-0.5,2.1-0.4,2.9,0.4l1.8,1.8c0.4,0.4,1.1,0.5,1.6,0.2
		c4.3-2.9,8-6.6,10.9-10.9c0.3-0.5,0.3-1.2-0.2-1.6l-1.8-1.8c-0.7-0.8-0.9-2-0.3-2.9c0.9-1.8,1.7-3.6,2.3-5.5c0.3-1,1.2-1.8,2.3-1.8
		h2.5c0.6,0,1.2-0.4,1.3-1c1-5.1,1-10.4,0-15.5C129.6,86.9,129.1,86.5,128.4,86.5z M127.4,101.5H126c-2.2,0-4.1,1.5-4.8,3.6
		c-0.6,1.8-1.3,3.4-2.1,5.1c-1.1,2-0.7,4.3,0.8,5.9l1,1c-2.4,3.4-5.4,6.3-8.8,8.8l-1-1c-1.6-1.5-4-1.9-5.9-0.8
		c-1.6,0.8-3.3,1.6-5.1,2.1c-2.1,0.6-3.6,2.6-3.6,4.8v1.4c-4.1,0.7-8.3,0.7-12.4,0V131c0-2.2-1.5-4.1-3.6-4.8
		c-1.8-0.6-3.4-1.3-5.1-2.1c-1.9-1.1-4.3-0.7-5.9,0.8l-1,1c-3.4-2.4-6.3-5.4-8.8-8.8l1-1c1.5-1.6,1.9-4,0.8-5.9
		c-0.8-1.6-1.5-3.3-2.1-5.1c-0.6-2.1-2.6-3.6-4.8-3.6h-1.5c-0.7-4.1-0.7-8.3,0-12.4h1.4c2.2,0,4.1-1.5,4.8-3.6
		c0.6-1.8,1.3-3.4,2.1-5.1c1.1-1.9,0.7-4.3-0.8-5.9l-1-1c2.4-3.4,5.4-6.3,8.8-8.8l1,1c1.6,1.5,4,1.9,5.9,0.8
		c1.6-0.8,3.3-1.6,5.1-2.1c2.1-0.6,3.6-2.6,3.6-4.8v-1.4c4.1-0.7,8.3-0.7,12.4,0v1.4c0,2.2,1.5,4.1,3.6,4.8c1.8,0.6,3.5,1.3,5.1,2.1
		c2,1.1,4.3,0.7,5.9-0.8l1-1c3.4,2.4,6.3,5.4,8.8,8.8l-1,1c-1.6,1.6-1.9,4-0.8,5.9c0.8,1.6,1.6,3.3,2.1,5.1c0.6,2.1,2.6,3.6,4.8,3.6
		h1.4C128.1,93.2,128.1,97.4,127.4,101.5z"/>
</g>
<g class="st0">
	<g class="st1">
		<path class="st2" d="M116.3,83.7c0.6,0,1.1-0.5,1.1-1.1l0,0v-6.1c0-0.6-0.5-1.1-1.1-1.1s-1.1,0.5-1.1,1.1v6.1
			C115.3,83.2,115.7,83.7,116.3,83.7L116.3,83.7z"/>
		<path class="st2" d="M144.6,88.4l-5.5,4.8c-0.4,0.4-0.5,1-0.1,1.5c0.4,0.4,1,0.5,1.5,0.1L146,90c0.4-0.4,0.5-1.1,0.1-1.5
			C145.7,88.1,145.1,88,144.6,88.4L144.6,88.4z"/>
		<path class="st2" d="M89.2,87.4c-0.4-0.4-1.1-0.4-1.5,0s-0.4,1.1,0,1.5l5.2,5c0.4,0.4,1.1,0.4,1.5,0s0.4-1.1,0-1.5l0,0L89.2,87.4z
			"/>
		<path class="st2" d="M112.5,101.6c0,0.1-0.1,0.2-0.1,0.2c1.5,0.5,3,1,4.4,1.7c1.4-0.7,2.9-1.3,4.4-1.7c-1.1-2.4-2.5-3.9-3.8-4.2
			c0.3,2-1.1,3.9-3.1,4.2C113.7,101.9,113,101.8,112.5,101.6L112.5,101.6z"/>
		<circle class="st2" cx="113.7" cy="98.2" r="1.6"/>
		<path class="st2" d="M121.8,106.5c0.4,0.3,0.8,0.5,1.1,0.8c-0.2-1.2-0.5-2.3-0.9-3.5c-1,0.3-1.9,0.6-2.9,1
			C120,105.3,120.9,105.9,121.8,106.5z"/>
		<path class="st2" d="M111.8,120.9c-0.4-0.3-0.8-0.5-1.1-0.8c0.2,1.2,0.5,2.3,0.9,3.5c1-0.3,1.9-0.6,2.9-1
			C113.6,122.1,112.7,121.5,111.8,120.9z"/>
		<path class="st2" d="M114.4,104.8c-0.9-0.4-1.9-0.7-2.9-1c-0.4,1.1-0.7,2.3-0.9,3.5c0.4-0.3,0.8-0.5,1.1-0.8
			C112.7,105.9,113.6,105.3,114.4,104.8z"/>
		<path class="st2" d="M112.3,125.6c1.3,2.7,2.9,4.3,4.4,4.3c1.6,0,3.2-1.6,4.4-4.3c-1.5-0.5-3-1-4.4-1.7
			C115.4,124.5,113.9,125.1,112.3,125.6z"/>
		<path class="st2" d="M105.4,112c0.9-1,1.9-1.9,2.9-2.8c0.2-2,0.6-4,1.2-5.9c-3-0.5-5.2-0.1-6.1,1.2c-0.9,1.3-0.5,3.6,1.1,6.2
			C104.8,111.2,105.1,111.6,105.4,112z"/>
		<circle class="st2" cx="102.9" cy="117.6" r="1.6"/>
		<rect x="107.9" y="143.2" class="st2" width="18.1" height="5.6"/>
		<path class="st2" d="M106.8,113.7c0.4,0.5,0.8,0.9,1.3,1.4c0-0.5,0-0.9,0-1.4s0-0.9,0-1.4C107.6,112.8,107.2,113.2,106.8,113.7z"
			/>
		<path class="st2" d="M106.4,116.5c0.6,1.9-0.4,4-2.4,4.6c-0.3,0.1-0.7,0.2-1.1,0.2c0,0.6,0.2,1.1,0.5,1.6c0.9,1.3,3.1,1.7,6.1,1.2
			c-0.6-1.9-1-3.9-1.2-5.9C107.6,117.6,107,117.1,106.4,116.5z"/>
		<path class="st2" d="M127.2,117.6c0-0.5,0.1-1,0.3-1.5c-0.7,0.7-1.4,1.4-2.2,2.1c-0.2,2-0.6,4-1.2,5.9c3,0.5,5.2,0.1,6.1-1.2
			c0.3-0.5,0.5-1,0.5-1.6C128.7,121.1,127.2,119.5,127.2,117.6z"/>
		<path class="st2" d="M126.8,113.7c-0.4-0.5-0.8-0.9-1.3-1.4c0,0.5,0,0.9,0,1.4s0,0.9,0,1.4C126,114.6,126.4,114.2,126.8,113.7z"/>
		<path class="st2" d="M124.1,103.3c0.6,1.9,1,3.9,1.2,5.9c1,0.9,2,1.8,2.9,2.8c0.3-0.4,0.6-0.8,0.8-1.3c1.6-2.6,2-4.9,1.1-6.2
			C129.2,103.3,127,102.8,124.1,103.3z"/>
		<path class="st2" d="M119.2,122.6c0.9,0.4,1.9,0.7,2.9,1c0.4-1.1,0.7-2.3,0.9-3.5c-0.4,0.3-0.8,0.5-1.1,0.8
			C120.9,121.5,120,122.1,119.2,122.6z"/>
		<circle class="st2" cx="130.9" cy="117.6" r="1.6"/>
		<circle class="st2" cx="116.8" cy="113.7" r="1.6"/>
		<path class="st2" d="M120.6,108.2c-1.2-0.8-2.5-1.6-3.8-2.3c-1.3,0.7-2.6,1.4-3.8,2.3c-1,0.7-1.9,1.3-2.7,2.1
			c-0.1,1.1-0.2,2.3-0.2,3.4c0,1.2,0.1,2.3,0.2,3.4c0.9,0.7,1.8,1.4,2.7,2.1c1.2,0.8,2.5,1.6,3.8,2.3c1.3-0.7,2.6-1.4,3.8-2.3
			c1-0.7,1.9-1.3,2.7-2.1c0.1-1.1,0.2-2.3,0.2-3.4s-0.1-2.3-0.2-3.4C122.4,109.6,121.5,108.9,120.6,108.2z M116.8,117.4
			c-2,0-3.7-1.7-3.7-3.7s1.7-3.7,3.7-3.7s3.7,1.7,3.7,3.7l0,0C120.5,115.7,118.8,117.4,116.8,117.4L116.8,117.4z"/>
		<path class="st2" d="M116.5,91c-5.7,0.1-11.1,2.3-15.1,6.2c-4.1,3.9-6.4,9-6.5,14.3c-0.1,5.5,2,10.8,5.9,14.6
			c3.7,3.6,5.7,8.6,5.7,13.8h-3.6c-0.6,0-1.1,0.5-1.1,1.1s0.5,1.1,1.1,1.1h28c0.6,0,1.1-0.5,1.1-1.1s-0.5-1.1-1.1-1.1H127
			c-0.1-5.1,2-9.8,5.8-13.7c3.9-4,6-9.1,6-14.4c0-5.4-2.2-10.6-6.2-14.5C128.4,93.2,122.7,90.9,116.5,91z M129.8,114.1
			c1.9-0.6,4,0.5,4.6,2.5c0.5,1.7-0.2,3.4-1.7,4.3c0.1,1.3-0.2,2.3-0.8,3.3c-1.1,1.6-3,2.4-5.6,2.4c-0.9,0-1.8-0.1-2.8-0.3
			c-0.1,0-0.2,0-0.3-0.1c0,0.1-0.1,0.2-0.1,0.2c-1.6,3.7-3.9,5.7-6.4,5.7s-4.8-2-6.4-5.7c0-0.1-0.1-0.2-0.1-0.2
			c-0.1,0-0.2,0-0.3,0.1c-0.9,0.2-1.8,0.3-2.8,0.3c-2.6,0-4.5-0.8-5.6-2.4c-0.6-0.9-0.9-2.1-0.8-3.4c-1.7-1.1-2.2-3.4-1-5.1
			c0.9-1.3,2.4-1.9,3.9-1.5c0.1-0.1,0.2-0.2,0.2-0.3c-0.4-0.6-0.9-1.2-1.3-1.8c-2.1-3.4-2.5-6.4-1.1-8.5s4.4-2.8,8.3-2.1
			c0.1,0,0.2,0,0.3,0c0.2-0.3,0.3-0.7,0.5-1c-1.2-1.7-0.8-4,0.8-5.1c1.4-1,3.4-0.9,4.6,0.3c0.2,0,0.4,0,0.6,0c2.5,0,4.8,2,6.4,5.7
			c0,0.1,0.1,0.2,0.1,0.2c0.1,0,0.2,0,0.3-0.1c3.9-0.7,6.9,0,8.3,2.1c1.4,2.1,1,5.1-1.1,8.5c-0.4,0.6-0.8,1.3-1.3,1.8
			C129.6,113.8,129.7,113.9,129.8,114.1L129.8,114.1z"/>
	</g>
	<g class="st1">
		<path class="st3" d="M66.9,85.2l-2.3-1.5c-1.5,2.3-2.7,4.8-3.4,7.4l-6.3,22.2c-0.2,0.7,0.2,1.5,1,1.7c0.1,0,0.3,0.1,0.4,0.1h6.9
			l-0.1,9.7c0,2.6,1,5,2.8,6.9c1.8,1.8,4.3,2.9,6.9,2.9h39c0.8,0,1.4-0.6,1.4-1.4v-16.7h-2.8v15.3H99.8l3.6-12.1l-2.7-0.8l-3.9,12.9
			h-24c-1.9,0-3.6-0.7-5-2.1c-1.3-1.3-2-3-2-4.9V122h0.4c3.3,0,6.4-1.3,8.7-3.6l-2-2c-1.8,1.8-4.2,2.8-6.7,2.8h-0.4v-5.6
			c0-0.8-0.6-1.4-1.4-1.4l0,0H58l5.8-20.4C64.5,89.4,65.6,87.2,66.9,85.2z"/>
		<path class="st3" d="M130.4,71.7c1.4-6.5-2.9-12.9-9.4-14.3c-0.8-0.2-1.6-0.2-2.4-0.3c-1.2,0-2.4,0.2-3.6,0.5
			c-3.8-6.4-12-8.6-18.4-4.8c-2,1.2-3.7,2.8-4.8,4.8c-1.2-0.4-2.3-0.5-3.6-0.5c-6.7,0-12,5.5-12,12.2c0,0.8,0.1,1.6,0.3,2.4
			c-6.3,2.4-9.4,9.4-7,15.6c1.2,3.3,3.8,5.8,7,7c-0.2,0.8-0.3,1.6-0.3,2.4c0,0.1,0,0.1,0,0.2c-0.2,0-0.4,0-0.6,0
			c-3.1,0-5.6,2.5-5.6,5.5c0,3.1,2.5,5.6,5.5,5.6c1.8,0,3.5-0.9,4.6-2.4c3.1,2.9,7.6,3.9,11.7,2.7c3.8,6.4,12,8.6,18.4,4.8
			c2-1.2,3.7-2.8,4.8-4.8c1.2,0.4,2.3,0.5,3.6,0.5c6.7,0,12.1-5.5,12-12.2c0-0.8-0.1-1.6-0.3-2.4c6.3-2.4,9.4-9.4,7-15.6
			C136.2,75.4,133.7,72.9,130.4,71.7L130.4,71.7z M75.7,105.2c-1.5,0-2.8-1.2-2.8-2.7s1.2-2.8,2.7-2.8c0.4,0,0.8,0.1,1.2,0.2
			c0.3,1.2,0.9,2.4,1.6,3.5C77.9,104.5,76.8,105.2,75.7,105.2z M128.4,92c-0.8,0.2-1.2,0.9-1,1.7v0.1c0.3,1,0.5,1.9,0.5,2.9
			c0,5.1-4.1,9.3-9.2,9.3c-1.3,0-2.5-0.3-3.7-0.8c-0.7-0.3-1.5,0-1.8,0.7c-2.5,5.4-8.8,7.7-14.2,5.2c-2.3-1.1-4.1-2.9-5.2-5.2
			c-0.2-0.5-0.7-0.8-1.3-0.8c-0.2,0-0.4,0-0.6,0.1c-1.1,0.5-2.4,0.8-3.7,0.8c-5.1,0-9.3-4.2-9.2-9.3c0-1,0.2-2,0.5-2.9
			c0.2-0.7-0.2-1.5-0.9-1.8h-0.1c-5-1.3-8-6.3-6.8-11.3c0.8-3.3,3.4-5.9,6.8-6.8c0.8-0.2,1.2-0.9,1-1.7v-0.1
			c-0.3-0.9-0.5-1.9-0.5-2.9c0-5.1,4.1-9.3,9.2-9.3c1.3,0,2.5,0.3,3.7,0.8c0.7,0.3,1.5,0,1.8-0.7c2.5-5.4,8.8-7.7,14.2-5.2
			c2.3,1.1,4.2,2.9,5.2,5.2c0.3,0.7,1.1,1,1.8,0.7c1.2-0.5,2.4-0.8,3.7-0.8c5.1,0,9.3,4.2,9.2,9.3c0,1-0.2,2-0.5,2.9
			c-0.2,0.7,0.2,1.5,0.9,1.8h0.1c5,1.3,8,6.3,6.8,11.3C134.3,88.6,131.7,91.2,128.4,92L128.4,92z"/>
		<path class="st3" d="M113.2,70.2c-2.7-2.6-6.4-4.1-10.1-3.9c-7.7,0.2-13.7,6.6-13.5,14.3c0.1,3.7,1.7,7.2,4.4,9.8
			c1.6,1.5,2.5,3.7,2.5,5.9v3.4c0,2.3,1.9,4.2,4.2,4.2h5.6c2.3,0,4.2-1.9,4.2-4.2v-3.4c0.1-2.3,1-4.6,2.8-6.2
			c5.5-5.3,5.6-14.1,0.3-19.6C113.3,70.4,113.3,70.3,113.2,70.2z M107.7,99.7c0,0.8-0.6,1.4-1.4,1.4h-5.6c-0.8,0-1.4-0.6-1.4-1.4
			v-1.4h8.3L107.7,99.7L107.7,99.7z M111.3,88.2c-2.1,1.9-3.3,4.5-3.6,7.3h-2.8v-7.6l3.6-2.4l-1.5-2.3l-3.4,2.3l-3.4-2.3l-1.5,2.3
			l3.6,2.4v7.6h-2.8c-0.2-2.7-1.4-5.3-3.4-7.2c-2.3-2.1-3.6-5-3.6-8.1c0-6,4.8-10.9,10.8-11.2c6.1-0.2,11.3,4.6,11.5,10.8
			C114.7,82.9,113.5,86,111.3,88.2L111.3,88.2z"/>
		<path class="st3" d="M103.2,71.9c-1.1,0-2.2,0.3-3.1,0.8l1.2,2.5c0.6-0.3,1.3-0.5,2-0.5h0.2v-2.8H103.2z"/>
		<path class="st3" d="M95.1,80.2c0,0.7,0.1,1.4,0.3,2l2.7-0.7c-0.1-0.4-0.2-0.9-0.2-1.3c0-1.6,0.7-3.2,2-4.2l-1.8-2.1
			C96.2,75.5,95.2,77.8,95.1,80.2z"/>
		<rect x="102.1" y="58" class="st3" width="2.8" height="5.6"/>
		<rect x="79.8" y="80.2" class="st3" width="5.6" height="2.8"/>
		<rect x="121.6" y="80.2" class="st3" width="5.6" height="2.8"/>
		
			<rect x="87.3" y="64.1" transform="matrix(0.7071 -0.7071 0.7071 0.7071 -21.3135 82.3494)" class="st3" width="2.8" height="5.6"/>
		
			<rect x="116.9" y="93.6" transform="matrix(0.7071 -0.7071 0.7071 0.7071 -33.5314 111.8517)" class="st3" width="2.8" height="5.6"/>
		<rect x="86" y="94.9" transform="matrix(0.7071 -0.7071 0.7071 0.7071 -42.1029 91.0209)" class="st3" width="5.6" height="2.8"/>
		
			<rect x="115.4" y="65.4" transform="matrix(0.7071 -0.7071 0.7071 0.7071 -12.642 103.1388)" class="st3" width="5.6" height="2.8"/>
	</g>
</g>
<g>
	<g>
		<path class="st6" d="M188.1,175.9l-13.1-36c-0.6-1.9-1.7-3.2-2.8-4.2c0.9-1.7,1.5-3.4,1.5-5.1V19.9c-0.4-5.9-4.9-10.4-10.4-10.4
			H35.5c-5.7,0-10.2,4.7-10.2,10.4v110.8c0,1.9,0.6,3.6,1.5,5.1c-1.1,0.9-2.3,2.3-2.7,4.2l-13.3,35.9c-1.1,3.2-0.8,6.8,1.3,9.7
			s5.1,4.6,8.5,4.6h157.7c3.4,0,6.6-1.7,8.5-4.6S189.4,179.2,188.1,175.9z M142.7,140.8h20.5c0,0,0.2,0,0.4,0
			c2.1-0.2,3.2,0.2,3.6,1.5l13.3,36.1c0.4,1.1,0.2,1.9-0.4,2.7c-0.4,0.6-1.1,0.9-1.9,0.9h-59.6l-5.5-15.2c-0.4-1.7-2.1-2.8-3.8-2.8
			h-21c-1.5,0-3,1.1-4,2.8L79.7,182h-59c-0.8,0-1.7-0.4-2.1-1.1c-0.6-0.8-0.6-1.5-0.4-2.3l13.1-36.1c0.8-1.7,2.1-1.7,3.6-1.7
			c0.2,0,0.4,0,0.6,0h26.1l2.7-7.4H35.5c-1.3,0-2.5-0.9-2.5-2.5V21.4h0.2v-1.3c0-1.3,0.9-2.5,2.1-2.5H163c1.1,0,2.1,1.1,2.1,2.5V131
			c0,1.3-0.9,2.5-2.5,2.5h-22.2L142.7,140.8z"/>
	</g>
	<path class="st6" d="M141.1,55.4l3.4-6.8L129.9,34l-6.8,3.4c-3.9-2.3-8-4-12.3-5.1l-2.4-7.2H87.8l-2.4,7.2
		c-4.3,1.1-8.4,2.9-12.3,5.1L66.2,34L51.7,48.6l3.4,6.8c-2.3,3.9-4,8-5.1,12.3l-7.2,2.4v20.6l7.2,2.4c1.1,4.3,2.9,8.4,5.1,12.3
		l-3.4,6.8l14.6,14.6l1.4-0.7v0.1c0,3,0.7,6,2,8.6l6.3,12.6v10.3l49.8,0.1v-10.1l4.4-5.9c2.5-3.3,3.9-7.5,3.9-11.6v-7.5l10.4-10.4
		l-3.4-6.8c2.3-3.9,4-8,5.1-12.3l7.2-2.4V70.1l-7.2-2.4C145.1,63.4,143.3,59.3,141.1,55.4z M128.5,130.2c0,3-1,5.9-2.8,8.3l-5.5,7.4
		v6.4l-38.7-0.1v-6.1l-6.9-13.8c-0.9-1.9-1.4-4-1.4-6.2v-11.4c0-3.1-0.7-6.2-2.1-9l-3.2-6.4c-0.1-0.2-0.2-0.5-0.2-0.8
		c0-0.9,0.8-1.7,2-1.7c8.1,0,14.6,6.6,14.6,14.6v4.7v5.5h5.5v-5.5v-4.7V61.1c0-1.5,1.2-2.8,2.8-2.8s2.8,1.2,2.8,2.8v33.2v11.1h5.5
		V94.2c0-1.5,1.2-2.8,2.8-2.8s2.8,1.2,2.8,2.8v11.1h5.5V94.2c0-1.5,1.2-2.8,2.8-2.8c1.5,0,2.8,1.2,2.8,2.8v5.5v5.5h5.5v-5.5
		c0-1.5,1.2-2.8,2.8-2.8c1.5,0,2.8,1.2,2.8,2.8L128.5,130.2L128.5,130.2z M64.9,80.4c0-18.3,14.9-33.2,33.2-33.2
		s33.2,14.9,33.2,33.2c0,4.1-0.7,8-2.2,11.8c-1-0.4-2.2-0.7-3.3-0.7c-1.1,0-2.1,0.2-3.1,0.6c-1-3.5-4.1-6.1-8-6.1
		c-2.1,0-4.1,0.8-5.5,2.2c-1.5-1.3-3.4-2.2-5.5-2.2c-1,0-1.9,0.2-2.8,0.5V61.1c0-4.6-3.7-8.3-8.3-8.3s-8.3,3.7-8.3,8.3v36.7
		c-3.7-3.9-9-6.4-14.9-6.4c-0.9,0-1.7,0.2-2.5,0.4C65.6,88.2,64.9,84.4,64.9,80.4z M147.9,86.7l-6.3,2.1l-0.4,1.5
		c-1.1,4.8-3,9.3-5.6,13.5l-0.8,1.3l3,6l-3.7,3.7v-15c0-1.2-0.3-2.3-0.7-3.4c2.3-5,3.5-10.4,3.5-16c0-21.4-17.4-38.7-38.7-38.7
		S59.4,59.1,59.4,80.4c0,5.4,1.1,10.6,3.3,15.5c-0.3,0.8-0.5,1.7-0.5,2.7c0,1.1,0.3,2.2,0.8,3.2l3.2,6.4c1,2,1.5,4.3,1.5,6.5v5.1
		l-0.3,0.2l-8.9-8.9l3-6l-0.8-1.3c-2.6-4.2-4.5-8.7-5.6-13.5l-0.4-1.5l-6.3-2.1V74.1l6.3-2.1l0.4-1.5c1.1-4.8,3-9.3,5.6-13.5
		l0.8-1.3l-3-6l8.9-8.9l6,3l1.3-0.8c4.2-2.6,8.7-4.5,13.5-5.6l1.5-0.4l2.1-6.3h12.6l2.1,6.3l1.5,0.4c4.8,1.1,9.3,3,13.5,5.6l1.3,0.8
		l6-3l8.9,8.9l-3,6l0.8,1.3c2.6,4.2,4.5,8.7,5.6,13.5l0.4,1.5l6.3,2.1L147.9,86.7L147.9,86.7z"/>
</g>
<polygon class="st6" points="88.3,182 91.3,171.9 106.7,171.9 110.3,182 "/>
</svg>
