<?xml version="1.0" encoding="utf-8"?>
<!-- Generator: Adobe Illustrator 21.0.0, SVG Export Plug-In . SVG Version: 6.00 Build 0)  -->
<svg version="1.1" id="Layer_1" xmlns="http://www.w3.org/2000/svg" xmlns:xlink="http://www.w3.org/1999/xlink" x="0px" y="0px"
	 viewBox="0 0 250 250" style="enable-background:new 0 0 250 250;" xml:space="preserve">
<style type="text/css">
	.st0{fill:#FFFFFF;}
</style>
<g>
	<path class="st0" d="M24.9,206.7c8.1,0,70.6,0,74.4,0s6.6,0.8,6.6-6.6c0-2.1,0.3-3.1,0.1-6.6c-0.5-8.8-6.6-21.6-24.2-21.6
		c-24.6,0-31.7,0-40.6,0c-9,0-20.5,4.8-22.4,18c-0.4,2.6-0.4,6-0.4,9.5C18.4,203.2,18.2,206.7,24.9,206.7z M39.4,181.6
		c9.6,0,37.2,0,44,0c6.9,0,12.8,2.2,13.4,13.7H27.4C27.2,191.4,27.3,181.6,39.4,181.6z"/>
	<path class="st0" d="M19.3,115.9c0,0,35.5,35.4,38.5,38.4c3,2.9,6.8,6.2,15.1,2.3c9.8-5.1,7.3-15.5,7.3-15.5l19.7-19.4l17.5,17.2
		c-0.4,1.8-2.1,6.2,2.7,10.7c0,0,79.6,79.7,82.4,82.6c2.9,2.9,8.7,7.4,15,2.1c6.3-5.4,12.9-12.9,14.9-15.3c2.8-3.2,6.3-7.6-2.7-15.8
		l-54.6-54.4c0,0-23.4-24-26.6-27.1c-3.2-3.1-6.3-4.5-11-2.9c-11.1-10.7-17.9-17.1-17.9-17.1L140.4,81c0,0,5.3,0.4,10-3.9
		c4.2-3.8,7.6-12.8,0.1-20.2c-3.1-3.2-34-34.5-37.3-37.4s-8.8-7.2-18.1-1.2C88.5,22.8,89.6,31,90.5,34L32.3,92.6
		c-2.7-0.5-9.9-0.7-15,6.4C12.6,105.7,15.1,111.6,19.3,115.9z M101,32.6c-2.6-2.5-1.3-4.7,0.5-6.2c2.5-2.2,4.5-1.6,6.4,0.6
		c1.5,1.6,32.7,32.5,37.1,36.9c4,3.9,2.1,5.5,0.2,7.1c-2.3,2.1-4.1,1.9-6.6-0.3C136.2,68.3,101,32.6,101,32.6z M127.3,140.6
		c1.1-1.1,9.8-9.8,11.7-11.3s3.2-1,4.3,0c0,0,80.8,80.4,82.6,82c1.8,1.5,0.7,2.5,0,3.4c-0.7,1-11.1,11.5-12.5,12.7s-2.1,0.6-3.5-0.7
		c-1.4-1.2-81.3-81-82.6-82.2C125.8,143,125.8,142.2,127.3,140.6z M106.3,115.3l7.3-7.3l16.4,16.1l-7.2,7.4L106.3,115.3z
		 M26.4,103.6c2.5-2.2,4.5-1.6,6.4,0.6c1.5,1.6,32.7,32.5,37.1,36.9c4,3.9,2.1,5.5,0.2,7.1c-2.3,2.1-4.1,1.9-6.6-0.3
		S25.9,110,25.9,110C23.3,107.4,24.7,105.2,26.4,103.6z"/>
</g>
<polygon class="st0" points="40,98.7 97,41.7 133.2,77.2 75.8,134.3 "/>
</svg>
