<?xml version="1.0" encoding="utf-8"?>
<!-- Generator: Adobe Illustrator 21.0.0, SVG Export Plug-In . SVG Version: 6.00 Build 0)  -->
<svg version="1.1" id="Layer_1" xmlns="http://www.w3.org/2000/svg" xmlns:xlink="http://www.w3.org/1999/xlink" x="0px" y="0px"
	 viewBox="0 0 200 200" style="enable-background:new 0 0 200 200;" xml:space="preserve">
<style type="text/css">
	.st0{fill:#D8000C;stroke:#0003B6;stroke-miterlimit:10;}
	.st1{fill:#FFFFFF;}
</style>
<g>
	<path class="st0" d="M-565,388.5c0,0,2.2,1.1,2.5,1.4C-563.3,388.7-565,388.5-565,388.5z"/>
	<path class="st0" d="M-562.5,389.9C-562.5,389.9-562.5,390-562.5,389.9C-562.5,390-562.5,390-562.5,389.9z"/>
</g>
<g>
	<g>
		<path class="st1" d="M67.8,86.9L67.8,86.9L67.8,86.9z"/>
		<path class="st1" d="M164.8,94.9c-6.4-1.5-57.5-22.4-57.5-22.4s-2.7,1.7-13,9.4c23.8,6.6,30.2,40.2,8.6,53.1
			c-26.5,14-43.4-6.3-45.3-21.7s7.7-23.1,9.4-24.8c0.8-0.9,0.9-1.4,0.7-1.6c0,0-0.2,0-0.7-0.3c-19.6-9.3-12.5-19.9-9.3-24.3
			c3.2-4.3,9.9-10,9.9-10L35.9,39.8L3.5,123.4l137.7,54.5c0,0,31-79.5,32.1-82.4C174.4,92.7,171.3,96.4,164.8,94.9z M45.9,93.6
			c-0.8,0.3-25.3,8.4-26.6,8.9c-1.2,0.5-1.8,0.4-1.2-1.3C18.7,99.6,32,65.6,32,65.6c0.7-1.1,0.7-1.1,1.4,0S46,89.2,47.1,91.1
			C48.2,93.1,46.8,93.3,45.9,93.6z M158,116.4c0,0-12.9,34.1-13.6,35.7c-0.8,1.6-1.2,1.3-1.8,0.1s-13.3-23.7-13.7-24.4
			c-0.4-0.8-1.3-1.9,0.8-2.6s26-9.4,27.3-9.8C158.3,115.1,158.3,115.1,158,116.4z"/>
		<path class="st1" d="M67.3,86.6c0,0,0.4,0.2,0.5,0.3C67.6,86.6,67.3,86.6,67.3,86.6z"/>
	</g>
	<path class="st1" d="M148.2,21.5c0.9-0.9,1.6-0.5,2.6,0c0.9,0.5,25.9,15.7,45.5,40.6c0.8,0.9,1.8,3.8-1.7,9.1
		c-3.5,5.3-10.7,14.4-24.2,19.3c-1.8,0.7-2,1.4-6.4-0.3c-4.4-1.7-51.6-20.4-53.9-21.3s-3.3-1.6-5.9,0.5S86.9,85.9,68.1,82.3
		c-7.6-1.8-13.6-9-8.2-15.5s23.5-22.2,27.5-25.1c4-3,4.9-3.9,12.8-3.9s22.1-0.2,26.1-0.3c3.9-0.1,6.3-2,7.9-3.8
		C135.8,31.9,148.2,21.5,148.2,21.5z"/>
	<g>
		<path class="st1" d="M85.3,103.6c-0.4,1.1-0.4,1.9,0.1,2.6c0.4,0.7,1,1.3,1.9,1.9l2.4-6.9C87.4,100.8,86,101.6,85.3,103.6z"/>
		<path class="st1" d="M85.1,119.1c2.4,0.5,4-0.4,4.9-2.8c0.4-1,0.4-1.9,0.1-2.5c-0.3-0.7-1.1-1.5-2.3-2.3L85.1,119.1z"/>
		<path class="st1" d="M87.2,88.6c-11.9,0-21.5,9.6-21.5,21.5s9.6,21.5,21.5,21.5s21.5-9.6,21.5-21.5S99.1,88.6,87.2,88.6z
			 M96,106.8l-2.9-1c0.5-1.8-0.1-3.2-1.9-4.1l-2.5,7.2c2.3,1.4,3.8,2.7,4.3,3.9c0.6,1.2,0.6,2.7,0,4.3c-0.6,1.7-1.7,2.9-3.2,3.8
			c-1.5,0.8-3.3,0.9-5.4,0.4l-0.8,2.2l-1.6-0.6l0.8-2.2c-3.9-1.9-5.4-4.7-4.3-8.6l2.9,1c-0.6,2.4,0.1,4.2,2.2,5.4l2.8-8
			c-3.8-2.2-5.1-4.8-4.1-7.8c0.6-1.7,1.6-2.8,3.1-3.5c1.5-0.6,3.2-0.7,5.1-0.2l0.8-2.2l1.6,0.6L92,99.6
			C95.5,101.1,96.8,103.5,96,106.8z"/>
	</g>
</g>
</svg>
