<?xml version="1.0" encoding="utf-8"?>
<!-- Generator: Adobe Illustrator 21.0.0, SVG Export Plug-In . SVG Version: 6.00 Build 0)  -->
<svg version="1.1" id="Layer_1" xmlns="http://www.w3.org/2000/svg" xmlns:xlink="http://www.w3.org/1999/xlink" x="0px" y="0px"
	 viewBox="0 0 300 300" style="enable-background:new 0 0 300 300;" xml:space="preserve">
<style type="text/css">
	.st0{fill:#FFFFFF;}
	.st1{clip-path:url(#SVGID_2_);}
	.st2{fill:none;}
	.st3{clip-path:url(#SVGID_4_);}
	.st4{clip-path:url(#SVGID_6_);}
	.st5{clip-path:url(#SVGID_8_);}
</style>
<path class="st0" d="M180.9,49.3h-30.5c-3-0.1-5.6,2.3-5.7,5.3c0.1,2.2,1.5,4.2,3.6,5c0.7,0.2,1.4,0.4,2.1,0.4h30.5
	c2.9,0,5.3-2.4,5.3-5.3S183.9,49.3,180.9,49.3L180.9,49.3z"/>
<path class="st0" d="M180.9,37.5h-30.5c-3-0.1-5.6,2.3-5.7,5.3c0.1,3,2.6,5.4,5.7,5.4h30.5c3,0.1,5.6-2.3,5.6-5.4
	C186.5,39.7,183.9,37.4,180.9,37.5z"/>
<g>
	<g>
		<g>
			<defs>
				<rect id="SVGID_1_" x="130.2" y="10" width="70.9" height="26.3"/>
			</defs>
			<clipPath id="SVGID_2_">
				<use xlink:href="#SVGID_1_"  style="overflow:visible;"/>
			</clipPath>
			<g class="st1">
				<path class="st0" d="M181.4,36.1l19.2-24.4l-4-0.8c-2.7-0.6-5.4-0.9-8.1-0.9c-4.7,0-9.4,1-13.6,3c-0.1,0-0.2,0-0.3,0
					c-0.2,0-0.3,0-0.7-0.4l0,0c-2.4-1.6-5.2-2.4-8-2.2c-5.1,0.3-10.2,1.8-14.6,4.4c-0.2,0-0.4-0.1-0.6-0.2
					c-3.6-2.5-7.9-3.9-12.3-3.9c-1.2,0-2.4,0.1-3.6,0.3l-4.4,0.8l21,24.2L181.4,36.1z"/>
			</g>
		</g>
	</g>
</g>
<rect x="91" y="61" class="st2" width="149.2" height="144.2"/>
<g>
	<path class="st0" d="M240.3,11.3c-10.3,0-18.7,8.4-18.7,18.7v12.1h5.6V29.7c0-7.3,5.9-13.2,13-13.2c0,0,3.2-0.2,5.9,1.3
		c1.3,0.6,2.4,1.4,3.3,2.4c2.4,2.4,3.8,5.7,3.8,9.2v12.4h5.6V29.7c0-8.1-5.2-15-12.3-17.6C243.9,11.3,241.5,11.3,240.3,11.3z"/>
	<path class="st0" d="M252.3,55.3c0-0.6,0.5-1.3,1.3-1.3H265v-7c0-1.3-1-2.2-2.2-2.2h-45.3c-1.3,0-2.2,1-2.2,2.2v9.5v5v21.3
		c0,1.3,1,2.2,2.2,2.2h45.3c1.3,0,2.2-1,2.2-2.2v-7h-11.4c-1.4,0-1.3-0.8-1.3-0.8V55.3z M234.6,62.6c0.3,0.3,1.1,0.8,2.1,1.1
		s1.7,0.8,2.4,1.1c0.6,0.3,1.1,0.8,1.6,1.1c0.5,0.5,0.8,1,1,1.4c0.2,0.6,0.3,1.3,0.3,1.9c0,1.4-0.5,2.5-1.3,3.3s-2.1,1.4-3.7,1.6
		v2.4h-2v-2.4c-1.6-0.2-3-0.8-3.8-1.7c-1-1-1.4-2.4-1.4-4h3.5c0,1,0.2,1.7,0.6,2.2c0.5,0.5,1.1,0.8,2.1,0.8c0.8,0,1.3-0.2,1.7-0.6
		c0.5-0.3,0.6-1,0.6-1.6s-0.2-1.3-0.5-1.6c-0.3-0.5-1-0.8-1.9-1.1c-1-0.3-1.6-0.6-2.2-1c-0.6-0.3-1.3-0.6-1.6-1.1
		c-0.5-0.5-0.8-1-1.1-1.6s-0.3-1.3-0.3-2.1c0-1.4,0.5-2.5,1.3-3.3c1-1,2.1-1.4,3.5-1.6v-2.5h1.9V56c1.4,0.2,2.5,0.8,3.3,1.7
		c0.8,1,1.3,2.2,1.3,3.8h-3.5c0-1-0.2-1.7-0.6-2.2c-0.5-0.5-1-0.8-1.6-0.8s-1.1,0.2-1.6,0.6c-0.3,0.3-0.5,1-0.5,1.6
		C234.1,61.6,234.3,62.3,234.6,62.6z"/>
	<g>
		<g>
			<g>
				<defs>
					<rect id="SVGID_3_" x="254.1" y="55.7" width="11" height="5.4"/>
				</defs>
				<clipPath id="SVGID_4_">
					<use xlink:href="#SVGID_3_"  style="overflow:visible;"/>
				</clipPath>
				<g class="st3">
					<path class="st0" d="M254.1,55.9h11v4.9h-11V55.9z"/>
				</g>
			</g>
		</g>
	</g>
	<g>
		<g>
			<g>
				<defs>
					<rect id="SVGID_5_" x="254.1" y="62.7" width="11" height="5"/>
				</defs>
				<clipPath id="SVGID_6_">
					<use xlink:href="#SVGID_5_"  style="overflow:visible;"/>
				</clipPath>
				<g class="st4">
					<path class="st0" d="M254.1,62.8h11v4.9h-11V62.8z"/>
				</g>
			</g>
		</g>
	</g>
	<g>
		<g>
			<g>
				<defs>
					<rect id="SVGID_7_" x="254.1" y="69.5" width="11" height="5.4"/>
				</defs>
				<clipPath id="SVGID_8_">
					<use xlink:href="#SVGID_7_"  style="overflow:visible;"/>
				</clipPath>
				<g class="st5">
					<path class="st0" d="M254.1,69.6h11v4.9h-11V69.6z"/>
				</g>
			</g>
		</g>
	</g>
</g>
<g>
	<polygon class="st0" points="69.8,252.8 76.4,247.1 67.3,239.4 60.3,245.1 	"/>
	<path class="st0" d="M221.2,191.9c-5.1,3-10.3,9.1-11.5,11.5c-1,1.6-1.5,1.7-3.2,2.4s-16.8,6.5-16.8,6.5c-1.2-0.6-2.5-3.1-10.8-3.1
		c-8.8,0-18.8,0.1-21,0s-3.3,0-7.7-2s-7.7-4.6-13.8-4.6s-20.4,0-23.5,0c-3.7,0-6,0.7-6,0.7s-1.8,0.3-6,2.4
		c-10.2,4.9-27.5,20.1-29,21.2l-7.5-6.1l-29.1,24.1l56.6,46.6l28.9-24l-7-5.9c6.1-3.9,8.8-3.8,11.8-3.8c3,0,46.4,0,46.4,0
		c10.6-0.3,16.6-4.1,20.5-6.7c4.4-2.9,36.8-30.1,38.6-31.5s2.7-3.3,3.1-4.1c0.7-1.4,7.6-16.2,10.8-23.2
		C236.4,183.3,223.6,190.4,221.2,191.9z M91.7,282.3l-45.6-37.5l18.2-15.1l45.8,37.7L91.7,282.3z M227.7,211.4
		c-1,2.2-1.1,2.8-4.3,5.3c-3.3,2.4-29.2,24.2-32.5,27c-4.7,4.1-10.4,7.9-21.6,7.9c-11.4-0.1-41,0.1-44.5,0
		c-5.2-0.1-9.2,0.9-16.3,5.5l-31-25.4c0,0,16.5-14.4,22-17.5c5.5-3.2,8.2-4.9,16.1-4.9c8.6,0,16.4,0,19.6,0c4.3,0,7.1,1.4,11.3,3.3
		c6.2,2.8,6.9,3.1,11.5,3.2c0,0,17.8-0.1,21.6,0c5.8,0.1,6.6,3,6.9,6.1c0.2,2.3-0.7,7-6.4,7h-40.9v6.2c0,0,39,0,40.9,0
		c13.8,0.2,15-12,13.2-17.1l21.4-8.3c0,0,1-0.3,1.7-1.7c1.9-4.5,7.4-13.8,19.6-13.7C232.5,201.2,228.7,209.1,227.7,211.4z"/>
</g>
<g>
	<path class="st0" d="M155.3,117.4c0,2.8,0.8,4.9,2.3,6.2c1.5,1.3,3.6,2.2,6.2,2.9V108C158.2,108.9,155.3,112.1,155.3,117.4z"/>
	<path class="st0" d="M168.1,134v20.5c6.2-0.7,9.3-4.3,9.3-10.9c0-2.7-0.6-4.7-1.9-6.1C174.2,136.1,171.7,134.9,168.1,134z"/>
	<path class="st0" d="M181.7,61.4c-0.5,0.1-1.1,0.1-1.6,0.2h-28.8c-0.5,0-1,0-1.4,0C138,71.1,76.6,124,94.5,174.8
		c45.5-2,17.4,12.2,68.5,29.5c2.4,0.8,2.7,0.6,5.6-0.2c24.5-6.7,18.7-22.2,68.2-29.3C254.7,123.6,191.7,69.6,181.7,61.4z
		 M180.6,154.9c-3,3.3-7.2,5.1-12.5,5.4v5.9h-4.3v-5.8c-10.9-1.1-16.8-6.8-17.5-16.9h7.8c0.6,6.4,3.8,10,9.7,11v-21.4
		C153,131,147.5,126,147.5,118c0-4.5,1.5-8.1,4.4-10.9c3-2.8,6.9-4.4,11.9-4.8v-5.9h4.3v5.9c9.5,0.7,14.8,5.3,15.7,13.9h-7.8
		c-0.4-4.7-3-7.4-7.8-8.1v19.3h0c6.7,1.3,11.2,3.2,13.5,5.7c2.4,2.5,3.6,5.9,3.6,10.1C185.2,147.7,183.7,151.6,180.6,154.9z"/>
</g>
</svg>
