<?xml version="1.0" encoding="utf-8"?>
<!-- Generator: Adobe Illustrator 21.0.0, SVG Export Plug-In . SVG Version: 6.00 Build 0)  -->
<svg version="1.1" id="Layer_1" xmlns="http://www.w3.org/2000/svg" xmlns:xlink="http://www.w3.org/1999/xlink" x="0px" y="0px"
	 viewBox="0 0 200 200" style="enable-background:new 0 0 200 200;" xml:space="preserve">
<style type="text/css">
	.st0{fill:#FFFFFF;}
</style>
<path class="st0" d="M125.4,62H34.1l41.8-43.9l30.9,33.1c2,2.1,5.4,2.3,7.5,0.3c2.2-2,2.3-5.4,0.3-7.5L79.8,6.7
	c-1-1.1-2.4-1.7-3.9-1.7C74.4,5.1,73,5.6,72,6.7l-54.2,57c-0.9,1-1.5,2.3-1.5,3.7v123c0,2.9,2.4,5.3,5.3,5.3h103.8
	c2.9,0,5.3-2.4,5.3-5.3v-123C130.8,64.4,128.4,62,125.4,62z M62.7,170.7H44.6v-18.1h18.1C62.7,152.6,62.7,170.7,62.7,170.7z
	 M62.7,138.7H44.6v-18.1h18.1C62.7,120.6,62.7,138.7,62.7,138.7z M62.7,106.7H44.6v-18h18.1C62.7,88.7,62.7,106.7,62.7,106.7z
	 M102.4,170.7H84.3v-18.1h18.1V170.7z M102.4,138.7H84.3v-18.1h18.1V138.7z M102.4,106.7H84.3v-18h18.1V106.7z"/>
<path class="st0" d="M180.4,83.8h-36.3c-2.9,0-5.3,2.4-5.3,5.3s2.4,5.3,5.3,5.3H175V185h-30.9c-2.9,0-5.3,2.4-5.3,5.3
	c0,2.9,2.4,5.3,5.3,5.3h36.3c2.9,0,5.3-2.4,5.3-5.3V89.1C185.7,86.2,183.3,83.8,180.4,83.8L180.4,83.8z"/>
</svg>
