<?xml version="1.0" encoding="utf-8"?>
<!-- Generator: Adobe Illustrator 21.0.0, SVG Export Plug-In . SVG Version: 6.00 Build 0)  -->
<svg version="1.1" id="Layer_1" xmlns:v="https://vecta.io/nano"
	 xmlns="http://www.w3.org/2000/svg" xmlns:xlink="http://www.w3.org/1999/xlink" x="0px" y="0px" viewBox="0 0 54.9 61.3"
	 style="enable-background:new 0 0 54.9 61.3;" xml:space="preserve">
<style type="text/css">
	.st0{fill:#EC1E24;}
</style>
<g>
	<path id="E_6_" class="st0" d="M13.3,60c0-0.5,0.4-0.9,0.9-0.9s0.9,0.4,0.9,0.9s-0.4,0.9-0.9,0.9C13.7,60.8,13.3,60.4,13.3,60z"/>
	<circle class="st0" cx="14.2" cy="60" r="0.9"/>
	<circle class="st0" cx="1.1" cy="60" r="0.9"/>
	<circle class="st0" cx="27.5" cy="60.1" r="0.9"/>
	<circle class="st0" cx="40.8" cy="60.1" r="0.9"/>
	<circle class="st0" cx="53.9" cy="60.1" r="0.9"/>
</g>
<g>
	<path id="E_5_" class="st0" d="M13.3,48.5c0-0.5,0.4-0.9,0.9-0.9s0.9,0.4,0.9,0.9s-0.4,0.9-0.9,0.9C13.7,49.3,13.3,48.9,13.3,48.5z
		"/>
	<circle class="st0" cx="14.2" cy="48.5" r="0.9"/>
	<circle class="st0" cx="1" cy="48.5" r="0.9"/>
	<circle class="st0" cx="27.5" cy="48.6" r="0.9"/>
	<circle class="st0" cx="40.8" cy="48.6" r="0.9"/>
	<circle class="st0" cx="53.9" cy="48.6" r="0.9"/>
</g>
<g>
	<path id="E_4_" class="st0" d="M13.3,36.6c0-0.5,0.4-0.9,0.9-0.9s0.9,0.4,0.9,0.9s-0.4,0.9-0.9,0.9C13.7,37.4,13.3,37,13.3,36.6z"
		/>
	<circle class="st0" cx="14.2" cy="36.6" r="0.9"/>
	<circle class="st0" cx="1.1" cy="36.6" r="0.9"/>
	<circle class="st0" cx="27.5" cy="36.7" r="0.9"/>
	<circle class="st0" cx="40.8" cy="36.7" r="0.9"/>
	<circle class="st0" cx="53.9" cy="36.7" r="0.9"/>
</g>
<g>
	<path id="E_3_" class="st0" d="M13.3,24.7c0-0.5,0.4-0.9,0.9-0.9s0.9,0.4,0.9,0.9s-0.4,0.9-0.9,0.9C13.7,25.5,13.3,25.1,13.3,24.7z
		"/>
	<circle class="st0" cx="14.2" cy="24.7" r="0.9"/>
	<circle class="st0" cx="1.1" cy="24.7" r="0.9"/>
	<circle class="st0" cx="27.5" cy="24.8" r="0.9"/>
	<circle class="st0" cx="40.8" cy="24.8" r="0.9"/>
	<circle class="st0" cx="53.9" cy="24.8" r="0.9"/>
</g>
<g>
	<path id="E_2_" class="st0" d="M13.3,12.8c0-0.5,0.4-0.9,0.9-0.9s0.9,0.4,0.9,0.9s-0.4,0.9-0.9,0.9C13.7,13.6,13.3,13.2,13.3,12.8z
		"/>
	<circle class="st0" cx="14.2" cy="12.8" r="0.9"/>
	<circle class="st0" cx="1.1" cy="12.8" r="0.9"/>
	<circle class="st0" cx="27.5" cy="12.8" r="0.9"/>
	<circle class="st0" cx="40.8" cy="12.8" r="0.9"/>
	<circle class="st0" cx="53.9" cy="12.8" r="0.9"/>
</g>
<g>
	<path id="E_1_" class="st0" d="M13.3,1c0-0.5,0.4-0.9,0.9-0.9s0.9,0.4,0.9,0.9s-0.4,0.9-0.9,0.9C13.7,1.8,13.3,1.4,13.3,1z"/>
	<circle class="st0" cx="14.2" cy="1" r="0.9"/>
	<circle class="st0" cx="1.1" cy="1" r="0.9"/>
	<circle class="st0" cx="27.5" cy="1.1" r="0.9"/>
	<circle class="st0" cx="40.8" cy="1.1" r="0.9"/>
	<circle class="st0" cx="53.9" cy="1.1" r="0.9"/>
</g>
</svg>
