<?xml version="1.0" encoding="utf-8"?>
<!-- Generator: Adobe Illustrator 21.0.0, SVG Export Plug-In . SVG Version: 6.00 Build 0)  -->
<svg version="1.1" id="Layer_1" xmlns="http://www.w3.org/2000/svg" xmlns:xlink="http://www.w3.org/1999/xlink" x="0px" y="0px"
	 viewBox="0 0 75.2 11.1" style="enable-background:new 0 0 75.2 11.1;" xml:space="preserve">
<style type="text/css">
	.st0{fill:#0E40C0;}
	.st1{fill:#EC1E24;}
</style>
<g id="Path_10544">
	<path class="st0" d="M67.1,6.6c-0.1,0-0.2,0-0.3-0.1l-7.1-5l-7.1,5c-0.2,0.1-0.4,0.1-0.6,0l-7.1-5l-7.1,5c-0.2,0.1-0.4,0.1-0.6,0
		l-7.1-5l-7.1,5c-0.2,0.1-0.4,0.1-0.6,0l-7.3-5.2c-0.2-0.2-0.3-0.5-0.1-0.7s0.5-0.3,0.7-0.1l7.1,5l7.1-5c0.2-0.1,0.4-0.1,0.6,0
		l7.1,5l7.1-5c0.2-0.1,0.4-0.1,0.6,0l7.1,5l7.1-5c0.2-0.1,0.4-0.1,0.6,0l7.1,5l7.1-5c0.2-0.2,0.5-0.1,0.7,0.1c0,0.3,0,0.6-0.3,0.7
		l-7.3,5.2C67.3,6.6,67.2,6.6,67.1,6.6z"/>
</g>
<g id="Path_11771">
	<path class="st1" d="M52.4,10.9c-0.1,0-0.2,0-0.3-0.1l-7.1-5l-7.1,5c-0.2,0.1-0.4,0.1-0.6,0l-7.1-5l-7.1,5c-0.2,0.1-0.4,0.1-0.6,0
		l-7.1-5l-7.1,5c-0.2,0.1-0.4,0.1-0.6,0l-7-5.2C0.4,5.5,0.4,5.1,0.5,4.9C0.7,4.7,1,4.6,1.2,4.8l7.1,5l7.1-5c0.2-0.1,0.4-0.1,0.6,0
		l7.1,5l7.1-5c0.2-0.1,0.4-0.1,0.6,0l7.1,5l7.1-5c0.2-0.1,0.4-0.1,0.6,0l7.1,5l7.1-5c0.2-0.2,0.5-0.1,0.7,0.1s0.1,0.5-0.1,0.7
		l-7.3,5.2C52.6,10.9,52.5,10.9,52.4,10.9z"/>
</g>
</svg>
