<?xml version="1.0" encoding="utf-8"?>
<!-- Generator: Adobe Illustrator 21.0.0, SVG Export Plug-In . SVG Version: 6.00 Build 0)  -->
<svg version="1.1" id="Layer_1" xmlns="http://www.w3.org/2000/svg" xmlns:xlink="http://www.w3.org/1999/xlink" x="0px" y="0px"
	 viewBox="0 0 450 426.4" style="enable-background:new 0 0 450 426.4;" xml:space="preserve">
<style type="text/css">
	.st0{fill:#F3FCFF;}
	.st1{fill:#BEE1F4;}
	.st2{fill:#BBDAFF;}
	.st3{fill:#06325B;}
	.st4{fill:#3D5BA8;}
	.st5{fill:#F9FBFC;}
	.st6{fill:#FFFFFF;}
	.st7{fill:#E5F3F9;}
	.st8{fill:#EC2228;}
	.st9{fill:#5083DD;}
	.st10{opacity:0.37;}
	.st11{fill:#DD1D2B;}
	.st12{fill:#FC3D4B;}
	.st13{fill:url(#SVGID_1_);}
	.st14{fill:#2EB2E7;}
	.st15{fill:#FFC8AF;}
	.st16{fill:#83BDF0;}
	.st17{fill:#4190D7;}
	.st18{fill:#043059;}
	.st19{fill:#E2A58D;}
	.st20{fill:#FF9D6F;}
	.st21{fill:#0569BD;}
</style>
<g>
	<g>
		<path class="st0" d="M97.1,229.5c3.1-3.2,4.6-7.9,4.4-12.3c-0.2-5.2-2.6-10.2-6.1-14.1c-0.1-0.1-0.2-0.2-0.3-0.3
			c0,1-0.1,1.9-0.1,2.9c-0.3,4.4-0.7,9-2.7,12.8c1-6.8,0.3-13.8-2-20.2c-3.1-2.3-6.5-4.1-10.1-5.4c0.5,0.8,1,1.6,1.4,2.5
			c2.8,5.7,2.9,12.3,2.1,18.7c-2.1-8-5.4-15.7-9.7-22.8c-3-0.5-6-0.6-9-0.3c0.8,0.8,1.7,1.5,2.6,2.2c1.8,1.3,3.9,2.2,5.3,3.9
			c1.9,2.3,2.2,5.5,2.3,8.5c0.1,1.5,0.1,3,0.1,4.6c-0.7-1.8-1.4-3.6-2.1-5.3c-0.7-1.6-1.4-3.1-2.3-4.6c-2.3-3.6-5.7-6.3-9.2-8.7
			c-1.9,0.4-3.7,0.9-5.5,1.6c3.8,3.8,6.8,8.4,9,13.3c-3.4-4.5-7.4-8.5-11.8-12c-1.6,0.8-3,1.7-4.4,2.7c4.1,3.3,7.5,7.5,9.6,12.4
			c-3.5-4.1-7.8-7.5-12.6-9.9c-1,0.9-2,1.8-2.9,2.8c1,0.8,1.9,1.7,2.7,2.6c0.7,0.8,1.3,1.7,1.9,2.7c-1.9-1.4-4-2.6-6.2-3.5
			c-1.1,1.3-2.1,2.6-3,4L97.1,229.5z"/>
		<path class="st0" d="M97.1,229.5c0.7,2.3,0.2,6.5-0.8,8.7c-1.1,2.5-2.6,4.7-4.6,6.6c-3.9,3.6-9.2,5.1-14.4,5.6
			c1.7-1.9,3.2-4,4.3-6.3c1.2-2.4,2-4.9,2.7-7.4c-2.4,2.5-5.2,4.8-7.3,7.6c-0.8,1-1.4,2-2.2,3c-1.1,1.3-2.4,2.4-3.8,3.3
			c-4.2-0.2-8.3-1-12-2.7c1.9-0.6,3.7-1.5,5.4-2.4c2-1,3.9-2.1,5.5-3.7c1.2-1.2,2-2.7,2.7-4.2c-0.9,0.9-1.9,1.7-2.9,2.4
			c-4.6,3.2-10.3,4.2-15.9,5c-1.7-1.2-3.2-2.6-4.6-4.1c3.6-0.4,7.1-1.5,10.3-3.2c2.9-1.5,5.6-3.6,7.9-6c-0.9,0.5-1.8,0.9-2.6,1.3
			c-2.8,1.3-5.6,2.6-8.6,3.5c-1.8,0.5-3.7,0.9-5.6,1.1c-0.9,0.1-1.9,0.3-2.8,0.3c-0.4,0-0.7,0-1.1-0.1c-1.2-1.7-2.3-3.5-3.3-5.3
			c2.5,0.4,4.9,0.4,7.4-0.2c1.5-0.3,2.9-0.9,4.3-1.5c2.8-1.3,5.6-2.8,8-4.8c-6.6,3.3-14.5,4.3-21.6,2.2c-0.5-1.4-0.9-2.8-1.3-4.2
			c2.9,0.5,5.9,0.4,8.8-0.2c-3.2-0.2-6.4-1-9.3-2.5c-0.3-1.6-0.4-3.2-0.6-4.9c1.8,0.3,3.7,0.3,5.6,0.1c-2-0.3-3.9-1-5.7-2
			c-0.2-2-0.3-4.1-0.6-6.3L97.1,229.5z"/>
		<path class="st1" d="M88,222.5c0.1-1.2,0.2-2.3,0.2-3.5c0.1-2.3,0.1-4.7,0-7s-0.3-4.6-0.5-7c-0.3-2.3-0.7-4.6-1.3-6.9
			c0.5,2.3,0.8,4.6,1.1,6.9c0.2,2.3,0.3,4.6,0.4,6.9c0,2.3,0,4.6-0.2,6.9c-0.1,1.2-0.2,2.3-0.3,3.5l-0.3,2.6l-6.9-2.4
			c0.1-1.5,0.1-3.1,0.1-4.6c-0.1-1.7-0.2-3.4-0.5-5.1c-0.5-3.4-1.3-6.7-2.3-9.9c0.9,3.3,1.6,6.6,1.9,10c0.2,1.7,0.3,3.4,0.3,5.1
			c0,1.5-0.1,2.9-0.2,4.3l-6.6-2.3c-0.1-2.1-0.3-4.1-0.8-6.1c-0.5-2.1-1.1-4.2-2-6.3c-0.8-2-1.8-4-2.9-5.9c-1.1-1.9-2.3-3.7-3.7-5.4
			c1.3,1.7,2.5,3.6,3.6,5.5c1.1,1.9,2,3.9,2.8,5.9c0.8,2,1.4,4.1,1.8,6.2c0.4,1.9,0.6,3.9,0.6,5.8l-6.9-2.4
			c-0.4-1.7-0.9-3.4-1.5-5.1c-0.7-1.7-1.5-3.4-2.4-5c-0.9-1.6-2-3.1-3.1-4.6c-1.1-1.5-2.3-2.8-3.7-4.1c1.3,1.3,2.5,2.7,3.6,4.2
			c1.1,1.5,2.1,3,3,4.6c0.9,1.6,1.7,3.3,2.3,5c0.6,1.5,1,3.1,1.3,4.7l-7.2-2.5c-1.2-2.1-2.5-4.1-4-5.9c-1.6-1.9-3.2-3.6-5.1-5.1
			c1.8,1.6,3.5,3.3,5,5.2c1.4,1.8,2.6,3.6,3.7,5.6l-12.6-4.4l16.6,6.4c-1.2,0.7-2.4,1.3-3.7,1.7c-0.7,0.3-1.5,0.5-2.2,0.7
			c-0.8,0.2-1.5,0.4-2.3,0.5c-1.5,0.3-3.1,0.4-4.6,0.5c-1.5,0-3.1-0.1-4.6-0.3c1.5,0.3,3.1,0.4,4.6,0.4c1.6,0,3.1-0.1,4.6-0.4
			c0.8-0.1,1.5-0.3,2.3-0.5c0.7-0.2,1.5-0.4,2.2-0.7c1.4-0.5,2.7-1.1,4.1-1.8l6.6,2.5c-1.6,1.2-3.2,2.3-4.9,3.2
			c-1.9,1.1-3.9,1.9-6,2.5c-2.1,0.7-4.2,1.1-6.4,1.3s-4.4,0.3-6.6,0c2.2,0.3,4.4,0.3,6.6,0.2c2.2-0.2,4.4-0.6,6.5-1.2
			c2.1-0.6,4.2-1.4,6.2-2.4c1.9-0.9,3.6-2.1,5.3-3.4l6,2.3l-0.8,0.8l-0.6,0.7l-0.7,0.6l-1.4,1.2l-1.5,1.1c-2,1.5-4.1,2.8-6.3,3.9
			s-4.5,2.1-6.8,2.9s-4.7,1.5-7.2,1.9c2.5-0.4,4.9-1,7.2-1.7c2.4-0.8,4.7-1.7,6.9-2.8c2.2-1.1,4.4-2.3,6.4-3.8l1.5-1.1l1.4-1.2
			l0.7-0.6l0.7-0.7l1-1l3.6,1.4c-1,1.7-2.2,3.4-3.5,4.9c-1.4,1.7-3,3.3-4.7,4.8c-1.7,1.5-3.4,2.9-5.3,4.2c-1.9,1.3-3.8,2.4-5.8,3.5
			c2-1,4-2.1,5.9-3.3c1.9-1.2,3.7-2.6,5.4-4c1.7-1.4,3.4-3,4.9-4.7c1.4-1.5,2.6-3.3,3.7-5l4.2,1.6c-0.3,0.8-0.7,1.6-1,2.3
			c-0.5,1-0.9,2-1.4,2.9c-1,1.9-2.1,3.8-3.2,5.7c-1.2,1.8-2.4,3.6-3.8,5.3c-1.4,1.7-2.8,3.3-4.4,4.8c1.7-1.4,3.1-3,4.6-4.7
			c1.4-1.7,2.7-3.4,4-5.2c1.2-1.8,2.4-3.7,3.4-5.6c0.5-0.9,1-1.9,1.5-2.9c0.4-0.8,0.7-1.6,1.1-2.4l8.5,3.3c-0.2,1.6-0.5,3.3-1.1,4.8
			c-0.7,1.8-1.6,3.5-2.6,5.2c-1.1,1.6-2.2,3.2-3.5,4.6c-1.3,1.4-2.7,2.8-4.2,4.1c1.5-1.2,3-2.5,4.3-3.9c1.3-1.4,2.6-2.9,3.7-4.5
			s2-3.3,2.8-5.2c0.6-1.5,1-3.1,1.2-4.8l14.9,5.7l0.8-2.1l-15.2-4.8c0.6-1.2,1.1-2.4,1.5-3.6c0.5-1.5,0.9-3.1,1.2-4.6
			c0.3-1.6,0.4-3.2,0.5-4.8c0-1.6,0-3.2-0.2-4.8c0.2,1.6,0.2,3.2,0.1,4.7c-0.1,1.6-0.3,3.1-0.7,4.7c-0.3,1.5-0.8,3.1-1.3,4.5
			c-0.4,1.2-1,2.4-1.6,3.6l-5.9-2L88,222.5z"/>
	</g>
	<path id="XMLID_1957_" class="st0" d="M250.7,344c-47.4,27.4-124.6,27.2-172.3-0.3s-48-72.1-0.5-99.5s124.6-27.2,172.3,0.3
		C297.9,272.1,298.2,316.6,250.7,344z"/>
	<path id="XMLID_1956_" class="st0" d="M374.3,295.1c-47.4,27.4-124.6,27.2-172.3-0.3c-47.7-27.6-48-72.1-0.5-99.5
		s124.6-27.2,172.3,0.3C421.5,223.2,421.7,267.8,374.3,295.1z"/>
	<g>
		<path class="st0" d="M174.5,74.2L174.5,74.2L174.5,74.2c-1.4-0.7-2.8-1.2-4.3-1.7c-0.1,0-0.2,0-0.2-0.1c-0.4-0.1-0.8-0.2-1.2-0.3
			c-0.1,0-0.3-0.1-0.4-0.1c-0.3-0.1-0.7-0.2-1.1-0.2c-0.2,0-0.3-0.1-0.5-0.1c-0.3-0.1-0.7-0.1-1-0.1c-0.2,0-0.3,0-0.5-0.1
			c-0.4,0-0.7-0.1-1.1-0.1c-0.2,0-0.3,0-0.5,0c-0.5,0-1,0-1.5,0l0,0l0,0c-5.7,0-11,1.7-15.4,4.7c-1.1,0.7-2.1,1.6-3.1,2.5
			s-1.9,1.9-2.7,2.9c-0.3,0.3-0.6,0.7-0.8,1c-0.5,0.7-1,1.4-1.5,2.2c-0.2,0.4-0.5,0.8-0.7,1.2c-0.3,0.5-0.5,1-0.8,1.6
			s-0.5,1.1-0.7,1.7c-0.4,1-0.7,1.9-0.9,2.9c-0.6,2.2-0.9,4.5-0.9,6.9c0,0.4,0,0.9,0,1.3c0,0.1,0,0.3,0,0.4c0,0.3,0,0.6,0.1,0.9
			c0,0.2,0,0.3,0,0.5c0,0.3,0.1,0.6,0.1,0.8c0,0.1,0,0.3,0.1,0.4c0.1,0.3,0.1,0.7,0.2,1c0,0.1,0,0.2,0.1,0.3
			c0.1,0.4,0.2,0.7,0.2,1.1c0,0.2,0.1,0.3,0.1,0.5c0.1,0.2,0.1,0.5,0.2,0.7c0.1,0.2,0.1,0.4,0.2,0.6c0.1,0.2,0.1,0.4,0.2,0.6
			c0.1,0.2,0.1,0.4,0.2,0.6c0.1,0.2,0.2,0.4,0.2,0.6c0.1,0.4,0.3,0.7,0.5,1.1c0.1,0.2,0.1,0.3,0.2,0.5c0.1,0.2,0.2,0.4,0.3,0.6
			c0.1,0.1,0.1,0.3,0.2,0.4c0.1,0.2,0.2,0.4,0.3,0.6c0.1,0.1,0.1,0.3,0.2,0.4c0.1,0.2,0.3,0.4,0.4,0.7c0.1,0.1,0.1,0.2,0.2,0.3
			c0.3,0.5,0.7,1,1,1.5l0,0l0,0c5,6.8,13.1,11.2,22.2,11.2c15.2,0,27.6-12.3,27.6-27.6C189.9,88.1,183.6,78.8,174.5,74.2z"/>
		<path class="st0" d="M93,65.3L93,65.3L93,65.3c-1.9-0.9-3.8-1.7-5.8-2.3c-0.1,0-0.2-0.1-0.3-0.1c-0.5-0.2-1.1-0.3-1.6-0.4
			c-0.2,0-0.4-0.1-0.5-0.1c-0.5-0.1-1-0.2-1.4-0.3c-0.2,0-0.4-0.1-0.7-0.1c-0.5-0.1-0.9-0.1-1.4-0.2c-0.2,0-0.5-0.1-0.7-0.1
			c-0.5-0.1-1-0.1-1.5-0.1c-0.2,0-0.4,0-0.6,0c-0.7,0-1.4-0.1-2.1-0.1c-20.7,0-37.6,16.8-37.6,37.6c0,0.6,0,1.2,0,1.8
			c0,0.2,0,0.4,0,0.6c0,0.4,0.1,0.8,0.1,1.2c0,0.2,0,0.4,0.1,0.6c0,0.4,0.1,0.8,0.1,1.1c0,0.2,0.1,0.4,0.1,0.6
			c0.1,0.5,0.2,0.9,0.2,1.4c0,0.2,0.1,0.3,0.1,0.5c0.1,0.5,0.2,1,0.3,1.5c0.1,0.2,0.1,0.5,0.2,0.7c0.1,0.3,0.2,0.6,0.3,0.9
			s0.2,0.5,0.2,0.8c0.1,0.3,0.2,0.6,0.3,0.8c0.1,0.3,0.2,0.5,0.3,0.8s0.2,0.5,0.3,0.8c0.2,0.5,0.4,1,0.6,1.5
			c0.1,0.2,0.2,0.4,0.3,0.6c0.1,0.3,0.3,0.6,0.4,0.9c0.1,0.2,0.2,0.4,0.3,0.6c0.2,0.3,0.3,0.6,0.5,0.9c0.1,0.2,0.2,0.3,0.3,0.5
			c0.2,0.3,0.4,0.6,0.5,0.9c0.1,0.1,0.2,0.2,0.2,0.4c6.7,10.5,18.4,17.4,31.7,17.4c20.7,0,37.6-16.8,37.6-37.6
			C113.9,84.2,105.4,71.4,93,65.3z"/>
		<path class="st0" d="M138.1,2c-0.1,0-0.3-0.1-0.4-0.1c-0.7-0.2-1.4-0.4-2.1-0.6c-0.2-0.1-0.5-0.1-0.7-0.2
			c-0.6-0.1-1.2-0.3-1.8-0.4c-0.3-0.1-0.6-0.1-0.8-0.1c-0.6-0.1-1.2-0.2-1.8-0.3c-0.3,0-0.6-0.1-0.9-0.1c-0.6-0.1-1.2-0.1-1.9-0.2
			c-0.3,0-0.5,0-0.8-0.1c-0.9,0-1.8-0.1-2.7-0.1l0,0l0,0c-9.1,0-17.6,2.5-24.9,6.9c-0.7,0.4-1.3,0.8-1.9,1.2
			c-3.8,2.6-7.3,5.7-10.2,9.3c-6.8,8.3-11,18.9-11,30.5c0,0.8,0,1.5,0.1,2.3c0,0.2,0,0.5,0,0.7c0,0.5,0.1,1,0.1,1.5
			c0,0.3,0.1,0.5,0.1,0.8c0.1,0.5,0.1,1,0.2,1.5c0,0.3,0.1,0.5,0.1,0.8c0.1,0.6,0.2,1.2,0.3,1.8c0,0.2,0.1,0.4,0.1,0.6
			c0.1,0.6,0.3,1.2,0.4,1.9c0.1,0.3,0.2,0.6,0.2,0.9c0.1,0.4,0.2,0.8,0.3,1.2c0.1,0.3,0.2,0.6,0.3,1c0.1,0.4,0.2,0.7,0.4,1.1
			c0.1,0.3,0.2,0.7,0.4,1c0.1,0.3,0.3,0.7,0.4,1c0.3,0.6,0.5,1.3,0.8,1.9c0.1,0.3,0.2,0.5,0.4,0.8c0.2,0.4,0.4,0.7,0.6,1.1
			c0.1,0.2,0.2,0.5,0.4,0.7c0.2,0.4,0.4,0.8,0.6,1.1c0.1,0.2,0.2,0.4,0.4,0.6c0.2,0.4,0.4,0.8,0.7,1.1c0.1,0.2,0.2,0.3,0.3,0.5
			c8.5,13.4,23.5,22.3,40.5,22.3c26.5,0,48-21.5,48-48C172.3,26.3,157.9,8,138.1,2z"/>
		<polygon class="st2" points="162.3,101.6 126.4,121.1 124.3,61.8 121.8,132.8 78.3,99 121.6,139 119.8,191.3 128.8,191.3 
			126.6,126.7 		"/>
	</g>
	<path id="XMLID_1954_" class="st0" d="M404.6,371.9c-27.1,15.6-71.1,15.5-98.3-0.2s-27.4-41.1-0.3-56.8
		c27.1-15.6,71.1-15.5,98.3,0.2C431.5,330.8,431.6,356.3,404.6,371.9z"/>
	<path id="XMLID_1953_" class="st0" d="M220.5,414.7c-27.1,15.6-71.1,15.5-98.3-0.2s-27.4-41.1-0.3-56.8
		c27.1-15.6,71.1-15.5,98.3,0.2C247.4,373.6,247.5,399.1,220.5,414.7z"/>
	<path id="XMLID_1952_" class="st0" d="M362.2,405.5c-6,3.5-15.7,3.4-21.7,0c-6-3.5-6-9.1-0.1-12.5c6-3.5,15.7-3.4,21.7,0
		S368.1,402,362.2,405.5z"/>
	<g>
		<rect x="75.7" y="135" class="st3" width="1.5" height="20.7"/>
		<rect x="75.7" y="162.8" class="st3" width="1.5" height="11.7"/>
		<path class="st4" d="M86.6,114.7h46.1c5.4,0,9.8,4.4,9.8,9.8v123.3c0,5.4-4.4,9.8-9.8,9.8H86.6c-5.4,0-9.8-4.4-9.8-9.8V124.6
			C76.8,119.1,81.2,114.7,86.6,114.7z"/>
		<path class="st3" d="M86.6,121.4h46.1c5.4,0,9.8,4.4,9.8,9.8v110.5c0,5.4-4.4,9.8-9.8,9.8H86.6c-5.4,0-9.8-4.4-9.8-9.8V131.3
			C76.8,125.8,81.2,121.4,86.6,121.4z"/>
		<path class="st5" d="M105.1,117.9h9.4c0.4,0,0.7,0.3,0.7,0.7l0,0c0,0.4-0.3,0.7-0.7,0.7h-9.4c-0.4,0-0.7-0.3-0.7-0.7l0,0
			C104.3,118.2,104.7,117.9,105.1,117.9z"/>
		<circle class="st5" cx="119" cy="118.7" r="1"/>
		<g>
			<g>
				<path class="st6" d="M95.9,192.2c0,0-0.5-0.7-1.5-0.7c-1.2,0-2.3,0.9-2.3,2.4c0,1.4,1,2.4,2.2,2.4c1,0,1.5-0.7,1.5-0.7v0.3
					c0,0.1,0.1,0.3,0.3,0.3h0.7v-4.8h-1v0.8H95.9z M94.5,195.5c-0.7,0-1.4-0.5-1.4-1.5c0-0.9,0.6-1.5,1.4-1.5c1,0,1.4,0.8,1.4,1.5
					C96,194.8,95.4,195.5,94.5,195.5z"/>
				<path class="st6" d="M100.6,191.5c-0.7,0-1.2,0.3-1.4,0.7v-0.6h-1.1v4.4c0,0.2,0.1,0.3,0.3,0.3h0.7v-2.5c0-0.7,0.4-1.4,1.2-1.4
					c0.7,0,1,0.6,1,1.1v2.4c0,0.1,0.1,0.3,0.3,0.3h0.7v-3.1C102.4,192.5,101.7,191.5,100.6,191.5z"/>
				<path class="st6" d="M107,192.2c0,0-0.5-0.7-1.5-0.7c-1.2,0-2.2,0.9-2.2,2.4c0,1.4,1,2.4,2.2,2.4c1,0,1.5-0.7,1.5-0.7v0.3
					c0,0.1,0.1,0.3,0.3,0.3h0.7v-7h-1.1L107,192.2L107,192.2z M105.6,195.5c-0.7,0-1.4-0.5-1.4-1.5c0-0.9,0.6-1.5,1.4-1.5
					c1,0,1.4,0.8,1.4,1.5C107,194.8,106.5,195.5,105.6,195.5z"/>
				<path class="st6" d="M110.2,192.4v-0.8h-1.1v4.4c0,0.2,0.1,0.3,0.3,0.3h0.7v-2.4c0-0.7,0.4-1.4,1.2-1.4c0.3,0,0.5,0.1,0.5,0.1
					v-1.1c0,0-0.2-0.1-0.4-0.1C110.8,191.6,110.4,192,110.2,192.4z"/>
				<path class="st6" d="M118,196.1c0,0.2,0.1,0.3,0.3,0.3h0.7v-4.8h-1.1L118,196.1L118,196.1z"/>
				<path class="st6" d="M123.6,189.3v3c0,0-0.5-0.7-1.5-0.7c-1.2,0-2.2,0.9-2.2,2.4c0,1.4,1,2.4,2.2,2.4c1,0,1.5-0.7,1.5-0.7v0.3
					c0,0.1,0.1,0.3,0.3,0.3h0.8v-7.1h-1.1V189.3z M122.3,195.5c-0.7,0-1.4-0.5-1.4-1.5c0-0.9,0.6-1.5,1.4-1.5c1,0,1.4,0.8,1.4,1.5
					C123.7,194.8,123.1,195.5,122.3,195.5z"/>
				<circle class="st6" cx="118.5" cy="189.9" r="0.7"/>
				<path class="st6" d="M114.6,191.5c-1.2,0-2.4,0.9-2.4,2.4c0,1.4,1.1,2.4,2.4,2.4c1.7,0,2.5-1.4,2.5-2.4
					C117.2,192.6,116.1,191.5,114.6,191.5z M114.6,195.4c-0.7,0-1.4-0.6-1.4-1.5s0.7-1.5,1.4-1.5c0.8,0,1.4,0.7,1.4,1.5
					C116.1,194.8,115.5,195.4,114.6,195.4z"/>
			</g>
			<path class="st6" d="M116.4,173.2l2.6-4.6c0.1-0.1,0.1-0.3,0.1-0.4c-0.1-0.1-0.1-0.3-0.3-0.3c-0.1-0.1-0.1-0.1-0.3-0.1
				c-0.1,0-0.1,0-0.1,0c-0.1,0.1-0.3,0.1-0.3,0.3l-2.6,4.7c-2.2-1-4.6-1.5-7.1-1.5s-4.9,0.5-7.1,1.5l-2.6-4.7
				c-0.1-0.3-0.5-0.3-0.7-0.2c-0.3,0.1-0.4,0.4-0.3,0.7l2.6,4.6c-5,2.6-8.3,7.5-8.3,13.1h32.6C124.7,180.6,121.4,175.7,116.4,173.2z
				 M100.9,179.6c-0.4,0-0.7-0.3-0.7-0.7s0.3-0.7,0.7-0.7c0.4,0,0.7,0.3,0.7,0.7S101.3,179.6,100.9,179.6z M115.9,179.6
				c-0.4,0-0.7-0.3-0.7-0.7s0.3-0.7,0.7-0.7c0.4,0,0.7,0.3,0.7,0.7C116.7,179.3,116.4,179.6,115.9,179.6z"/>
		</g>
	</g>
	<g>
		<path class="st7" d="M326.8,349.3c3.2,3.1,7.8,4.7,12.3,4.6c5.2-0.2,10.2-2.5,14.2-5.8c0.1-0.1,0.2-0.2,0.3-0.3
			c-1,0-1.9-0.1-2.9-0.2c-4.4-0.4-9-0.9-12.8-2.9c6.7,1.1,13.8,0.5,20.2-1.7c2.4-3,4.2-6.4,5.5-10c-0.8,0.5-1.7,1-2.5,1.3
			c-5.8,2.7-12.4,2.7-18.7,1.7c8.1-2,15.8-5.1,23-9.3c0.5-3,0.7-6,0.4-9c-0.8,0.8-1.5,1.7-2.2,2.6c-1.3,1.8-2.3,3.8-4,5.2
			c-2.3,1.9-5.5,2.1-8.5,2.2c-1.5,0-3,0.1-4.6,0c1.8-0.6,3.6-1.3,5.4-2.1c1.6-0.6,3.1-1.3,4.6-2.2c3.7-2.2,6.4-5.5,8.9-9.1
			c-0.3-1.9-0.8-3.7-1.5-5.5c-3.9,3.7-8.5,6.7-13.5,8.7c4.5-3.4,8.7-7.3,12.2-11.6c-0.7-1.6-1.6-3-2.6-4.5
			c-3.3,4.1-7.7,7.3-12.5,9.4c4.1-3.4,7.6-7.7,10.2-12.4c-0.9-1-1.8-2-2.7-2.9c-0.8,1-1.7,1.9-2.7,2.7c-0.8,0.7-1.8,1.3-2.7,1.8
			c1.4-1.9,2.6-4,3.6-6.2c-1.3-1.1-2.6-2.2-4-3.1L326.8,349.3z"/>
		<path class="st7" d="M326.8,349.3c-2.3,0.6-6.5,0.1-8.7-0.9c-2.4-1.1-4.7-2.7-6.5-4.7c-3.5-3.9-4.9-9.3-5.4-14.5
			c1.9,1.7,3.9,3.2,6.2,4.4c2.3,1.2,4.8,2,7.3,2.9c-2.5-2.5-4.7-5.3-7.5-7.4c-1-0.8-2-1.5-2.9-2.3c-1.3-1.1-2.3-2.4-3.2-3.9
			c0.3-4.1,1.2-8.2,2.9-12c0.6,1.9,1.5,3.7,2.3,5.5c1,2,2.1,4,3.6,5.5c1.2,1.2,2.6,2.1,4.1,2.8c-0.9-0.9-1.7-1.9-2.4-3
			c-3.1-4.7-4-10.4-4.7-16c1.2-1.7,2.7-3.2,4.2-4.6c0.4,3.6,1.4,7.1,3,10.4c1.5,3,3.5,5.7,5.9,8c-0.5-0.9-0.9-1.8-1.3-2.7
			c-1.3-2.8-2.5-5.7-3.3-8.7c-0.5-1.8-0.8-3.7-1-5.6c-0.1-0.9-0.2-1.9-0.2-2.8c0-0.4,0-0.7,0.1-1.1c1.7-1.2,3.5-2.3,5.4-3.2
			c-0.4,2.5-0.5,4.9,0,7.4c0.3,1.5,0.8,2.9,1.4,4.3c1.2,2.9,2.7,5.6,4.7,8.1c-3.2-6.7-4.1-14.6-1.8-21.6c1.4-0.5,2.8-0.9,4.2-1.2
			c-0.5,2.9-0.5,5.9,0.1,8.8c0.2-3.2,1.1-6.4,2.6-9.2c1.6-0.2,3.3-0.4,4.9-0.5c-0.3,1.8-0.4,3.7-0.2,5.6c0.4-2,1.1-3.9,2.1-5.7
			c2-0.1,4.1-0.3,6.3-0.5L326.8,349.3z"/>
		<path class="st1" d="M334,340.2c1.2,0.1,2.3,0.2,3.5,0.2c2.3,0.1,4.7,0.2,7,0.1s4.7-0.2,7-0.4c2.3-0.3,4.6-0.6,6.9-1.1
			c-2.3,0.5-4.6,0.8-6.9,1c-2.3,0.2-4.6,0.2-6.9,0.2s-4.6-0.1-6.9-0.3c-1.2-0.1-2.3-0.2-3.5-0.3l-2.6-0.3l2.5-6.9
			c1.5,0.1,3.1,0.2,4.6,0.1c1.7-0.1,3.4-0.2,5.1-0.4c3.4-0.4,6.7-1.1,10-2.1c-3.3,0.9-6.6,1.5-10,1.8c-1.7,0.2-3.4,0.2-5.1,0.2
			c-1.5,0-2.9-0.1-4.3-0.3l2.4-6.5c2.1-0.1,4.1-0.2,6.1-0.7c2.1-0.5,4.3-1.1,6.3-1.9s4-1.7,5.9-2.8s3.7-2.3,5.5-3.6
			c-1.7,1.3-3.6,2.5-5.5,3.5s-3.9,1.9-5.9,2.7c-2,0.8-4.1,1.3-6.3,1.7c-1.9,0.4-3.9,0.5-5.8,0.5l2.5-6.9c1.7-0.4,3.5-0.8,5.1-1.5
			c1.7-0.7,3.4-1.4,5-2.4c1.6-0.9,3.2-1.9,4.6-3c1.5-1.1,2.9-2.3,4.2-3.6c-1.3,1.3-2.8,2.4-4.3,3.5s-3.1,2-4.7,2.9s-3.3,1.6-5,2.2
			c-1.5,0.6-3.1,0.9-4.7,1.2l2.6-7.2c2.1-1.1,4.1-2.4,6-3.9s3.7-3.2,5.2-5c-1.6,1.8-3.4,3.4-5.3,4.9c-1.8,1.4-3.7,2.5-5.7,3.6
			l4.6-12.5l-6.6,16.5c-0.6-1.2-1.2-2.4-1.6-3.7c-0.3-0.7-0.5-1.5-0.7-2.2c-0.2-0.8-0.4-1.5-0.5-2.3c-0.2-1.5-0.4-3.1-0.4-4.6
			s0.1-3.1,0.4-4.6c-0.3,1.5-0.4,3.1-0.5,4.6c0,1.6,0.1,3.1,0.3,4.6c0.1,0.8,0.3,1.5,0.4,2.3c0.2,0.8,0.4,1.5,0.6,2.2
			c0.4,1.4,1.1,2.8,1.7,4.1l-2.6,6.5c-1.2-1.6-2.3-3.2-3.1-5c-1-1.9-1.8-4-2.4-6.1s-1-4.3-1.2-6.4c-0.2-2.2-0.2-4.4,0.1-6.6
			c-0.4,2.2-0.4,4.4-0.3,6.6c0.1,2.2,0.5,4.4,1.1,6.5s1.3,4.2,2.3,6.2c0.9,1.9,2.1,3.7,3.3,5.4l-2.4,6l-0.8-0.8l-0.6-0.7l-0.6-0.7
			l-1.2-1.4l-1.1-1.5c-1.4-2-2.7-4.1-3.8-6.3c-1.1-2.2-2-4.5-2.8-6.9s-1.4-4.8-1.8-7.2c0.3,2.5,0.9,4.9,1.6,7.3s1.6,4.7,2.6,7
			c1,2.3,2.3,4.4,3.7,6.5l1.1,1.5l1.2,1.5l0.6,0.7l0.6,0.7l1,1l-1.5,3.6c-1.7-1.1-3.4-2.2-4.9-3.5c-1.7-1.5-3.3-3-4.7-4.8
			c-1.5-1.7-2.8-3.5-4.1-5.4c-1.2-1.9-2.4-3.8-3.4-5.9c0.9,2.1,2,4,3.2,6c1.2,1.9,2.5,3.8,3.9,5.5c1.4,1.8,3,3.4,4.7,4.9
			c1.5,1.4,3.2,2.7,5,3.8l-1.7,4.1c-0.8-0.3-1.6-0.7-2.3-1c-1-0.5-2-0.9-2.9-1.5c-1.9-1-3.8-2.1-5.6-3.3c-1.8-1.2-3.6-2.5-5.2-3.9
			c-1.7-1.4-3.3-2.9-4.7-4.5c1.4,1.7,3,3.2,4.6,4.6c1.6,1.4,3.4,2.8,5.2,4.1c1.8,1.2,3.6,2.5,5.5,3.5c0.9,0.6,1.9,1,2.9,1.6
			c0.8,0.4,1.6,0.8,2.3,1.1l-3.4,8.5c-1.6-0.2-3.3-0.6-4.8-1.1c-1.8-0.7-3.5-1.6-5.1-2.7s-3.1-2.3-4.6-3.6c-1.4-1.3-2.8-2.7-4-4.2
			c1.2,1.6,2.5,3,3.9,4.4s2.9,2.6,4.5,3.8c1.6,1.1,3.3,2.1,5.1,2.9c1.5,0.6,3.1,1.1,4.8,1.3l-6,14.8l2.1,0.8l5.5-15.1
			c1.2,0.6,2.4,1.1,3.6,1.5c1.5,0.5,3.1,0.9,4.6,1.2c1.6,0.3,3.2,0.5,4.7,0.6c1.6,0.1,3.2,0,4.8-0.2c-1.6,0.1-3.2,0.1-4.7,0
			c-1.6-0.1-3.1-0.4-4.7-0.7c-1.5-0.4-3.1-0.8-4.5-1.4c-1.2-0.5-2.4-1-3.5-1.7l2.1-5.9L334,340.2z"/>
	</g>
	<g>
		<g>
			<g>
				<path class="st8" d="M193.6,339.7c-2.6,1.5-2.6,3.9,0,5.4l85.6,49.8c2.6,1.5,6.7,1.5,9.3,0l20.1-9.4c2.6-1.5,2.6-3.9,0-5.4
					L223,330.3c-2.6-1.5-6.7-1.5-9.3,0L193.6,339.7z"/>
			</g>
			<g>
				<g>
					<path class="st9" d="M170,131.8v2.1c0,1.3,1.4,2,2.5,1.4l10.1-5.9c0.5-0.3,0.8-0.8,0.8-1.4v-2.1c0-1.3-1.4-2-2.5-1.4l-10.1,5.9
						C170.3,130.6,170,131.2,170,131.8z"/>
				</g>
				<g>
					<path class="st9" d="M138.1,160.8v2.1c0,1.3,1.4,2,2.5,1.4l42-24.3c0.5-0.3,0.8-0.8,0.8-1.4v-2.1c0-1.3-1.4-2-2.5-1.4l-42,24.3
						C138.4,159.7,138.1,160.2,138.1,160.8z"/>
				</g>
				<g>
					<path class="st9" d="M155.5,172.1v2.1c0,1.3,1.4,2,2.5,1.4l24.7-14.3c0.5-0.3,0.8-0.8,0.8-1.4v-2.1c0-1.3-1.4-2-2.5-1.4
						l-24.7,14.3C155.8,171,155.5,171.5,155.5,172.1z"/>
				</g>
				<g>
					<path class="st9" d="M144.7,167.7v2.1c0,1.3,1.4,2,2.5,1.4l35.5-20.5c0.5-0.3,0.8-0.8,0.8-1.4v-2.1c0-1.3-1.4-2-2.5-1.4
						l-35.5,20.5C145,166.6,144.7,167.1,144.7,167.7z"/>
				</g>
			</g>
			<g>
				<g>
					<g>
						<path class="st9" d="M364.4,164.2c0.5,0.3,0.8,0.9,0.8,1.4v14.6c0,0.5-0.4,0.7-0.8,0.5L345.9,170c-0.5-0.3-0.8-0.9-0.8-1.4
							V154c0-0.5,0.4-0.7,0.8-0.5L364.4,164.2z"/>
					</g>
				</g>
				<g>
					<g>
						<path class="st4" d="M371.1,190.1c0.5,0.3,0.8,0.9,0.8,1.4v14.6c0,0.5-0.4,0.7-0.8,0.5L352.7,196c-0.5-0.3-0.8-0.9-0.8-1.4
							V180c0-0.5,0.4-0.7,0.8-0.5L371.1,190.1z"/>
					</g>
				</g>
			</g>
			<g>
				<g class="st10">
					<g>
						<path class="st9" d="M183.7,203.8c0.3,0.2,0.5,0.6,0.5,0.9v9.4c0,0.3-0.2,0.5-0.5,0.3l-11.9-6.9c-0.3-0.2-0.5-0.6-0.5-0.9
							v-9.4c0-0.3,0.2-0.5,0.5-0.3L183.7,203.8z"/>
					</g>
				</g>
				<g>
					<g>
						<path class="st4" d="M188,220.5c0.3,0.2,0.5,0.6,0.5,0.9v9.4c0,0.3-0.2,0.5-0.5,0.3l-11.9-6.9c-0.3-0.2-0.5-0.6-0.5-0.9v-9.4
							c0-0.3,0.2-0.5,0.5-0.3L188,220.5z"/>
					</g>
				</g>
			</g>
			<g>
				<g>
					<path class="st11" d="M314.8,116l-84.3-48.7c-3.3-1.9-7.8-4.4-13.9-1.2l-8.8,5.1c0.4-0.2,117.6,79.5,117.6,84.2l8.8-5.1
						C334.2,150.4,334.9,130,314.8,116z"/>
					<path class="st11" d="M331.6,137.3l-8.9,5.1c0.1,0.3,2.7,11.6,2.7,12c0,0.3,0,0.6,0,0.9l-0.6,202.3c0,0.8,0,1.5-0.1,2.2
						c0,0.1,0,0.1,0,0.2c-0.1,0.6-0.2,1.3-0.3,1.8c0,0.1,0,0.2,0,0.2c-0.1,0.6-0.3,1.1-0.4,1.6c0,0.1-0.1,0.2-0.1,0.3
						c-0.2,0.5-0.3,1-0.6,1.4c0,0,0,0.1-0.1,0.1c-0.2,0.5-0.5,1-0.8,1.4c0,0.1-0.1,0.1-0.1,0.2c-0.2,0.4-0.5,0.7-0.8,1
						c-0.1,0.1-0.2,0.2-0.3,0.3c-0.2,0.3-0.5,0.5-0.7,0.7c-0.1,0.1-0.2,0.2-0.3,0.3c-0.4,0.3-0.7,0.6-1.1,0.8l8.8-5.1
						c0.4-0.2,0.8-0.5,1.1-0.8c0.1-0.1,0.2-0.2,0.3-0.3c0.3-0.2,0.5-0.5,0.7-0.7c0.1-0.1,0.2-0.2,0.3-0.3c0.3-0.3,0.5-0.7,0.8-1
						c0-0.1,0.1-0.1,0.1-0.2l0,0c0.3-0.4,0.5-0.9,0.7-1.4l0,0c0,0,0-0.1,0.1-0.2c0.1-0.3,0.3-0.6,0.4-0.9c0.1-0.2,0.1-0.3,0.2-0.5
						c0-0.1,0.1-0.2,0.1-0.3c0-0.1,0.1-0.2,0.1-0.3c0.1-0.3,0.2-0.7,0.3-1c0-0.1,0-0.2,0.1-0.4c0-0.1,0-0.2,0-0.2
						c0-0.1,0.1-0.2,0.1-0.4c0.1-0.3,0.1-0.6,0.1-0.9c0-0.2,0-0.4,0.1-0.5c0-0.1,0-0.1,0-0.2s0-0.1,0-0.2c0-0.3,0-0.6,0.1-0.9
						c0-0.3,0-0.6,0-1c0,0,0,0,0-0.1l0.6-202.3C334.2,146,331.7,137.7,331.6,137.3z"/>
					<g>
						<path class="st8" d="M305.7,121.2c10.9,6.3,19.7,21.6,19.7,34.1l-0.6,202.3c0,12.5-8.9,17.6-19.8,11.3l-84.3-48.7
							c-10.9-6.3-19.7-21.6-19.7-34.1l0.6-202.3c0-12.5,8.9-17.6,19.8-11.3L305.7,121.2z"/>
					</g>
					<g>
						<g>
							<path class="st11" d="M274.6,122.7c1.3,0.8,2.4,2.6,2.4,4.1c0,1.5-1.1,2.1-2.4,1.4l-21.7-12.6c-1.3-0.8-2.4-2.6-2.4-4.1
								s1.1-2.1,2.4-1.4L274.6,122.7z"/>
						</g>
						<g>
							<path class="st11" d="M263.2,315.4c3.6,2.1,6.4,7,6.4,11.1s-2.9,5.7-6.5,3.7c-3.6-2.1-6.4-7-6.4-11.1
								C256.8,315,259.7,313.4,263.2,315.4z"/>
						</g>
						<g>
							<path class="st5" d="M316.8,164.8c1.1,0.6,2,2.2,2,3.4l-0.5,169c0,1.3-0.9,1.8-2,1.1l-106.1-61.2c-1.1-0.6-2-2.2-2-3.4
								l0.5-169c0-1.3,0.9-1.8,2-1.1L316.8,164.8z"/>
						</g>
					</g>
					<path class="st12" d="M330,223.5L330,223.5c-0.7,0-1.3-0.6-1.3-1.3v-37.6c0-0.7,0.6-1.3,1.3-1.3l0,0c0.7,0,1.3,0.6,1.3,1.3
						v37.6C331.3,222.9,330.7,223.5,330,223.5z"/>
					<path class="st12" d="M330,270.2L330,270.2c-0.7,0-1.3-0.6-1.3-1.3v-37.6c0-0.7,0.6-1.3,1.3-1.3l0,0c0.7,0,1.3,0.6,1.3,1.3V269
						C331.3,269.7,330.7,270.2,330,270.2z"/>
					<path class="st12" d="M330,327.7L330,327.7c-0.7,0-1.3-0.6-1.3-1.3V307c0-0.7,0.6-1.3,1.3-1.3l0,0c0.7,0,1.3,0.6,1.3,1.3v19.5
						C331.3,327.1,330.7,327.7,330,327.7z"/>
				</g>
				<g>
					<path class="st6" d="M262.5,176.7c5.4,3.1,9.8,10.7,9.9,17c0,0.1,0,0.1,0,0.2c-0.2,0.1-4.6,1.8-10.1-1.3
						c-0.1,0-0.1-0.1-0.2-0.1c-4.3-2.5-7.8-7.4-9.1-9.3c-0.3-0.5-0.5-0.8-0.5-0.8C252.6,176,257,173.5,262.5,176.7z"/>
				</g>
				<g>
					<path class="st9" d="M307.1,231.2c1.3,0.7,2.3,2.5,2.3,3.9v9.5c0,1.4-1,2-2.3,1.3l-87.2-50.3c-1.3-0.7-2.3-2.5-2.3-3.9v-9.5
						c0-1.4,1-2,2.3-1.3L307.1,231.2z"/>
				</g>
				
					<linearGradient id="SVGID_1_" gradientUnits="userSpaceOnUse" x1="248.1133" y1="-389.6897" x2="276.3007" y2="-332.0623" gradientTransform="matrix(1 0 0 1 0 534)">
					<stop  offset="0" style="stop-color:#9A79FF"/>
					<stop  offset="0.3403" style="stop-color:#BA76E8"/>
					<stop  offset="0.94" style="stop-color:#FB6FB9"/>
				</linearGradient>
				<path class="st13" d="M277.4,174.5c0.5,1.7,0.9,3.4,1.1,5.1c0.1,1,0.2,2,0.2,3c0,0.3,0,0.6,0,0.9v0.1c0,0.3,0,0.5-0.1,0.8
					c0,0.1,0,0.1,0,0.2c0,0.3-0.1,0.5-0.1,0.8c-0.1,0.3-0.1,0.6-0.1,0.8c-0.1,0.3-0.1,0.5-0.2,0.8v0.1c-0.1,0.2-0.1,0.4-0.2,0.7v0.1
					c-0.1,0.2-0.1,0.4-0.2,0.6c-0.1,0.3-0.2,0.5-0.3,0.6c-0.1,0.3-0.2,0.5-0.3,0.6c0,0,0,0.1-0.1,0.1c-0.1,0.2-0.2,0.4-0.3,0.5
					c0,0,0,0.1-0.1,0.1c-0.1,0.2-0.2,0.3-0.4,0.5c-0.1,0.2-0.3,0.3-0.4,0.5c0,0,0,0-0.1,0.1s-0.3,0.3-0.4,0.4c0,0-0.1,0-0.1,0.1
					c-0.1,0.1-0.3,0.3-0.4,0.4c0,0,0,0-0.1,0.1s-0.3,0.2-0.4,0.3c-0.2,0.1-0.3,0.2-0.5,0.3c0,0-0.1,0-0.1,0.1
					c-0.2,0.1-0.3,0.2-0.5,0.3h-0.1c-0.2,0.1-0.3,0.2-0.5,0.2c-0.1,0.1-0.2,0.1-0.3,0.1c-0.1-6.3-4.5-13.8-9.9-16.9
					c-5.5-3.2-9.9-0.6-10,5.7c0,0,0.2,0.3,0.5,0.7c-0.1-0.2-0.3-0.4-0.4-0.5c-0.2-0.4-0.4-0.6-0.6-0.9l-0.1-0.1
					c-0.2-0.3-0.3-0.5-0.5-0.8c0-0.1-0.1-0.1-0.1-0.2c-0.2-0.3-0.3-0.6-0.5-0.8c-0.2-0.3-0.3-0.6-0.5-0.9c0-0.1-0.1-0.1-0.1-0.2
					c-0.2-0.3-0.3-0.6-0.4-0.9c0-0.1-0.1-0.1-0.1-0.2c-0.1-0.3-0.3-0.5-0.4-0.8c-0.2-0.4-0.3-0.7-0.4-1c0-0.1-0.1-0.1-0.1-0.2
					c-0.1-0.3-0.3-0.6-0.4-0.9c-0.2-0.4-0.3-0.7-0.4-0.9c0,0,0-0.1-0.1-0.1c-0.1-0.3-0.2-0.6-0.3-0.9c0-0.1,0-0.1-0.1-0.2
					c-0.2-0.6-0.4-1.2-0.6-1.8c0-0.1,0-0.1,0-0.2c-0.1-0.3-0.2-0.6-0.2-0.9c0-0.1,0-0.1,0-0.2c-0.1-0.3-0.1-0.6-0.2-0.8
					c-0.1-0.4-0.1-0.7-0.2-1c0-0.1,0-0.1,0-0.2c0-0.3-0.1-0.6-0.1-0.9c0-0.4-0.1-0.7-0.1-0.9v-0.1c0-0.3,0-0.6-0.1-0.9
					c0-0.1,0-0.1,0-0.2c0-0.3,0-0.6,0-0.9c0-1,0.1-1.9,0.2-2.7c0.2-1.4,0.6-2.7,1.1-3.8c0.1-0.2,0.2-0.4,0.3-0.6
					c2.6-4.8,8.2-5.9,14.7-2.1c5.8,3.3,10.9,9.8,13.8,16.7c0.2,0.5,0.4,0.9,0.5,1.4C277,173.1,277.2,173.8,277.4,174.5z
					 M262.7,174.9c3.3,1.9,6.1,0.4,6.1-3.5c0-3.8-2.7-8.5-6-10.4s-6.1-0.4-6.1,3.5C256.7,168.3,259.4,173,262.7,174.9"/>
				<path class="st14" d="M277.4,174.5c0.5,1.7,0.9,3.4,1.1,5.1c0.1,1,0.2,2,0.2,3c0,0.3,0,0.6,0,0.9v0.1c0,0.3,0,0.5-0.1,0.8
					c0,0.1,0,0.1,0,0.2c0,0.3-0.1,0.5-0.1,0.8c-0.1,0.3-0.1,0.6-0.1,0.8c-0.1,0.3-0.1,0.5-0.2,0.8v0.1c-0.1,0.2-0.1,0.4-0.2,0.7v0.1
					c-0.1,0.2-0.1,0.4-0.2,0.6c-0.1,0.3-0.2,0.5-0.3,0.6c-0.1,0.3-0.2,0.5-0.3,0.6c0,0,0,0.1-0.1,0.1c-0.1,0.2-0.2,0.4-0.3,0.5
					c0,0,0,0.1-0.1,0.1c-0.1,0.2-0.2,0.3-0.4,0.5c-0.1,0.2-0.3,0.3-0.4,0.5c0,0,0,0-0.1,0.1s-0.3,0.3-0.4,0.4c0,0-0.1,0-0.1,0.1
					c-0.1,0.1-0.3,0.3-0.4,0.4c0,0,0,0-0.1,0.1s-0.3,0.2-0.4,0.3c-0.2,0.1-0.3,0.2-0.5,0.3c0,0-0.1,0-0.1,0.1
					c-0.2,0.1-0.3,0.2-0.5,0.3h-0.1c-0.2,0.1-0.3,0.2-0.5,0.2c-0.1,0.1-0.2,0.1-0.3,0.1c-0.1-6.3-4.5-13.8-9.9-16.9
					c-5.5-3.2-9.9-0.6-10,5.7c0,0,0.2,0.3,0.5,0.7c-0.1-0.2-0.3-0.4-0.4-0.5c-0.2-0.4-0.4-0.6-0.6-0.9l-0.1-0.1
					c-0.2-0.3-0.3-0.5-0.5-0.8c0-0.1-0.1-0.1-0.1-0.2c-0.2-0.3-0.3-0.6-0.5-0.8c-0.2-0.3-0.3-0.6-0.5-0.9c0-0.1-0.1-0.1-0.1-0.2
					c-0.2-0.3-0.3-0.6-0.4-0.9c0-0.1-0.1-0.1-0.1-0.2c-0.1-0.3-0.3-0.5-0.4-0.8c-0.2-0.4-0.3-0.7-0.4-1c0-0.1-0.1-0.1-0.1-0.2
					c-0.1-0.3-0.3-0.6-0.4-0.9c-0.2-0.4-0.3-0.7-0.4-0.9c0,0,0-0.1-0.1-0.1c-0.1-0.3-0.2-0.6-0.3-0.9c0-0.1,0-0.1-0.1-0.2
					c-0.2-0.6-0.4-1.2-0.6-1.8c0-0.1,0-0.1,0-0.2c-0.1-0.3-0.2-0.6-0.2-0.9c0-0.1,0-0.1,0-0.2c-0.1-0.3-0.1-0.6-0.2-0.8
					c-0.1-0.4-0.1-0.7-0.2-1c0-0.1,0-0.1,0-0.2c0-0.3-0.1-0.6-0.1-0.9c0-0.4-0.1-0.7-0.1-0.9v-0.1c0-0.3,0-0.6-0.1-0.9
					c0-0.1,0-0.1,0-0.2c0-0.3,0-0.6,0-0.9c0-1,0.1-1.9,0.2-2.7c0.2-1.4,0.6-2.7,1.1-3.8c0.1-0.2,0.2-0.4,0.3-0.6
					c2.6-4.8,8.2-5.9,14.7-2.1c5.8,3.3,10.9,9.8,13.8,16.7c0.2,0.5,0.4,0.9,0.5,1.4C277,173.1,277.2,173.8,277.4,174.5z
					 M262.7,174.9c3.3,1.9,6.1,0.4,6.1-3.5c0-3.8-2.7-8.5-6-10.4s-6.1-0.4-6.1,3.5C256.7,168.3,259.4,173,262.7,174.9"/>
				<g>
					<path class="st6" d="M262.8,161c3.3,1.9,6,6.6,6,10.4c0,3.8-2.7,5.4-6.1,3.5c-3.3-1.9-6-6.6-6-10.4
						C256.7,160.7,259.4,159.1,262.8,161z"/>
				</g>
				<g>
					<path class="st9" d="M307.1,251.9c1.3,0.7,2.3,2.5,2.3,3.9v9.5c0,1.4-1,2-2.3,1.3l-87.2-50.3c-1.3-0.7-2.3-2.5-2.3-3.9v-9.5
						c0-1.4,1-2,2.3-1.3L307.1,251.9z"/>
				</g>
				<path class="st4" d="M273.1,267.4c3,1.7,5.4,5.9,5.4,9.3v2.2c0,3.4-2.4,4.8-5.4,3.1l-28.2-16.3c-3-1.7-5.4-5.9-5.4-9.3v-2.2
					c0-3.4,2.4-4.8,5.4-3.1L273.1,267.4z"/>
			</g>
			<ellipse class="st2" cx="212.2" cy="399.7" rx="32" ry="19"/>
			<g>
				<path class="st15" d="M244.8,270.4c0,0,1.9-1.3,2.4-1.9s1.1-4.3,0.5-4.5s-1.1,2.4-1.1,2.4s-0.2-6.7-1-7.7s-3.3,3.8-3.5,4.6
					c-0.2,0.8-0.8,4.1-0.8,4.1S242.2,270.4,244.8,270.4z"/>
				<path class="st16" d="M196,289.6c0,0-5,5-1.5,11.1s27.4-8.9,30-11.2c2.6-2.2,19.3-17.2,20.3-19.1s-1.1-3.8-3.7-3.5
					c-2.6,0.3-12.8,11.2-20.7,16.3C220.4,283.1,201.4,287.4,196,289.6z"/>
				<path class="st17" d="M199,395.6c0,0-0.4,3,0.1,4.3c0.5,1.1,2.7,1.9,4.3,0.8c1.5-1.1,4.1-3.8,4.1-3.8s4.4-2.3,4.8-3.6
					c0.4-1.2-1.1-2.3-2.3-2.1c-1.2,0.3-4.8,2.5-6.4,2.5C201.8,393.7,199.5,394.1,199,395.6z"/>
				<path class="st18" d="M194.4,331.4c0,0,3.8,63.4,4.3,65.2s5.5,2.9,6.4,0c0.6-1.9,2-60.5,2-60.5L194.4,331.4z"/>
				<path class="st17" d="M211.7,399.4c-0.2,0.2-0.3,0.5-0.3,0.7c0,0.9,0,2.8,0.5,3.6c0.6,1,2.7,2,4.8,0.9c1.8-1,7.2-5.1,8.4-6
					c0.7-0.5,1-1.2,1.1-1.7s-0.1-1-0.6-1.2c-0.8-0.3-2.1-0.8-3.3-0.4c-1.8,0.6-4.1,2.6-6.6,2.5C213.8,397.7,212.3,398.8,211.7,399.4
					z"/>
				<path class="st18" d="M220.1,332c-0.3-2.6-3.4-3.5-6.3-2.6c-5.5-0.3-14.1-0.1-14.4,4.2c-0.4,6.4,2.5,10.9,5.4,14
					c2.1,2.3,3.5,6.7,4.1,8.8c0.5,16.8,1.6,40.5,2.3,42.8c1.1,3.7,6.6,3.5,6.9-0.1C219.3,387.1,220.1,332,220.1,332z"/>
				<path class="st9" d="M220.2,334c-0.7,3.3-9.9,4.9-15.3,4c-5.4-0.9-11.3-3.5-11.1-9.8c0,0,1-15,0.6-17.7s-1.4-7.4-1.4-12.3
					s3.1-8.6,3.1-8.6s3-3.5,12.6-1.5c0,0,7.8,1.7,11.3,7.4c0,0,2.5,6.3,1.6,19.5C220.8,328.2,220.2,334,220.2,334z"/>
				<path class="st19" d="M201.2,281.1c0,0,0.8,4.8,0,7c-0.1,1.1,4.7,4.8,8.9,3.8c2.5-0.5,2.3-1.8,2.3-1.8s-2.1-3.4-1.8-6.7
					C210.9,280.1,204,280.4,201.2,281.1z"/>
				<g>
					<circle class="st20" cx="205.9" cy="271.4" r="11.3"/>
					<path class="st15" d="M217.2,272.2c0,0,0.1,11.3-2.3,13.6c-2.5,2.3-6.3-2.1-12.3-3.6c-6.1-1.6,4.9-13.3,4.9-13.3L217.2,272.2z"
						/>
				</g>
				<path class="st15" d="M242.3,288.9c0,0-1.1-4.4-0.7-4.8c0.4-0.4,1.8,1.6,1.8,1.6s0.7-4.5,1.3-5s3,1.9,3.3,3.2
					c0.4,1.3-1.4,6.6-2.2,6.7C245.2,290.7,242.7,291.1,242.3,288.9z"/>
				<path class="st16" d="M216.6,294.2c0,0-5,2.4-2.9,8.6c2.2,6.2,18.2,8.6,20.1,6.7c1.9-1.9,10.3-11.7,12.7-19.1c0,0-1-2.9-4.8-1.7
					c0,0-9.1,11.5-10.5,12.7C229.8,302.6,219,293.7,216.6,294.2z"/>
				<path class="st4" d="M196.2,262.8c0,0,3.5-4.3,9.6-4.7c6.1-0.4,9,1.6,11.4,1.4s4.5,1.8,3.7,4.7c-0.8,2.9-2.5,5.9-6.5,5.9
					c-3.9,0-4.9-0.6-4.9-0.6s3.1,1.4,3.5,4.1s0.4,6.9,0.4,6.9h-1c0,0-0.8-4.5-2.4-4.5c-1.6,0-1.6,4.9-0.2,5.7
					c1.4,0.8,1.4,0.8,1.4,0.8s-2.6,4.9-4.1,5.1c-1.4,0.2-6.1-3.3-6.1-3.3s-7.8-3.7-8.6-9.8C191.7,268.3,196.2,262.8,196.2,262.8z"/>
			</g>
			<g>
				<g>
					<ellipse class="st2" cx="111.2" cy="368.2" rx="32" ry="19"/>
					<g>
						<g>
							<path class="st15" d="M95,316.1c0,0,2.2,13.6,3.9,21.2c0,0,0.4,12.6,0.7,16.9c0.4,4.3,1.4,13.6,1.4,13.6s1.3,1.1,2.7,0.4
								c0,0,1.8-26.7,2.2-31c0.4-4.3,1.6-23.7,1.6-23.7S103.4,309.7,95,316.1z"/>
							<path class="st15" d="M108.5,310.7c0,0,2.2,13.6,3.9,21.2c0,0,0.4,12.6,0.7,16.9c0.4,4.3,1.4,13.6,1.4,13.6s1.3,1.1,2.7,0.4
								c0,0,1.8-26.7,2.2-31c0.4-4.3,0.5-23.5,0.5-23.5S116.9,304.3,108.5,310.7z"/>
							<path class="st18" d="M97.7,297.7c0,0-5.1,5.6-2.2,24.4c0.2,2.7,2,9.6,2,9.6s6.6,1.1,14.5-2c7.9-3,8.1-4.7,8.1-4.7
								s0.4-23.6-1.4-29.7C116.9,289.3,97.7,297.7,97.7,297.7z"/>
							<path class="st3" d="M117.3,361.5c0,0-0.2,1.3,1.3,2.4c1.4,1.1,4.1,3,4.6,4.2c0,0.9-3.4-0.1-4.9-0.9s-3-2.7-3-2.7l0.1,0.8
								c0,0-0.5,0-1-0.4c-0.4-0.4,0.1-3.2,0.1-3.2L117.3,361.5z"/>
							<path class="st3" d="M103.9,367.7c0,0-0.2,1.3,1.3,2.4c1.4,1.1,4.1,3,4.6,4.2c0,0.9-3.4-0.1-4.9-0.9s-3-2.7-3-2.7l0.1,0.8
								c0,0-0.5,0-1-0.4c-0.4-0.4,0.1-3.2,0.1-3.2L103.9,367.7z"/>
						</g>
						<path class="st21" d="M117.1,262c0,0,4.7,0.7,7.7,10.9c1.8,6.7,4.4,7.3,7.5,7.9c3,0.6,15.7,0,16.7,0s2.2,2.2,0.8,3.8
							c-1.4,1.6-19,3.2-22.4,3.2s-11.3-6.5-14.5-11.7C109.6,270.9,112.8,261.6,117.1,262z"/>
						<path class="st4" d="M114.8,236.8c0,0,4.6,5.9,3.6,12.6c-1,6.7-6.9,6.4-7.9,10c-1,3.6,2.8,8.9-2.4,12.3
							c-5.2,3.4-7.7,2.6-9.1,9.9s-6.5,11.1-15.1,11.9c-8.7,0.8-14.7-9.7-12.5-17.3c2.2-7.7,9.9-5.2,11.5-11.5s1-11.2,6.5-13.6
							c5.4-2.4,3.4-11.6,8.9-14.4C103.9,233.8,110.8,232.2,114.8,236.8z"/>
						<g>
							<path class="st16" d="M102.8,260c0,0-10,7.1-11,9.5s-2.4,9.7,0.9,13.4c5.6,6.3,2.2,17,3,20.2c0.7,3.2,8.4,3.6,13.6,2.5
								c5.3-1,10.2-3.7,10-9.9c-0.2-6.2,1.4-14.6,1.8-17.4c0.3-2.8,0-9.7-1.3-14.4c-0.3-1-3.6-2-3.6-2S112.6,259.6,102.8,260z"/>
							<path class="st19" d="M111.4,258.7c0,0,0,0.1,0,0.3c0.1,0.7,0.5,2.6,0.5,3.4c0.1,0.7-0.8,2-2.8,2s-5.5-0.9-6.6-3.3
								c0.1-0.4-0.1-4.9-0.3-7.1L111.4,258.7z"/>
							<path class="st15" d="M117,245.2c-1.1-5.8-5.7-9.1-10.8-7.9c0,0-5.6,0.6-8.1,5.5s1.2,9.1,3.5,11.7c1,1.1,1.7,1.9,2.2,2.4
								c0.2,0.2,0.3,0.4,0.5,0.6l0.1,0.1l0,0c1.6,1.6,3.4,2.5,4.8,2.9c2.3,0.7,4.9,0.3,6.4-1.3C117,257.8,118.1,251,117,245.2z"/>
						</g>
						<path class="st4" d="M118,249.1c0,0-4.1,0.4-6.6-2.4c-2.4-2.8-5.8,0-8.7-2.4c0,0,1.2,3,0,6.1c-1.2,3-1.6,7.7-1.6,7.7l-5.2-8.3
							v-7.3l6.7-6.3l8.9-0.4l4.2,4C115.6,239.9,118.4,246.1,118,249.1z"/>
						<path class="st17" d="M94.9,284.4l12.5,3.9l11.7-3.3c-0.2,0.5-3.3,10-10,11.7c-4.8,1.2-10.5-3-13.3-5.5
							c-0.2-1.7-0.5-3.5-1.2-5.1L94.9,284.4z"/>
						<g>
							<path class="st21" d="M95.5,272.5c0,0-6.7-1.6-3.8,7.5c2.8,9.1,12.3,15.7,15.7,15.3c3.4-0.4,17.3-15.1,17.3-16.9
								s-1.6-3-3.2-2.6s-12.3,11.9-13.3,11.5S100.9,276.4,95.5,272.5z"/>
							<path class="st15" d="M122.8,279.1c0,0-1.9-0.6-1.3-2.6s4.2-3.6,4.8-3.7c0.6-0.1,6,1,6.2,1.7s-1,1-2.3,0.7s-3.3-0.4-3.3-0.4
								s1.4,1.6,1.3,2.2c-0.1,0.7-0.9,2-2,2.6s-2.4-0.7-2.4-0.7L122.8,279.1z"/>
						</g>
						<path class="st20" d="M147.2,281.1c0,0,4.4-3.7,4.6-3.1c0.2,0.7-1.5,2.5-1.5,2.5s5.9-2.3,6-1.5s-3.1,3.2-3.9,3.7
							c-0.8,0.6-3.8,1.4-3.8,1.4S146.9,282,147.2,281.1z"/>
					</g>
				</g>
				<g>
					<path class="st2" d="M127.3,247.7c-1.4,0.8-2.6,2.9-2.6,4.6l0.2,61.8c0,3.9,2.8,5.6,6.2,3.6l36.8-21.3c1.4-0.8,2.6-2.9,2.6-4.6
						l-0.2-61.8c0-3.9-2.8-5.6-6.2-3.6L127.3,247.7z"/>
				</g>
				<g>
					<g>
						<g>
							<path class="st6" d="M132.9,270.1c-0.4,0.2-0.8,0.9-0.8,1.3v3.3c0,0.5,0.4,0.7,0.8,0.4l30-17.3c0.4-0.2,0.8-0.9,0.8-1.4v-3.3
								c0-0.5-0.4-0.7-0.8-0.4L132.9,270.1z"/>
						</g>
						<g>
							<path class="st6" d="M133,277.2c-0.4,0.2-0.8,0.9-0.8,1.4v3.3c0,0.5,0.4,0.7,0.8,0.4l30-17.3c0.4-0.2,0.8-0.9,0.8-1.3v-3.3
								c0-0.5-0.4-0.7-0.8-0.4L133,277.2z"/>
						</g>
					</g>
					<path class="st6" d="M144.7,282.6c-1,0.6-1.9,2-1.8,3.2v0.8c0,1.2,0.8,1.7,1.9,1.1l9.7-5.6c1-0.6,1.9-2,1.9-3.2v-0.8
						c0-1.2-0.8-1.7-1.9-1.1L144.7,282.6z"/>
				</g>
			</g>
		</g>
	</g>
</g>
<path class="st5" d="M256.7,145.6c1.4,1.4,33.8,23.4,33.8,23.4l-7.7,33.3L243,184.9l-5.7-29.5L256.7,145.6z"/>
<path class="st8" d="M272.3,177.9c-1.1,4.6,2.6,7.8,2.6,7.8c-0.1,0.1-1.2,1.9-3.2,3.5c-1.7,1.3-3.5,2.7-5.6,1.8
	c-2-0.8-2.4-2.3-4.7-3.3c-2.3-1-3.3-0.1-5.3-0.8s-3-3.4-3.9-5.8c-1.7-4.9-2-12.6,1.8-16.1c1.9-1.8,4.6-2.3,7.2-1.2
	c2,0.8,3.5,2.9,4.7,3.4s3.9-0.2,6.2,1c1,0.4,3.7,1.9,4.8,5.3C276.9,173.5,273.2,174.1,272.3,177.9 M271.2,165
	c1.4-0.9,2.5-2.4,2.8-4.2c-1.5-0.6-3.6-0.4-5,0.5c-1.3,0.7-2.6,2.2-2.8,4.1C267.9,166.2,269.9,165.9,271.2,165"/>
</svg>
