<?xml version="1.0" encoding="utf-8"?>
<!-- Generator: Adobe Illustrator 16.0.0, SVG Export Plug-In . SVG Version: 6.00 Build 0)  -->
<!DOCTYPE svg PUBLIC "-//W3C//DTD SVG 1.1//EN" "http://www.w3.org/Graphics/SVG/1.1/DTD/svg11.dtd">
<svg version="1.1" id="Layer_1" xmlns="http://www.w3.org/2000/svg" xmlns:xlink="http://www.w3.org/1999/xlink" x="0px" y="0px"
	 width="245.981px" height="59.78px" viewBox="0 0 245.981 59.78" enable-background="new 0 0 245.981 59.78" xml:space="preserve">
<g>
	<polygon fill="#EC1E24" points="222.486,38.833 222.486,47.824 217.663,47.824 217.663,32.727 210.286,32.727 210.286,47.824 
		205.686,47.824 205.686,11.456 198.313,11.456 198.313,54.678 229.862,54.678 229.862,38.833 	"/>
	<polygon fill="#3D59A7" points="241.792,11.322 210.286,11.322 210.286,28.567 217.663,28.567 217.663,19.172 222.486,19.172 
		222.486,34.338 229.862,34.338 229.862,19.172 234.2,19.172 234.2,54.678 241.792,54.678 	"/>
	<g>
		<path fill="#EC1E24" d="M2,16.934h2.327v7.333h8.758v-7.333h2.349v17.43h-2.349v-8.153H4.327v8.153H2V16.934z"/>
		<path fill="#EC1E24" d="M18.946,16.934h12.065v2.108h-9.739v5.271h8.804v1.992h-8.804v5.88h9.99v2.179H18.946V16.934z"/>
		<path fill="#EC1E24" d="M34.135,16.934h6.271c1.263,0,2.369,0.21,3.319,0.632c0.95,0.422,1.74,1.019,2.371,1.792
			c0.633,0.773,1.104,1.698,1.415,2.776c0.312,1.078,0.468,2.272,0.468,3.584c0,1.297-0.164,2.476-0.49,3.538
			c-0.328,1.063-0.818,1.973-1.471,2.73c-0.653,0.757-1.46,1.343-2.418,1.756c-0.958,0.415-2.076,0.621-3.353,0.621h-6.113V16.934z
			 M40.157,32.279c0.957,0,1.778-0.152,2.464-0.457c0.684-0.305,1.242-0.742,1.676-1.312s0.753-1.262,0.957-2.074
			c0.205-0.812,0.308-1.718,0.308-2.717c0-1-0.095-1.914-0.284-2.742c-0.191-0.828-0.495-1.534-0.912-2.12
			c-0.42-0.586-0.962-1.038-1.631-1.359c-0.67-0.32-1.483-0.479-2.441-0.479h-3.809v13.26H40.157L40.157,32.279z"/>
		<path fill="#EC1E24" d="M63.466,31.904h-0.067c-0.608,0.953-1.356,1.662-2.246,2.132c-0.891,0.468-1.891,0.704-3,0.704
			c-1.186,0-2.265-0.225-3.237-0.67c-0.974-0.444-1.811-1.065-2.509-1.861c-0.715-0.796-1.264-1.746-1.643-2.847
			c-0.381-1.101-0.57-2.316-0.57-3.643c0-1.328,0.183-2.55,0.547-3.667c0.365-1.117,0.904-2.089,1.62-2.917
			c0.684-0.796,1.523-1.421,2.521-1.874c0.995-0.453,2.155-0.68,3.477-0.68c1.004,0,1.897,0.133,2.682,0.399
			c0.782,0.265,1.462,0.636,2.041,1.113c0.577,0.476,1.049,1.046,1.414,1.71c0.363,0.664,0.631,1.394,0.798,2.19h-2.417
			c-0.259-0.983-0.753-1.788-1.482-2.412c-0.73-0.625-1.75-0.938-3.058-0.938c-0.988,0-1.848,0.181-2.577,0.54
			c-0.729,0.359-1.33,0.855-1.802,1.487s-0.822,1.382-1.049,2.249c-0.229,0.867-0.343,1.8-0.343,2.8
			c0,1.031,0.141,1.972,0.421,2.823c0.281,0.852,0.673,1.582,1.175,2.191c0.502,0.609,1.103,1.082,1.803,1.417
			c0.699,0.336,1.468,0.503,2.304,0.503c0.835,0,1.568-0.137,2.201-0.41c0.631-0.272,1.151-0.644,1.562-1.113
			c0.41-0.467,0.719-1.01,0.924-1.627c0.205-0.618,0.308-1.269,0.308-1.957v-0.375h-4.928v-2.038h7.231v9.23h-1.482L63.466,31.904z"
			/>
		<path fill="#EC1E24" d="M68.644,16.934h12.063v2.108h-9.738v5.271h8.805v1.992h-8.805v5.88h9.99v2.179H68.644V16.934
			L68.644,16.934z"/>
		<path fill="#EC1E24" d="M83.149,25.509h6.842v2.249h-6.842V25.509z"/>
		<path fill="#3D59A7" d="M99.047,34.716c-1.187,0-2.225-0.157-3.113-0.469c-0.89-0.312-1.635-0.738-2.235-1.277
			c-0.601-0.538-1.061-1.175-1.38-1.909s-0.502-1.515-0.547-2.344h2.303c0.137,1.329,0.624,2.339,1.46,3.035
			c0.837,0.694,2.029,1.042,3.581,1.042c0.562,0,1.082-0.066,1.563-0.199c0.479-0.132,0.889-0.328,1.23-0.585
			c0.344-0.258,0.612-0.582,0.81-0.972c0.198-0.391,0.297-0.851,0.297-1.382c0-0.563-0.117-1.03-0.353-1.405
			c-0.236-0.375-0.571-0.688-1.004-0.938c-0.434-0.25-0.95-0.46-1.551-0.633c-0.601-0.172-1.273-0.343-2.02-0.515
			c-0.76-0.156-1.479-0.343-2.154-0.563c-0.677-0.218-1.272-0.511-1.79-0.878c-0.517-0.367-0.924-0.824-1.222-1.37
			c-0.295-0.546-0.444-1.241-0.444-2.085c0-0.733,0.145-1.39,0.433-1.967c0.29-0.578,0.693-1.066,1.21-1.464
			c0.518-0.398,1.135-0.703,1.858-0.913c0.723-0.211,1.517-0.317,2.384-0.317c1.049,0,1.954,0.129,2.713,0.387
			c0.762,0.258,1.403,0.613,1.929,1.066c0.524,0.453,0.931,0.992,1.22,1.616c0.289,0.625,0.486,1.313,0.593,2.062h-2.258
			c-0.152-1.062-0.585-1.871-1.301-2.425c-0.714-0.554-1.672-0.832-2.873-0.832c-1.126,0-2.022,0.227-2.691,0.679
			c-0.67,0.454-1.003,1.117-1.003,1.991c0,0.469,0.109,0.864,0.33,1.184c0.22,0.32,0.523,0.59,0.913,0.808
			c0.387,0.219,0.851,0.403,1.391,0.55c0.539,0.149,1.129,0.294,1.767,0.434c0.821,0.172,1.608,0.367,2.362,0.586
			c0.751,0.218,1.421,0.527,2.006,0.925c0.585,0.398,1.05,0.909,1.392,1.535c0.343,0.625,0.514,1.421,0.514,2.39
			c0,0.828-0.157,1.561-0.469,2.202c-0.312,0.64-0.749,1.179-1.312,1.617c-0.563,0.437-1.23,0.769-2.007,0.995
			C100.802,34.604,99.959,34.716,99.047,34.716z"/>
		<path fill="#3D59A7" d="M120.121,33.614c-0.609,0.36-1.272,0.638-1.996,0.832c-0.723,0.195-1.493,0.294-2.314,0.294
			c-1.277,0-2.43-0.232-3.455-0.693c-1.027-0.459-1.901-1.096-2.624-1.909c-0.721-0.812-1.273-1.772-1.653-2.881
			c-0.38-1.108-0.569-2.312-0.569-3.608c0-1.312,0.189-2.522,0.569-3.631c0.38-1.109,0.933-2.065,1.653-2.87
			c0.723-0.804,1.597-1.437,2.624-1.898c1.025-0.46,2.178-0.69,3.455-0.69s2.429,0.23,3.455,0.69
			c1.025,0.461,1.897,1.094,2.611,1.898c0.714,0.805,1.267,1.761,1.653,2.87c0.388,1.109,0.582,2.32,0.582,3.631
			c0,1.39-0.217,2.663-0.65,3.819c-0.434,1.156-1.053,2.148-1.859,2.975l2.441,2.015l-1.162,1.452L120.121,33.614z M115.81,32.677
			c0.941,0,1.786-0.179,2.532-0.538l-2.19-1.827l1.14-1.453l2.601,2.155c0.594-0.64,1.046-1.417,1.357-2.331
			c0.311-0.914,0.468-1.925,0.468-3.035c0-0.999-0.127-1.928-0.376-2.788c-0.253-0.859-0.627-1.601-1.129-2.226
			c-0.503-0.625-1.123-1.117-1.86-1.476s-1.585-0.539-2.542-0.539c-0.959,0-1.807,0.18-2.544,0.539
			c-0.736,0.359-1.356,0.852-1.858,1.476s-0.882,1.367-1.142,2.226c-0.257,0.859-0.387,1.789-0.387,2.788
			c0,1,0.13,1.925,0.387,2.776c0.26,0.853,0.64,1.594,1.142,2.226c0.502,0.633,1.122,1.129,1.858,1.488
			C114.006,32.498,114.851,32.677,115.81,32.677z"/>
		<path fill="#3D59A7" d="M133.235,34.622c-0.958,0-1.836-0.114-2.635-0.339c-0.798-0.228-1.486-0.578-2.063-1.055
			c-0.578-0.476-1.03-1.09-1.357-1.84c-0.327-0.75-0.49-1.647-0.49-2.694v-11.76h2.326v11.549c0,1.438,0.369,2.48,1.105,3.128
			c0.739,0.649,1.792,0.972,3.159,0.972c1.323,0,2.35-0.323,3.08-0.972c0.73-0.647,1.095-1.69,1.095-3.128V16.934h2.326v11.76
			c0,1.047-0.168,1.944-0.502,2.694c-0.335,0.75-0.795,1.363-1.38,1.84c-0.586,0.477-1.277,0.828-2.076,1.055
			C135.026,34.508,134.162,34.622,133.235,34.622z"/>
		<path fill="#3D59A7" d="M147.558,16.934h2.6l6.25,17.43h-2.555l-1.688-5.084h-6.684l-1.731,5.084h-2.396L147.558,16.934z
			 M146.121,27.406h5.429l-1.619-4.873c-0.152-0.422-0.29-0.851-0.411-1.289c-0.121-0.437-0.228-0.835-0.318-1.195
			c-0.107-0.406-0.206-0.812-0.297-1.219h-0.068c-0.105,0.407-0.213,0.821-0.32,1.242c-0.105,0.359-0.22,0.758-0.342,1.195
			c-0.121,0.437-0.25,0.859-0.387,1.265L146.121,27.406z"/>
		<path fill="#3D59A7" d="M158.597,16.934h7.938c0.761,0,1.451,0.113,2.076,0.34c0.621,0.227,1.158,0.55,1.606,0.972
			c0.449,0.421,0.795,0.93,1.039,1.522c0.242,0.594,0.364,1.25,0.364,1.968c0,1.062-0.236,1.964-0.708,2.706
			c-0.471,0.741-1.269,1.292-2.395,1.651v0.07c0.472,0.141,0.867,0.329,1.186,0.563c0.319,0.234,0.579,0.519,0.776,0.855
			c0.198,0.336,0.347,0.738,0.444,1.207c0.1,0.469,0.172,1.015,0.216,1.639c0.047,0.688,0.102,1.262,0.162,1.723
			c0.059,0.461,0.12,0.835,0.182,1.124c0.06,0.29,0.125,0.507,0.193,0.656c0.069,0.149,0.148,0.254,0.239,0.316v0.117h-2.486
			c-0.091-0.078-0.167-0.194-0.228-0.352c-0.062-0.156-0.113-0.383-0.16-0.679c-0.046-0.297-0.083-0.676-0.113-1.137
			s-0.069-1.042-0.114-1.745c-0.076-1.234-0.38-2.101-0.912-2.601c-0.533-0.5-1.354-0.75-2.464-0.75h-4.516v7.264h-2.326V16.934
			L158.597,16.934z M160.924,25.18h4.859c1.154,0,2.018-0.277,2.587-0.832c0.57-0.554,0.856-1.307,0.856-2.26
			c0-1.031-0.256-1.804-0.765-2.32c-0.511-0.515-1.363-0.773-2.566-0.773h-4.972V25.18L160.924,25.18z"/>
		<path fill="#3D59A7" d="M174.562,16.934h12.066v2.108h-9.738v5.271h8.803v1.992h-8.803v5.88h9.988v2.179h-12.316V16.934
			L174.562,16.934z"/>
	</g>
	<g>
		<path fill="#231F20" d="M44.28,42.398h3.369c0.808,0,1.434,0.227,1.876,0.68c0.161,0.176,0.289,0.377,0.384,0.607
			c0.095,0.231,0.143,0.492,0.143,0.789c0,0.439-0.116,0.801-0.347,1.082c-0.233,0.281-0.561,0.482-0.98,0.605v0.031
			c0.238,0.061,0.458,0.141,0.658,0.25c0.199,0.107,0.374,0.244,0.521,0.406c0.147,0.16,0.26,0.35,0.342,0.563
			c0.081,0.213,0.122,0.451,0.122,0.719c0,0.326-0.053,0.619-0.159,0.883c-0.105,0.264-0.252,0.492-0.441,0.686
			c-0.225,0.238-0.503,0.422-0.833,0.553c-0.33,0.129-0.705,0.195-1.126,0.195H44.28V42.398z M47.503,45.828
			c0.463,0,0.822-0.109,1.079-0.33c0.258-0.221,0.385-0.535,0.385-0.947c0-0.381-0.116-0.678-0.353-0.887
			c-0.235-0.209-0.563-0.313-0.985-0.313h-2.273v2.478H47.503z M47.746,49.475c0.525,0,0.918-0.135,1.18-0.4
			c0.23-0.225,0.347-0.527,0.347-0.91c0-0.482-0.149-0.844-0.447-1.082s-0.681-0.357-1.142-0.357h-2.328v2.75H47.746z"/>
		<path fill="#231F20" d="M56.392,50.609c-0.436,0-0.823-0.08-1.164-0.238s-0.631-0.377-0.868-0.654
			c-0.24-0.279-0.421-0.602-0.543-0.973c-0.123-0.371-0.185-0.771-0.185-1.197c0-0.416,0.064-0.813,0.195-1.184
			c0.13-0.373,0.312-0.695,0.548-0.973c0.234-0.279,0.519-0.496,0.853-0.656c0.334-0.158,0.704-0.236,1.111-0.236
			c0.421,0,0.792,0.078,1.115,0.236c0.322,0.16,0.598,0.379,0.821,0.66c0.231,0.287,0.405,0.635,0.521,1.039
			c0.117,0.404,0.174,0.855,0.174,1.352h-4.34c0.021,0.283,0.075,0.545,0.159,0.791c0.085,0.244,0.199,0.457,0.347,0.637
			c0.147,0.182,0.326,0.32,0.537,0.422c0.213,0.102,0.453,0.152,0.728,0.152c0.393,0,0.717-0.088,0.975-0.266
			c0.256-0.176,0.429-0.42,0.521-0.729h0.956c-0.125,0.541-0.403,0.977-0.837,1.314C57.587,50.441,57.045,50.609,56.392,50.609z
			 M56.34,45.277c-0.254,0-0.478,0.043-0.675,0.135c-0.196,0.09-0.365,0.215-0.506,0.373c-0.14,0.158-0.253,0.346-0.337,0.561
			c-0.085,0.217-0.142,0.457-0.169,0.715h3.275c-0.027-0.563-0.178-1-0.448-1.314C57.21,45.434,56.829,45.277,56.34,45.277z"/>
		<path fill="#231F20" d="M63.016,52.469c-0.163,0-0.322-0.01-0.479-0.031c-0.159-0.021-0.277-0.051-0.354-0.086v-0.865h0.042
			c0.057,0.035,0.139,0.063,0.248,0.082c0.108,0.018,0.222,0.027,0.341,0.027c0.198,0,0.361-0.049,0.496-0.146
			c0.133-0.098,0.25-0.283,0.348-0.559c0-0.006,0.01-0.045,0.031-0.113s0.046-0.146,0.073-0.232c0.028-0.086,0.053-0.17,0.074-0.248
			c0.02-0.08,0.026-0.127,0.02-0.141L61.7,44.639h1.063l1.17,3.223c0.056,0.168,0.112,0.34,0.169,0.52
			c0.055,0.182,0.109,0.352,0.157,0.51c0.049,0.188,0.098,0.367,0.147,0.541h0.021c0.049-0.174,0.102-0.354,0.158-0.541
			c0.049-0.158,0.102-0.328,0.158-0.51c0.056-0.18,0.111-0.352,0.168-0.52l1.127-3.223h1.021l-2.401,6.338
			c-0.119,0.303-0.236,0.551-0.354,0.748c-0.115,0.193-0.237,0.346-0.368,0.459c-0.13,0.111-0.271,0.188-0.421,0.227
			C63.365,52.451,63.199,52.469,63.016,52.469z"/>
		<path fill="#231F20" d="M72.557,50.609c-0.429,0-0.812-0.08-1.153-0.238c-0.341-0.158-0.63-0.377-0.869-0.654
			c-0.238-0.279-0.422-0.602-0.552-0.973c-0.131-0.371-0.195-0.771-0.195-1.197c0-0.416,0.064-0.813,0.195-1.184
			c0.13-0.373,0.313-0.695,0.552-0.973c0.239-0.279,0.529-0.496,0.869-0.656c0.342-0.158,0.725-0.236,1.153-0.236
			s0.811,0.078,1.149,0.236c0.335,0.16,0.624,0.377,0.863,0.656c0.238,0.277,0.421,0.602,0.548,0.973s0.189,0.768,0.189,1.184
			c0,0.426-0.063,0.826-0.189,1.197s-0.31,0.693-0.548,0.973c-0.239,0.277-0.528,0.496-0.863,0.654
			C73.368,50.529,72.986,50.609,72.557,50.609z M72.547,49.787c0.289,0,0.543-0.059,0.765-0.174
			c0.221-0.115,0.406-0.273,0.552-0.477c0.148-0.201,0.259-0.436,0.332-0.709c0.074-0.268,0.111-0.564,0.111-0.881
			c0-0.309-0.037-0.602-0.111-0.877c-0.073-0.271-0.184-0.514-0.332-0.717c-0.146-0.207-0.331-0.367-0.552-0.482
			c-0.222-0.117-0.476-0.174-0.765-0.174c-0.287,0-0.541,0.057-0.763,0.174c-0.222,0.115-0.405,0.275-0.553,0.482
			c-0.148,0.203-0.259,0.445-0.332,0.717c-0.074,0.275-0.11,0.568-0.11,0.877c0,0.316,0.036,0.613,0.11,0.881
			c0.072,0.271,0.184,0.508,0.332,0.709c0.147,0.203,0.332,0.363,0.553,0.477C72.005,49.729,72.26,49.787,72.547,49.787z"/>
		<path fill="#231F20" d="M79.73,45.461h0.031c0.204-0.297,0.448-0.531,0.737-0.705c0.288-0.174,0.64-0.258,1.053-0.258
			c0.598,0,1.064,0.162,1.401,0.486c0.338,0.324,0.506,0.793,0.506,1.404v4.059H82.49V46.51c0-0.375-0.111-0.664-0.332-0.865
			c-0.221-0.203-0.525-0.305-0.911-0.305c-0.218,0-0.421,0.039-0.605,0.115c-0.186,0.074-0.347,0.182-0.479,0.318
			s-0.236,0.303-0.31,0.498c-0.074,0.195-0.111,0.406-0.111,0.639v3.537h-0.979v-5.809h0.969V45.461L79.73,45.461z"/>
		<path fill="#231F20" d="M89.377,50.619c-0.379,0-0.723-0.07-1.032-0.215c-0.308-0.145-0.571-0.348-0.789-0.611
			s-0.385-0.586-0.5-0.963c-0.115-0.379-0.174-0.803-0.174-1.271c0-0.477,0.063-0.904,0.189-1.281
			c0.126-0.379,0.3-0.699,0.522-0.963c0.221-0.264,0.481-0.465,0.783-0.605c0.303-0.141,0.629-0.211,0.98-0.211
			c0.4,0,0.753,0.094,1.058,0.279c0.307,0.189,0.55,0.438,0.733,0.748h0.02c-0.013-0.131-0.021-0.293-0.024-0.486
			c-0.004-0.195-0.006-0.391-0.006-0.586v-2.055h0.979v8.049h-0.969v-0.832h-0.021c-0.183,0.316-0.421,0.563-0.713,0.74
			C90.124,50.531,89.778,50.619,89.377,50.619z M89.45,49.787c0.304,0,0.562-0.055,0.779-0.168c0.219-0.111,0.4-0.266,0.543-0.465
			c0.144-0.197,0.249-0.434,0.316-0.703c0.066-0.27,0.1-0.566,0.1-0.881c0-0.326-0.036-0.625-0.11-0.898s-0.186-0.51-0.333-0.709
			c-0.146-0.199-0.33-0.352-0.547-0.459c-0.218-0.109-0.467-0.164-0.748-0.164c-0.26,0-0.488,0.057-0.684,0.17
			c-0.198,0.111-0.361,0.266-0.49,0.465c-0.131,0.197-0.229,0.434-0.296,0.707c-0.066,0.275-0.101,0.57-0.101,0.889
			c0,0.316,0.034,0.611,0.101,0.881c0.067,0.271,0.165,0.506,0.296,0.703c0.129,0.199,0.292,0.354,0.49,0.465
			C88.963,49.732,89.192,49.787,89.45,49.787z"/>
		<path fill="#231F20" d="M104.616,50.609c-0.561,0-1.068-0.105-1.521-0.314c-0.452-0.209-0.841-0.498-1.157-0.869
			c-0.32-0.373-0.568-0.814-0.744-1.326s-0.263-1.07-0.263-1.678c0-0.59,0.085-1.143,0.253-1.654s0.412-0.955,0.731-1.33
			s0.71-0.672,1.168-0.888c0.46-0.216,0.982-0.325,1.565-0.325c0.463,0,0.876,0.064,1.238,0.191c0.359,0.125,0.675,0.301,0.94,0.523
			c0.281,0.23,0.504,0.508,0.67,0.828c0.164,0.32,0.274,0.676,0.331,1.064h-1.074c-0.09-0.496-0.316-0.896-0.679-1.194
			c-0.362-0.3-0.846-0.449-1.448-0.449c-0.415,0-0.782,0.081-1.105,0.243s-0.596,0.387-0.817,0.676
			c-0.221,0.289-0.388,0.631-0.505,1.029c-0.116,0.396-0.174,0.824-0.174,1.285c0,0.484,0.062,0.924,0.184,1.32
			c0.125,0.398,0.299,0.736,0.527,1.018c0.229,0.281,0.504,0.5,0.827,0.654c0.323,0.156,0.681,0.232,1.073,0.232
			c0.359,0,0.67-0.057,0.933-0.172s0.484-0.271,0.663-0.467c0.18-0.193,0.319-0.42,0.421-0.678c0.101-0.254,0.163-0.525,0.185-0.816
			h1.074c0,0.205-0.023,0.408-0.068,0.613c-0.046,0.203-0.111,0.406-0.194,0.6c-0.085,0.195-0.182,0.379-0.296,0.559
			c-0.112,0.176-0.238,0.334-0.378,0.471C106.421,50.324,105.635,50.609,104.616,50.609z"/>
		<path fill="#231F20" d="M113.927,50.609c-0.429,0-0.813-0.08-1.153-0.238s-0.63-0.377-0.869-0.654
			c-0.238-0.279-0.422-0.602-0.553-0.973c-0.13-0.371-0.194-0.771-0.194-1.197c0-0.416,0.064-0.813,0.194-1.184
			c0.131-0.373,0.314-0.695,0.553-0.973c0.239-0.279,0.528-0.496,0.869-0.656c0.341-0.158,0.725-0.236,1.153-0.236
			c0.428,0,0.811,0.078,1.148,0.236c0.336,0.16,0.625,0.377,0.863,0.656c0.239,0.277,0.421,0.602,0.548,0.973s0.19,0.768,0.19,1.184
			c0,0.426-0.063,0.826-0.19,1.197s-0.309,0.693-0.548,0.973c-0.238,0.277-0.527,0.496-0.863,0.654
			C114.737,50.529,114.354,50.609,113.927,50.609z M113.916,49.787c0.289,0,0.541-0.059,0.764-0.174
			c0.221-0.115,0.405-0.273,0.553-0.477c0.147-0.201,0.259-0.436,0.333-0.709c0.072-0.268,0.11-0.564,0.11-0.881
			c0-0.309-0.036-0.602-0.11-0.877c-0.074-0.271-0.186-0.514-0.333-0.717c-0.147-0.207-0.332-0.367-0.553-0.482
			c-0.223-0.117-0.475-0.174-0.764-0.174c-0.288,0-0.542,0.057-0.763,0.174c-0.224,0.115-0.406,0.275-0.554,0.482
			c-0.149,0.203-0.258,0.445-0.333,0.717c-0.072,0.275-0.108,0.568-0.108,0.877c0,0.316,0.036,0.613,0.108,0.881
			c0.075,0.271,0.184,0.508,0.333,0.709c0.147,0.203,0.331,0.363,0.554,0.477C113.373,49.729,113.628,49.787,113.916,49.787z"/>
		<path fill="#231F20" d="M121.098,45.461h0.032c0.204-0.297,0.448-0.531,0.738-0.705c0.287-0.174,0.639-0.258,1.053-0.258
			c0.597,0,1.063,0.162,1.4,0.486s0.506,0.793,0.506,1.404v4.059h-0.969V46.51c0-0.375-0.11-0.664-0.332-0.865
			c-0.222-0.203-0.525-0.305-0.912-0.305c-0.217,0-0.418,0.039-0.604,0.115c-0.186,0.074-0.345,0.182-0.479,0.318
			c-0.133,0.137-0.236,0.303-0.31,0.498c-0.075,0.195-0.112,0.406-0.112,0.639v3.537h-0.979v-5.809h0.968V45.461L121.098,45.461z"/>
		<path fill="#231F20" d="M130.725,50.619c-0.787,0-1.393-0.174-1.823-0.525c-0.428-0.35-0.663-0.82-0.705-1.41h0.99
			c0.027,0.209,0.087,0.385,0.18,0.529c0.09,0.145,0.204,0.26,0.341,0.346c0.139,0.086,0.294,0.15,0.469,0.189
			c0.177,0.041,0.365,0.061,0.569,0.061c0.449,0,0.775-0.09,0.974-0.266c0.201-0.178,0.3-0.395,0.3-0.654
			c0-0.316-0.12-0.539-0.363-0.666c-0.241-0.127-0.612-0.24-1.11-0.34c-0.275-0.059-0.538-0.123-0.796-0.195
			c-0.256-0.072-0.481-0.17-0.674-0.293c-0.192-0.121-0.349-0.285-0.463-0.486c-0.117-0.201-0.174-0.463-0.174-0.779
			c0-0.498,0.18-0.893,0.542-1.184c0.363-0.293,0.873-0.438,1.533-0.438c0.708,0,1.246,0.154,1.611,0.465
			c0.365,0.309,0.579,0.715,0.642,1.221h-0.979c-0.043-0.303-0.167-0.533-0.373-0.691c-0.208-0.158-0.515-0.238-0.923-0.238
			c-0.386,0-0.664,0.08-0.838,0.238c-0.171,0.158-0.257,0.35-0.257,0.572c0,0.15,0.033,0.275,0.101,0.373
			c0.065,0.1,0.164,0.18,0.294,0.244c0.131,0.064,0.288,0.119,0.474,0.162c0.187,0.045,0.4,0.09,0.639,0.141
			c0.28,0.059,0.547,0.123,0.801,0.195c0.252,0.072,0.476,0.174,0.668,0.303c0.193,0.129,0.346,0.301,0.457,0.514
			c0.114,0.213,0.169,0.488,0.169,0.828c0,0.295-0.055,0.555-0.169,0.777c-0.111,0.225-0.268,0.41-0.467,0.559
			c-0.2,0.146-0.441,0.26-0.723,0.334C131.359,50.582,131.055,50.619,130.725,50.619z"/>
		<path fill="#231F20" d="M140.078,50.447v-0.813h-0.022c-0.203,0.289-0.437,0.518-0.7,0.688c-0.263,0.17-0.599,0.254-1.006,0.254
			c-0.59,0-1.057-0.168-1.4-0.508s-0.516-0.814-0.516-1.43v-4h0.979v3.947c0,0.369,0.107,0.656,0.321,0.861
			c0.213,0.205,0.518,0.307,0.911,0.307c0.218,0,0.415-0.039,0.59-0.119c0.174-0.08,0.325-0.189,0.446-0.328
			c0.123-0.141,0.218-0.311,0.284-0.504c0.067-0.195,0.102-0.404,0.102-0.629v-3.535h0.979v5.809H140.078L140.078,50.447z"/>
		<path fill="#231F20" d="M144.847,42.398h0.98v8.049h-0.98V42.398z"/>
		<path fill="#231F20" d="M149.271,44.639h0.884V42.81h0.97v1.829h1.168v0.777h-1.168v3.668c0,0.209,0.051,0.352,0.153,0.428
			c0.102,0.076,0.242,0.113,0.426,0.113c0.085,0,0.175-0.01,0.269-0.027c0.095-0.018,0.17-0.033,0.227-0.049h0.033v0.844
			c-0.269,0.066-0.532,0.098-0.791,0.098c-0.38-0.008-0.689-0.1-0.928-0.275c-0.238-0.178-0.358-0.479-0.358-0.904v-3.895h-0.884
			V44.639L149.271,44.639z"/>
		<path fill="#231F20" d="M157.414,50.566c-0.269,0-0.519-0.035-0.755-0.104c-0.233-0.068-0.438-0.17-0.61-0.309
			c-0.172-0.137-0.307-0.307-0.405-0.514c-0.1-0.205-0.148-0.447-0.148-0.73c0-0.338,0.06-0.615,0.174-0.832
			c0.116-0.217,0.281-0.389,0.495-0.52s0.471-0.23,0.771-0.303c0.297-0.072,0.629-0.129,0.994-0.174
			c0.21-0.021,0.399-0.049,0.568-0.086c0.168-0.035,0.313-0.084,0.432-0.146c0.12-0.061,0.211-0.139,0.273-0.232
			c0.063-0.094,0.096-0.215,0.096-0.367c0-0.316-0.104-0.568-0.311-0.746c-0.208-0.182-0.508-0.271-0.9-0.271
			c-0.45,0-0.785,0.1-1.006,0.303c-0.222,0.203-0.339,0.477-0.353,0.824h-0.948c0.007-0.246,0.06-0.48,0.158-0.703
			c0.099-0.225,0.242-0.422,0.431-0.596c0.19-0.174,0.428-0.311,0.712-0.412s0.615-0.15,0.996-0.15c0.266,0,0.516,0.025,0.747,0.074
			c0.232,0.051,0.438,0.131,0.622,0.238c0.238,0.145,0.423,0.348,0.558,0.605c0.134,0.26,0.2,0.584,0.2,0.973v2.717
			c0,0.23,0.04,0.404,0.116,0.52c0.078,0.115,0.239,0.145,0.484,0.086h0.042v0.703c-0.07,0.023-0.146,0.043-0.227,0.061
			s-0.181,0.027-0.3,0.027c-0.302,0-0.53-0.076-0.684-0.223c-0.155-0.146-0.262-0.377-0.316-0.688h-0.01
			c-0.092,0.129-0.197,0.252-0.316,0.369c-0.119,0.113-0.257,0.217-0.41,0.307c-0.153,0.092-0.328,0.162-0.521,0.217
			C157.869,50.537,157.651,50.566,157.414,50.566z M157.655,49.83c0.281,0,0.523-0.047,0.731-0.146
			c0.207-0.096,0.379-0.219,0.518-0.367c0.137-0.148,0.237-0.311,0.305-0.492c0.065-0.18,0.099-0.354,0.099-0.52v-0.951
			c-0.141,0.094-0.324,0.174-0.553,0.244c-0.229,0.066-0.458,0.123-0.689,0.166c-0.233,0.045-0.442,0.088-0.632,0.137
			c-0.19,0.047-0.352,0.111-0.484,0.193c-0.135,0.084-0.237,0.188-0.312,0.313c-0.073,0.129-0.11,0.293-0.11,0.494
			c0,0.188,0.031,0.342,0.096,0.459c0.062,0.119,0.146,0.215,0.252,0.287c0.106,0.072,0.227,0.119,0.363,0.146
			C157.375,49.818,157.513,49.83,157.655,49.83z"/>
		<path fill="#231F20" d="M165.027,45.461h0.033c0.202-0.297,0.447-0.531,0.736-0.705c0.288-0.174,0.639-0.258,1.053-0.258
			c0.597,0,1.063,0.162,1.4,0.486c0.336,0.324,0.506,0.793,0.506,1.404v4.059h-0.97V46.51c0-0.375-0.11-0.664-0.332-0.865
			c-0.22-0.203-0.525-0.305-0.911-0.305c-0.218,0-0.418,0.039-0.604,0.115c-0.186,0.074-0.346,0.182-0.479,0.318
			c-0.134,0.137-0.237,0.303-0.311,0.498c-0.074,0.195-0.112,0.406-0.112,0.639v3.537h-0.979v-5.809h0.969V45.461z"/>
		<path fill="#231F20" d="M174.938,50.609c-0.423,0-0.804-0.08-1.143-0.238c-0.342-0.158-0.632-0.377-0.869-0.654
			c-0.239-0.279-0.424-0.602-0.554-0.973c-0.129-0.371-0.195-0.771-0.195-1.197c0-0.416,0.066-0.813,0.195-1.184
			c0.131-0.373,0.314-0.695,0.554-0.973c0.237-0.279,0.527-0.496,0.869-0.656c0.339-0.158,0.72-0.236,1.143-0.236
			c0.68,0,1.233,0.182,1.658,0.547c0.424,0.363,0.687,0.859,0.784,1.486h-0.979c-0.07-0.381-0.229-0.682-0.474-0.898
			c-0.246-0.215-0.575-0.324-0.989-0.324c-0.29,0-0.544,0.059-0.765,0.174c-0.222,0.115-0.405,0.273-0.553,0.477
			s-0.259,0.439-0.332,0.713s-0.111,0.566-0.111,0.877c0,0.316,0.038,0.611,0.111,0.881c0.073,0.271,0.185,0.508,0.332,0.709
			s0.331,0.361,0.553,0.477c0.221,0.113,0.475,0.174,0.765,0.174c0.44,0,0.79-0.125,1.048-0.375c0.256-0.248,0.4-0.59,0.436-1.021
			h0.97c-0.063,0.699-0.307,1.244-0.732,1.633C176.234,50.414,175.661,50.609,174.938,50.609z"/>
		<path fill="#231F20" d="M181.488,52.469c-0.162,0-0.321-0.01-0.479-0.031c-0.158-0.021-0.276-0.051-0.354-0.086v-0.865h0.042
			c0.056,0.035,0.14,0.063,0.249,0.082c0.108,0.018,0.222,0.027,0.341,0.027c0.197,0,0.362-0.049,0.496-0.146
			c0.133-0.098,0.248-0.283,0.349-0.559c0-0.006,0.01-0.045,0.029-0.113c0.022-0.068,0.046-0.146,0.074-0.232
			s0.053-0.17,0.075-0.248c0.02-0.08,0.026-0.127,0.02-0.141l-2.158-5.518h1.063l1.171,3.223c0.056,0.168,0.111,0.34,0.168,0.52
			c0.057,0.182,0.109,0.352,0.157,0.51c0.05,0.188,0.099,0.367,0.147,0.541h0.021c0.05-0.174,0.103-0.354,0.158-0.541
			c0.049-0.158,0.102-0.328,0.157-0.51c0.058-0.18,0.113-0.352,0.169-0.52l1.128-3.223h1.021l-2.4,6.34
			c-0.12,0.303-0.238,0.551-0.354,0.746s-0.238,0.348-0.368,0.459c-0.13,0.113-0.271,0.188-0.421,0.229
			C181.838,52.451,181.671,52.469,181.488,52.469z"/>
	</g>
</g>
</svg>
