<?xml version="1.0" encoding="utf-8"?>
<!-- Generator: Adobe Illustrator 16.0.0, SVG Export Plug-In . SVG Version: 6.00 Build 0)  -->
<!DOCTYPE svg PUBLIC "-//W3C//DTD SVG 1.1//EN" "http://www.w3.org/Graphics/SVG/1.1/DTD/svg11.dtd">
<svg version="1.1" id="Capa_1" xmlns="http://www.w3.org/2000/svg" xmlns:xlink="http://www.w3.org/1999/xlink" x="0px" y="0px"
	 width="117.539px" height="93.089px" viewBox="3.789 -17.421 117.539 93.089"
	 enable-background="new 3.789 -17.421 117.539 93.089" xml:space="preserve">
<path fill-rule="evenodd" clip-rule="evenodd" fill="#BC72C9" d="M6.865,31.15c0.094-0.947,0.161-1.898,0.286-2.842
	c0.607-4.601,2.055-8.941,4.276-12.999C16.57,5.919,24.286-0.438,34.539-3.463C44.969-6.542,54.997-5.26,64.5,0.084
	c4.451,2.504,8.148,5.863,11.369,9.786c0.083,0.101,0.152,0.213,0.257,0.36c-1.624,0.939-3.226,1.865-4.86,2.811
	c-0.896-0.902-1.776-1.777-2.644-2.663c-5.199-5.309-11.55-8.365-18.854-9.359c-2.349-0.319-4.777-0.195-7.16-0.096
	c-12.224,0.511-26.143,9.933-29.341,25.916c-2.305,11.515,0.731,21.674,9.081,30.094c5.202,5.244,11.537,8.274,18.815,9.192
	c8.972,1.131,17.176-1.029,24.302-6.613c5.546-4.346,9.588-9.861,11.444-16.774c1.87-6.964,1.733-13.879-0.726-20.704
	c-0.117-0.323-0.178-0.67-0.323-0.979c-0.249-0.53-0.136-0.88,0.387-1.162c0.587-0.317,1.138-0.704,1.716-1.039
	c0.809-0.469,1.629-0.918,2.523-1.421c0.246,0.569,0.512,1.095,0.707,1.646c0.971,2.74,1.885,5.501,2.298,8.389
	c0.479,3.346,0.56,6.721,0.247,10.081c-1.496,16.059-13.574,29.549-28.935,33.472c-3.218,0.822-6.455,0.959-9.729,0.935
	c-2.718-0.019-5.435-0.04-8.101-0.684c-7.396-1.785-13.769-5.329-19.109-10.795c-5.496-5.627-9.016-12.243-10.462-19.96
	c-0.217-1.163-0.287-2.352-0.426-3.528c-0.035-0.3-0.074-0.601-0.111-0.899C6.865,34.442,6.865,32.797,6.865,31.15z"/>
<path fill-rule="evenodd" clip-rule="evenodd" fill="#BC72C9" d="M119.407,0.259c-4.951,2.852-9.906,5.699-14.85,8.565
	c-0.467,0.271-0.847,0.299-1.318,0.027c-1.738-1.002-3.497-1.967-5.238-2.966c-0.299-0.172-0.515-0.189-0.825-0.01
	c-14.623,8.465-29.252,16.92-43.881,25.378c-0.174,0.101-0.334,0.228-0.621,0.425c0.442,0.16,0.753,0.281,1.07,0.384
	c1.089,0.354,2.198,0.654,3.267,1.06c1.687,0.642,1.474,2.52,0.572,3.393c-0.432,0.418-0.92,0.618-1.513,0.458
	c-3.282-0.881-6.577-1.723-9.84-2.674c-1.957-0.571-2.196-1.045-1.703-3.02c0.727-2.909,1.524-5.8,2.304-8.694
	c0.104-0.384,0.266-0.758,0.439-1.118c0.503-1.046,1.33-1.359,2.54-0.986c0.817,0.252,1.376,1.198,1.182,2.172
	c-0.247,1.235-0.579,2.453-0.871,3.68c-0.051,0.214-0.085,0.433-0.151,0.774c0.762-0.421,1.414-0.77,2.055-1.138
	c14.163-8.153,28.325-16.31,42.493-24.456c0.329-0.189,0.427-0.404,0.436-0.769c0.056-2.161,0.132-4.322,0.225-6.482
	c0.008-0.187,0.136-0.449,0.289-0.537c4.963-2.872,9.936-5.728,14.908-8.583c0.03-0.018,0.072-0.017,0.204-0.044
	c0.069,0.583,0.178,1.157,0.198,1.733c0.089,2.524,0.167,5.048,0.209,7.572c0.008,0.466,0.165,0.7,0.55,0.932
	c2.633,1.587,5.248,3.201,7.87,4.807C119.407,0.182,119.407,0.221,119.407,0.259z"/>
<path fill-rule="evenodd" clip-rule="evenodd" fill="#BC72C9" d="M65.115,16.439c-0.188,0.13-0.351,0.259-0.528,0.363
	c-1.979,1.159-3.974,2.293-5.935,3.483c-0.56,0.339-0.929,0.23-1.424-0.119c-1.341-0.943-2.639-2.015-4.112-2.692
	c-10.878-4.997-22.811,1.257-25.138,12.124c-2.118,9.898,3.476,17.634,10.801,20.569c10.153,4.069,21.796-2.086,24.039-12.729
	c0.576-2.733,0.494-5.52-0.09-8.267c-0.279-1.317-0.311-1.325,0.833-1.987c1.537-0.892,3.087-1.763,4.636-2.636
	c0.266-0.15,0.544-0.281,0.826-0.398c0.657-0.274,0.752-0.228,0.993,0.456c5.269,14.946-3.607,31.671-20.013,34.68
	c-13.851,2.539-27.37-6.471-30.191-20.248c-2.683-13.102,4.211-23.984,13.837-28.86c4.386-2.221,9.061-3.067,14.015-2.64
	c6.852,0.591,12.424,3.611,17.13,8.464c0.079,0.083,0.152,0.171,0.226,0.26C65.043,16.292,65.057,16.329,65.115,16.439z"/>
<path fill-rule="evenodd" clip-rule="evenodd" fill="#BC72C9" d="M45.152,42.165c-4.632-0.101-7.587-3.484-8.327-7.554
	c-0.653-3.594,2.107-8.45,6.592-9.483c0.809-0.186,0.946-0.066,0.755,0.726c-0.462,1.911-0.96,3.814-1.397,5.729
	c-0.417,1.833,0.241,3.21,2.185,4.029c1.607,0.677,3.355,1.016,5.041,1.508c0.695,0.203,1.401,0.38,2.08,0.632
	c0.602,0.224,0.668,0.517,0.256,0.989C50.479,40.875,48.201,42.161,45.152,42.165z"/>
</svg>
