<?xml version="1.0" encoding="utf-8"?>
<!-- Generator: Adobe Illustrator 16.0.0, SVG Export Plug-In . SVG Version: 6.00 Build 0)  -->
<!DOCTYPE svg PUBLIC "-//W3C//DTD SVG 1.1//EN" "http://www.w3.org/Graphics/SVG/1.1/DTD/svg11.dtd">
<svg version="1.1" id="Layer_1" xmlns="http://www.w3.org/2000/svg" xmlns:xlink="http://www.w3.org/1999/xlink" x="0px" y="0px"
	 width="100px" height="100px" viewBox="252 347 100 100" enable-background="new 252 347 100 100" xml:space="preserve">
<path fill="#E8B72A" d="M335.665,411.418c0.566,1.708,1.111,3.106,1.488,4.549c0.555,2.118-0.132,3.003-2.34,3.206
	c-0.632,0.058-1.267,0.079-2.329,0.145c0.895,1.053,1.542,1.817,2.191,2.579c1.057,1.24,1.052,2.579-0.387,3.284
	c-3.229,1.582-4.7,3.852-5.11,7.579c-0.409,3.724-3.446,5.182-7.311,4.568c-1.604-0.255-3.239-0.4-4.8-0.819
	c-1.494-0.4-2.909-1.092-4.677-1.779c-0.622,2.462-1.425,4.927-1.826,7.455c-0.324,2.04-1.2,2.61-3.21,2.588
	c-9.145-0.104-18.291-0.104-27.436,0c-2.033,0.023-2.6-0.61-2.472-2.574c0.404-6.241,0.709-12.49,0.931-18.741
	c0.03-0.847-0.45-1.872-1.01-2.556c-5.623-6.863-10.409-14.215-13.592-22.546c-2.621-6.86-3.512-13.864-1.819-21.087
	c0.741-3.164,1.222-6.437,2.382-9.444c2.512-6.509,7.634-10.535,13.999-12.858c11.651-4.253,23.551-5.148,35.47-1.267
	c10.874,3.541,18.335,10.543,20.766,22.114c0.978,4.653,0.667,9.313,0.079,14.004c-0.206,1.646-0.046,3.633,0.722,5.042
	c1.613,2.963,3.723,5.657,5.658,8.441c2.689,3.87,3.023,5.343-2.597,7.381C337.6,410.984,336.713,411.144,335.665,411.418z
	 M293.605,372.64c-1.549,0.437-3.184,0.687-4.633,1.345c-4.763,2.166-7.177,7.049-6.313,12.422c0.766,4.758,5.113,8.543,10.383,9.19
	c2.672,0.329,5.496,0.351,7.428,2.817c0.221,0.283,1.386,0.26,1.722-0.048c1.97-1.807,3.865-3.701,5.674-5.668
	c0.315-0.343,0.36-1.507,0.08-1.734c-2.112-1.706-2.327-4.124-2.646-6.501C304.318,377.129,300.074,372.892,293.605,372.64z
	 M305.825,402.715c1.204,1.163,5.293,1.215,6.479,0.141c1.188-1.074,1.261-5.204,0.018-6.71
	C310.151,398.342,307.989,400.528,305.825,402.715z M304.18,401.685c0.145-0.049,0.456-0.063,0.621-0.226
	c2.083-2.053,4.175-4.097,6.168-6.234c0.239-0.256,0.09-1.335-0.205-1.522c-0.436-0.277-1.405-0.361-1.725-0.067
	c-2.059,1.892-4.063,3.854-5.955,5.914C302.331,400.37,303.009,401.63,304.18,401.685z M293.273,369.432
	c-0.308-1.659-0.355-2.943-0.826-4.047c-0.256-0.599-1.418-1.371-1.841-1.208c-0.655,0.253-1.379,1.207-1.442,1.919
	c-0.099,1.121,0.14,2.372,0.6,3.406c0.289,0.648,1.272,1.411,1.893,1.37C292.279,370.831,292.838,369.853,293.273,369.432z
	 M298.499,370.715c0.555,0.654,0.879,1.388,1.374,1.528c0.574,0.164,1.616,0.031,1.893-0.366c0.844-1.208,1.539-2.563,2.03-3.953
	c0.162-0.459-0.321-1.402-0.788-1.748c-0.387-0.287-1.517-0.268-1.74,0.038C300.25,367.604,299.437,369.143,298.499,370.715z
	 M280.279,389.046c-1.579,0.868-3.045,1.54-4.329,2.465c-0.363,0.262-0.457,1.412-0.192,1.887c0.269,0.482,1.263,1.016,1.708,0.861
	c1.388-0.482,2.735-1.178,3.946-2.011c0.411-0.283,0.632-1.308,0.461-1.837C281.705,389.888,280.926,389.565,280.279,389.046z
	 M280.273,369.384c-0.25,0.186-0.912,0.454-1.172,0.939c-0.22,0.409-0.179,1.231,0.105,1.586c0.847,1.063,1.788,2.093,2.863,2.913
	c0.434,0.331,1.388,0.271,1.957,0.034c0.402-0.167,0.747-0.92,0.78-1.433C284.877,372.33,281.763,369.417,280.273,369.384z
	 M278.051,383.499c0.123,0.12,0.246,0.24,0.368,0.36c0.719-0.625,1.865-1.138,2.062-1.898c0.341-1.319-0.779-1.866-2.014-1.998
	c-1.024-0.109-2.078-0.46-3.055-0.304c-0.644,0.104-1.592,0.878-1.642,1.422c-0.053,0.583,0.656,1.521,1.267,1.814
	C275.932,383.325,277.036,383.319,278.051,383.499z"/>
</svg>
