<?xml version="1.0" encoding="utf-8"?>
<!-- Generator: Adobe Illustrator 16.0.0, SVG Export Plug-In . SVG Version: 6.00 Build 0)  -->
<!DOCTYPE svg PUBLIC "-//W3C//DTD SVG 1.1//EN" "http://www.w3.org/Graphics/SVG/1.1/DTD/svg11.dtd">
<svg version="1.1" id="Capa_1" xmlns="http://www.w3.org/2000/svg" xmlns:xlink="http://www.w3.org/1999/xlink" x="0px" y="0px"
	 width="105px" height="95px" viewBox="3.145 -18.376 105 95" enable-background="new 3.145 -18.376 105 95" xml:space="preserve">
<g>
	<g id="Layer_8_76_">
		<path fill="#5FB963" d="M104.199,12.584L87.714-14.582c-0.494-0.812-1.374-1.306-2.325-1.306H24.715
			c-0.949,0-1.829,0.495-2.323,1.306L5.906,12.584c-0.014,0.026-0.017,0.054-0.032,0.078c-0.11,0.197-0.2,0.408-0.258,0.63
			c-0.009,0.036-0.023,0.069-0.03,0.102c-0.045,0.194-0.073,0.394-0.073,0.603c0,0.04,0.009,0.077,0.012,0.116
			c0.002,0.058,0.01,0.111,0.016,0.167c0.024,0.216,0.07,0.427,0.139,0.627c0.012,0.032,0.019,0.066,0.03,0.097
			c0.093,0.23,0.22,0.441,0.369,0.635c0.016,0.021,0.022,0.046,0.037,0.065l46.803,57.932l0.021,0.025
			c0.012,0.014,0.025,0.021,0.037,0.033c0.127,0.152,0.272,0.287,0.432,0.41c0.008,0.004,0.013,0.014,0.021,0.021
			c0.021,0.016,0.04,0.025,0.063,0.037c0.22,0.154,0.459,0.293,0.731,0.379c0.204,0.064,0.411,0.078,0.615,0.092
			c0.072,0.008,0.137,0.035,0.209,0.035c0.001,0,0.001,0,0.002,0l0,0l0,0c0.016,0,0.029-0.008,0.044-0.008
			c0.238-0.006,0.471-0.043,0.693-0.107c0.029-0.008,0.06-0.006,0.089-0.018c0.004,0,0.006,0,0.008-0.002
			c0.004,0,0.004-0.004,0.009-0.004c0.063-0.025,0.121-0.053,0.182-0.08c0.073-0.027,0.144-0.059,0.214-0.092
			c0.084-0.043,0.164-0.098,0.241-0.15c0.053-0.033,0.106-0.064,0.157-0.102c0.026-0.02,0.053-0.031,0.077-0.055
			c0.121-0.102,0.231-0.213,0.334-0.332c0.019-0.023,0.046-0.037,0.065-0.064l0.022-0.023l46.8-57.933
			C104.706,14.812,104.789,13.566,104.199,12.584z M60.912-10.455l8.691,21.732H40.501l8.693-21.732H60.912z M26.245-10.455h17.097
			l-8.693,21.732H13.055L26.245-10.455z M13.917,16.711h20.588l13.525,42.226L13.917,16.711z M55.052,63.045L40.211,16.711h29.682
			L55.052,63.045z M62.074,58.939l13.523-42.228h20.588L62.074,58.939z M75.455,11.278l-8.692-21.732h17.096l13.189,21.732H75.455z"
			/>
	</g>
</g>
</svg>
