<?xml version="1.0" encoding="utf-8"?>
<!-- Generator: Adobe Illustrator 16.0.0, SVG Export Plug-In . SVG Version: 6.00 Build 0)  -->
<!DOCTYPE svg PUBLIC "-//W3C//DTD SVG 1.1//EN" "http://www.w3.org/Graphics/SVG/1.1/DTD/svg11.dtd">
<svg version="1.1" id="Capa_1" xmlns="http://www.w3.org/2000/svg" xmlns:xlink="http://www.w3.org/1999/xlink" x="0px" y="0px"
	 width="100px" height="66.871px" viewBox="0 16.162 100 66.871" enable-background="new 0 16.162 100 66.871" xml:space="preserve"
	>
<g>
	<path fill="#24C0D3" d="M95.979,46.473c-4.771-7.806-11.188-14.076-19.25-18.813c-8.061-4.738-16.572-7.106-25.537-7.106
		c-8.963,0-17.476,2.368-25.537,7.106c-8.061,4.737-14.478,11.008-19.248,18.813c-0.682,1.192-1.022,2.369-1.022,3.528
		c0,1.161,0.341,2.334,1.022,3.528c4.771,7.807,11.188,14.076,19.248,18.813c8.062,4.738,16.574,7.105,25.537,7.105
		c8.965,0,17.477-2.359,25.537-7.078c8.062-4.723,14.479-11.002,19.25-18.842C96.66,52.336,97,51.16,97,50
		C97,48.841,96.66,47.666,95.979,46.473z M40.225,32.49c3.051-3.05,6.707-4.576,10.967-4.576c0.683,0,1.262,0.239,1.738,0.717
		c0.477,0.477,0.717,1.057,0.717,1.738s-0.24,1.26-0.715,1.737c-0.478,0.478-1.058,0.716-1.738,0.716
		c-2.932,0-5.438,1.04-7.517,3.119c-2.08,2.08-3.118,4.585-3.118,7.516c0,0.683-0.24,1.262-0.717,1.739
		c-0.479,0.478-1.057,0.716-1.738,0.716s-1.262-0.238-1.738-0.716c-0.479-0.478-0.717-1.057-0.717-1.739
		C35.648,39.196,37.175,35.541,40.225,32.49z M73.406,66.693c-6.834,4.141-14.237,6.211-22.213,6.211
		c-7.977,0-15.381-2.068-22.215-6.211C22.146,62.553,16.462,56.988,11.929,50c5.181-8.043,11.673-14.06,19.479-18.047
		c-2.079,3.545-3.119,7.379-3.119,11.502c0,6.307,2.24,11.698,6.723,16.182c4.48,4.482,9.877,6.723,16.182,6.723
		s11.699-2.24,16.181-6.723s6.723-9.875,6.723-16.182c0-4.123-1.04-7.959-3.118-11.502C78.783,35.94,85.275,41.957,90.457,50
		C85.923,56.988,80.24,62.553,73.406,66.693z"/>
</g>
</svg>
