<?xml version="1.0" encoding="utf-8"?>
<!-- Generator: Adobe Illustrator 21.0.0, SVG Export Plug-In . SVG Version: 6.00 Build 0)  -->
<svg version="1.1" id="Layer_1" xmlns="http://www.w3.org/2000/svg" xmlns:xlink="http://www.w3.org/1999/xlink" x="0px" y="0px"
	 viewBox="0 0 250 238" style="enable-background:new 0 0 250 238;" xml:space="preserve">
<style type="text/css">
	.st0{fill:#F5FBFF;}
	.st1{fill:#FFFFFF;}
	.st2{fill:#3A3A3A;}
	.st3{fill:#B6FDFF;}
	.st4{fill:#B8FCFF;}
</style>
<g>
	<circle class="st0" cx="124.9" cy="117.1" r="113.5"/>
	<path class="st1" d="M16.2,154.9h118.9c0,0-0.1-19.9,0-30.5c0.2-10.4,6.4-10.2,9.3-10.2c2.9,0,10.2,0,10.2,0s0.2-10.2,0-23.3
		c0.1-19,14.1-18.2,18.2-18.2s12.1,0,12.1,0V50.6c0-2.6-2.2-4.8-4.8-4.8H21c-2.6,0-4.8,2.2-4.8,4.8v57.5V154.9z"/>
	<path class="st2" d="M245.8,93.1c0.4-19.6-10.7-20.6-19.1-20.6s-29.5,0-29.5,0s0.1-7.2,0-21c-0.1-13.7-9-17.5-18.4-17.5
		c-9.4,0-138.6,0.1-155.5,0c-16.9-0.1-19,10.4-19,16.4s-0.3,89.3,0,104.7c0.5,18.4,15.9,17.1,20.4,17h56v18.1l-24.2,0.1
		c-1.1,0-2,0.9-2,2c0,1.1,0.9,2,2,2l79-0.4c0,0-0.9,6.9,9.5,7.2c4.8,0,24.6-0.1,31.7,0c6.2,0,7.1-3,7.1-3s21.3-0.1,41.7,0.1
		c20.4,0.3,20.2-10.5,20.2-19.4S245.8,93.1,245.8,93.1z M135.2,190l-16.2,0.1v-17.8h16.2V190z M185,72.7c0,0-8.1,0-12.1,0
		c-4,0-18.1-0.8-18.2,18.2c0.2,13.1,0,23.3,0,23.3s-7.3,0-10.2,0s-9.2-0.2-9.3,10.2c-0.1,10.7,0,30.5,0,30.5h-119v-46.7V50.6
		c0-2.6,2.2-4.8,4.8-4.8h159.2c2.6,0,4.8,2.2,4.8,4.8V72.7z"/>
	<path class="st3" d="M135.3,158.4v10.3c0,0-104.9,0-111,0s-16.4-0.4-16.4-14.3c0-11.6,0-98.7,0-103.3s0.8-13.3,16.9-13.1
		c0,0,147.3,0,154.1,0c6.8,0,14.5,1.2,14.6,13.7s0,21.2,0,21.2h-4.8c0,0,0-16.9,0-19.6s0.4-11.3-11.9-11.3c-12.8-0.1-145.2,0-151,0
		s-12.4-0.2-12.8,10.8c-0.5,12.9-0.2,98.6-0.1,101c0,2.5-0.6,4.9,3.9,5C21.5,158.7,135.3,158.4,135.3,158.4z"/>
	<path class="st1" d="M139,187.2v5.7c0,2.6,2.2,4.8,4.8,4.8h33.5c2.6,0,4.8-2.2,4.8-4.8v-5.7H139z"/>
	<path class="st4" d="M162.8,114.6h-4.5c0,0-0.3-21.4,0-25.4c0.5-6.8,2.7-12.9,12.5-12.9c14.9,0,54.3,0,58.7,0
		c4.5,0,12.7,1.1,12.5,12.6c-0.1,11.5,0,86.3,0,92.2s-0.4,13-13.1,13.2c-12.7,0.2-43.3,0-43.3,0v-13.7c0,0,45.3,0,48.5,0
		c3.3,0,3.6-0.2,3.8-3.4c0.2-3.2,0-88.9,0-90.7c0-2.5-0.1-3.2-4.8-3.1c-5.5,0.1-65.3,0-67.4,0s-3.1,0-3.1,3.1
		C162.5,91.1,162.8,114.6,162.8,114.6z"/>
	<polygon class="st1" points="84.7,190.3 115,190.1 115,172.3 84.7,172.3 	"/>
	<path class="st2" d="M107.3,164.5H92.4c-1.1,0-2-0.9-2-2l0,0c0-1.1,0.9-2,2-2h14.9c1.1,0,2,0.9,2,2l0,0
		C109.3,163.7,108.4,164.5,107.3,164.5z"/>
	<path class="st2" d="M71.5,138.9H58.2c-1.1,0-2-0.9-2-2l0,0c0-1.1,0.9-2,2-2h13.3c1.1,0,2,0.9,2,2l0,0
		C73.4,138,72.5,138.9,71.5,138.9z"/>
	<path class="st2" d="M206.5,190h-12.1c-1.1,0-2-0.9-2-2l0,0c0-1.1,0.9-2,2-2h12.1c1.1,0,2,0.9,2,2l0,0
		C208.4,189.1,207.5,190,206.5,190z"/>
	<path class="st2" d="M163.7,194.4h-7.3c-1.1,0-2-0.9-2-2l0,0c0-1.1,0.9-2,2-2h7.3c1.1,0,2,0.9,2,2l0,0
		C165.7,193.5,164.8,194.4,163.7,194.4z"/>
	<path class="st2" d="M51.1,138.9H37.1c-1.1,0-2-0.9-2-2l0,0c0-1.1,0.9-2,2-2h14.1c1.1,0,2,0.9,2,2l0,0
		C53.1,138,52.2,138.9,51.1,138.9z"/>
	<path class="st2" d="M36.5,94H26.5c-1.1,0-2-0.9-2-2l0,0c0-1.1,0.9-2,2-2h10.1c1.1,0,2,0.9,2,2l0,0C38.5,93.2,37.6,94,36.5,94z"/>
	<path class="st2" d="M36.5,120.5H26.5c-1.1,0-2-0.9-2-2l0,0c0-1.1,0.9-2,2-2h10.1c1.1,0,2,0.9,2,2l0,0
		C38.5,119.6,37.6,120.5,36.5,120.5z"/>
	<path class="st2" d="M62.1,128.7H36.5c-1.1,0-2-0.9-2-2l0,0c0-1.1,0.9-2,2-2h25.6c1.1,0,2,0.9,2,2l0,0
		C64.1,127.8,63.2,128.7,62.1,128.7z"/>
	<path class="st2" d="M77.9,128.7h-7.3c-1.1,0-2-0.9-2-2l0,0c0-1.1,0.9-2,2-2h7.3c1.1,0,2,0.9,2,2l0,0
		C79.9,127.8,79.1,128.7,77.9,128.7z"/>
	<path class="st2" d="M102.4,128.9h-16c-1.1,0-2-0.9-2-2l0,0c0-1.1,0.9-2,2-2h16c1.1,0,2,0.9,2,2l0,0
		C104.3,128,103.5,128.9,102.4,128.9z"/>
	<path class="st2" d="M127,128.9h-16.8c-1.1,0-2-0.9-2-2l0,0c0-1.1,0.9-2,2-2H127c1.1,0,2,0.9,2,2l0,0
		C129,128,128.2,128.9,127,128.9z"/>
	<path class="st2" d="M64.9,112.8H36.5c-1.1,0-2-0.9-2-2l0,0c0-1.1,0.9-2,2-2h28.4c1.1,0,2,0.9,2,2l0,0
		C66.9,111.9,66,112.8,64.9,112.8z"/>
	<path class="st2" d="M87.9,112.8H73c-1.1,0-2-0.9-2-2l0,0c0-1.1,0.9-2,2-2h14.9c1.1,0,2,0.9,2,2l0,0
		C89.9,111.9,89,112.8,87.9,112.8z"/>
	<path class="st2" d="M103.2,113h-8.9c-1.1,0-2-0.9-2-2l0,0c0-1.1,0.9-2,2-2h8.9c1.1,0,2,0.9,2,2l0,0C105.1,112,104.3,113,103.2,113
		z"/>
	<path class="st2" d="M127,113h-16.8c-1.1,0-2-0.9-2-2l0,0c0-1.1,0.9-2,2-2H127c1.1,0,2,0.9,2,2l0,0C129,112,128.2,113,127,113z"/>
	<path class="st2" d="M64.9,102H36.5c-1.1,0-2-0.9-2-2l0,0c0-1.1,0.9-2,2-2h28.4c1.1,0,2,0.9,2,2l0,0C66.9,101.1,66,102,64.9,102z"
		/>
	<path class="st2" d="M79.9,102H73c-1.1,0-2-0.9-2-2l0,0c0-1.1,0.9-2,2-2h6.9c1.1,0,2,0.9,2,2l0,0C81.9,101.1,81.1,102,79.9,102z"/>
	<path class="st2" d="M105.9,102.2h-20c-1.1,0-2-0.9-2-2l0,0c0-1.1,0.9-2,2-2h20c1.1,0,2,0.9,2,2l0,0
		C107.9,101.3,107.1,102.2,105.9,102.2z"/>
	<path class="st2" d="M138.6,102.2h-24.8c-1.1,0-2-0.9-2-2l0,0c0-1.1,0.9-2,2-2h24.8c1.1,0,2,0.9,2,2l0,0
		C140.6,101.3,139.7,102.2,138.6,102.2z"/>
	<path class="st1" d="M166.5,87.5h67.7V177h-48.5c0,0,0-47.2,0-52s0.4-11-10.3-10.6h-8.9L166.5,87.5L166.5,87.5z"/>
	<path class="st1" d="M139,122.2L139,122.2c0-2.3,1.9-4.1,4.1-4.1h34.8c2.3,0,4.1,1.9,4.1,4.1l0,0v1.5H139V122.2z"/>
	<rect x="139" y="127.4" class="st1" width="43.1" height="56.4"/>
	<path class="st2" d="M95.1,82.3L95.1,82.3c1,0.2,1.9-0.4,2.2-1.3l6.3-25.1c0.2-1-0.4-1.9-1.3-2.2l0,0c-1-0.2-1.9,0.4-2.2,1.3
		l-6.3,25.1C93.6,81.1,94.1,82.1,95.1,82.3z"/>
	<path class="st2" d="M80.3,67.5l9.1-7.2c0.8-0.6,0.9-1.7,0.3-2.5s-1.7-0.9-2.5-0.3l-10.8,8.5c-1.3,1.2-2.1,2.8,0,4.5l10.6,8.4
		c0.8,0.6,1.9,0.5,2.5-0.3c0.6-0.8,0.5-1.9-0.3-2.5L80.2,69C79.9,68.7,79.8,68,80.3,67.5z"/>
	<path class="st2" d="M117.3,67.7l-9.1-7.2c-0.8-0.6-0.9-1.7-0.3-2.5c0.6-0.8,1.7-0.9,2.5-0.3l10.8,8.5c1.3,1.2,2.1,2.8,0,4.5
		l-10.6,8.4c-0.8,0.6-1.9,0.5-2.5-0.3c-0.6-0.8-0.5-1.9,0.3-2.5l9.1-7.2C117.8,68.8,117.8,68.1,117.3,67.7z"/>
</g>
</svg>
