<?xml version="1.0" encoding="utf-8"?>
<!-- Generator: Adobe Illustrator 21.0.0, SVG Export Plug-In . SVG Version: 6.00 Build 0)  -->
<svg version="1.1" id="Layer_1" xmlns="http://www.w3.org/2000/svg" xmlns:xlink="http://www.w3.org/1999/xlink" x="0px" y="0px"
	 viewBox="0 0 250 238" style="enable-background:new 0 0 250 238;" xml:space="preserve">
<style type="text/css">
	.st0{fill:#F5FBFF;}
	.st1{fill:#FFFFFF;}
	.st2{fill:#B6FDFF;}
	.st3{fill:#3A3A3A;}
</style>
<circle class="st0" cx="131.1" cy="117.5" r="113.5"/>
<g>
	<path class="st1" d="M158.2,193.4l-0.3-9.3l-0.2-0.5c-0.9-2.1-1.4-4.3-1.4-6.6v-2.7H36.8c-13,0-23.6-10.6-23.6-23.6V50.2
		c0-13,10.6-23.5,23.6-23.5H180c13,0,23.6,10.6,23.6,23.6v19.2h15.1c9,0,16.4,7.3,16.4,16.3V177c0,9-7.4,16.4-16.4,16.4H158.2z"/>
	<path class="st2" d="M48.9,194.6c-2.2,0-4.1-1.8-4.1-4.1c0-2.2,1.8-4.1,4.1-4.1h111.3c1.7,3.3,4.2,6.1,7.4,8.1H48.9z"/>
	<path class="st3" d="M172.6,194.6c-6.9,0-13.2-4.1-16-10.4c-1-2.2-1.5-4.6-1.5-7v-1.6H36.8c-13.6-0.1-24.6-11.2-24.5-24.8V50.2
		c0-13.6,10.9-24.6,24.5-24.7H180c13.6,0,24.7,11,24.7,24.7v18.3h14c9.6,0,17.3,7.8,17.3,17.4V177c0,9.6-7.8,17.4-17.4,17.4
		L172.6,194.6z M172.6,76.7c-5.1,0-9.3,4.1-9.3,9.3v91.2c0,5.1,4.2,9.3,9.3,9.3h46.2c5.1,0,9.3-4.1,9.3-9.3c0,0,0,0,0,0V85.9
		c0-5.1-4.2-9.3-9.3-9.3c0,0,0,0,0,0L172.6,76.7z M36.8,33.8c-9.1,0-16.5,7.4-16.5,16.5v100.5c0,9.1,7.4,16.5,16.5,16.6h118.4V85.9
		c0-9.6,7.8-17.4,17.4-17.4h24V50.2c0-9.1-7.4-16.5-16.6-16.5c0,0,0,0,0,0L36.8,33.8z"/>
</g>
</svg>
